<svg xmlns="http://www.w3.org/2000/svg" width="900" height="520" font-family="sans-serif"><text x="40" y="32" font-size="13" fill="#333">j1 — 입력 L(파랑) vs 출력 P(빨강), [-27°, 66°], 225s</text><rect x="40" y="40" width="820" height="110" fill="none" stroke="#ddd"/><polyline fill="none" stroke="#1f77b4" stroke-width="1.2" points=""/><polyline fill="none" stroke="#d62728" stroke-width="1.2" points="40.0,118.4 40.5,118.4 41.1,118.4 41.6,118.4 42.2,118.4 42.7,118.4 43.3,118.4 43.8,118.4 44.4,118.4 44.9,118.4 45.5,118.4 46.0,118.4 46.6,118.4 47.1,118.4 47.6,118.4 48.2,118.4 48.7,118.4 49.3,118.4 49.8,118.4 50.4,118.4 50.9,118.4 51.5,118.4 52.0,118.4 52.6,118.4 53.1,118.4 53.7,118.4 54.2,118.4 54.7,118.4 55.3,118.4 55.8,118.4 56.4,118.4 56.9,118.4 57.5,118.4 58.0,118.4 58.6,118.2 59.1,117.9 59.7,117.8 60.2,117.7 60.8,117.7 61.3,117.7 61.8,117.7 62.4,117.7 62.9,117.5 63.5,117.4 64.0,117.4 64.6,117.4 65.1,117.3 65.7,117.2 66.2,117.0 66.8,116.8 67.3,115.5 67.8,110.3 68.4,99.1 68.9,79.5 69.5,61.0 70.0,55.3 70.6,55.7 71.1,65.7 71.7,81.8 72.2,97.9 72.8,110.8 73.3,119.2 73.9,125.2 74.4,128.3 74.9,129.5 75.5,128.7 76.0,125.2 76.6,116.9 77.1,100.0 77.7,81.4 78.2,66.6 78.8,58.6 79.3,57.5 79.9,59.0 80.4,69.5 81.0,82.4 81.5,96.4 82.0,110.5 82.6,122.9 83.1,127.4 83.7,126.1 84.2,116.0 84.8,103.1 85.3,92.7 85.9,88.1 86.4,87.8 87.0,89.0 87.5,97.6 88.1,107.3 88.6,115.3 89.1,121.3 89.7,123.6 90.2,124.5 90.8,121.9 91.3,113.4 91.9,100.6 92.4,85.7 93.0,75.6 93.5,73.8 94.1,77.2 94.6,91.9 95.2,103.0 95.7,110.4 96.2,119.1 96.8,123.6 97.3,125.5 97.9,125.3 98.4,122.5 99.0,116.3 99.5,102.3 100.1,82.7 100.6,69.1 101.2,63.0 101.7,62.7 102.3,66.8 102.8,83.7 103.3,104.0 103.9,115.2 104.4,114.9 105.0,103.9 105.5,91.8 106.1,91.8 106.6,99.2 107.2,106.2 107.7,106.5 108.3,105.3 108.8,103.1 109.3,102.5 109.9,106.5 110.4,112.4 111.0,113.4 111.5,115.8 112.1,116.7 112.6,117.3 113.2,117.1 113.7,115.5 114.3,109.9 114.8,103.3 115.4,97.7 115.9,92.7 116.4,87.8 117.0,85.1 117.5,84.9 118.1,85.4 118.6,91.7 119.2,100.1 119.7,107.3 120.3,113.9 120.8,118.5 121.4,120.6 121.9,121.3 122.5,126.4 123.0,131.4 123.5,134.0 124.1,137.4 124.6,143.4 125.2,148.7 125.7,149.9 126.3,150.0 126.8,146.9 127.4,138.3 127.9,128.6 128.5,117.3 129.0,109.6 129.6,104.5 130.1,97.3 130.6,92.7 131.2,92.1 131.7,92.1 132.3,92.1 132.8,92.1 133.4,92.1 133.9,92.1 134.5,92.1 135.0,92.0 135.6,92.3 136.1,94.3 136.7,94.4 137.2,94.4 137.7,93.3 138.3,87.5 138.8,84.9 139.4,85.2 139.9,92.6 140.5,108.3 141.0,122.2 141.6,130.1 142.1,131.2 142.7,124.8 143.2,108.8 143.8,88.7 144.3,74.8 144.8,69.9 145.4,70.1 145.9,74.8 146.5,77.1 147.0,76.9 147.6,73.9 148.1,70.6 148.7,67.4 149.2,64.7 149.8,62.8 150.3,62.1 150.9,62.1 151.4,62.2 151.9,62.4 152.5,63.7 153.0,65.3 153.6,66.5 154.1,68.3 154.7,71.9 155.2,78.0 155.8,84.0 156.3,89.6 156.9,95.9 157.4,101.9 157.9,108.8 158.5,113.1 159.0,114.1 159.6,114.1 160.1,112.2 160.7,108.8 161.2,108.5 161.8,108.6 162.3,108.7 162.9,111.1 163.4,111.9 164.0,111.9 164.5,112.1 165.0,113.0 165.6,114.3 166.1,115.8 166.7,115.9 167.2,115.8 167.8,115.7 168.3,115.7 168.9,115.4 169.4,115.4 170.0,115.4 170.5,115.4 171.1,115.2 171.6,115.2 172.1,114.8 172.7,114.8 173.2,114.8 173.8,114.8 174.3,114.9 174.9,114.9 175.4,115.1 176.0,115.3 176.5,115.4 177.1,115.4 177.6,115.4 178.2,115.4 178.7,115.3 179.2,115.2 179.8,115.0 180.3,115.0 180.9,114.9 181.4,114.9 182.0,114.9 182.5,114.9 183.1,114.8 183.6,114.8 184.2,114.8 184.7,114.8 185.3,114.8 185.8,114.8 186.3,114.8 186.9,114.8 187.4,114.8 188.0,114.8 188.5,114.8 189.1,114.8 189.6,114.8 190.2,114.8 190.7,114.8 191.3,114.8 191.8,114.8 192.4,114.8 192.9,114.8 193.4,114.8 194.0,114.8 194.5,114.8 195.1,114.8 195.6,114.8 196.2,114.8 196.7,114.8 197.3,114.8 197.8,114.8 198.4,114.0 198.9,110.8 199.4,104.2 200.0,96.1 200.5,90.0 201.1,88.5 201.6,88.6 202.2,90.5 202.7,95.5 203.3,100.8 203.8,104.0 204.4,105.0 204.9,105.7 205.5,105.7 206.0,103.2 206.5,95.5 207.1,86.0 207.6,76.5 208.2,67.6 208.7,60.0 209.3,56.2 209.8,56.0 210.4,59.7 210.9,69.3 211.5,80.0 212.0,90.4 212.6,99.4 213.1,110.3 213.6,117.8 214.2,118.9 214.7,117.8 215.3,117.5 215.8,118.9 216.4,126.5 216.9,133.6 217.5,135.3 218.0,134.3 218.6,128.5 219.1,122.8 219.7,119.2 220.2,116.5 220.7,110.0 221.3,100.5 221.8,94.1 222.4,89.7 222.9,85.3 223.5,82.4 224.0,80.7 224.6,77.4 225.1,73.8 225.7,73.6 226.2,77.7 226.8,85.8 227.3,94.8 227.8,99.0 228.4,97.2 228.9,88.4 229.5,82.6 230.0,81.9 230.6,81.2 231.1,78.4 231.7,78.4 232.2,77.7 232.8,72.6 233.3,71.6 233.9,71.6 234.4,73.8 234.9,75.9 235.5,76.1 236.0,76.1 236.6,76.2 237.1,76.5 237.7,77.8 238.2,79.7 238.8,81.7 239.3,83.7 239.9,85.7 240.4,87.1 241.0,89.0 241.5,89.5 242.0,89.1 242.6,85.2 243.1,81.7 243.7,78.9 244.2,76.7 244.8,73.9 245.3,73.5 245.9,73.5 246.4,73.9 247.0,78.0 247.5,82.5 248.0,85.1 248.6,85.3 249.1,85.3 249.7,85.3 250.2,85.5 250.8,86.1 251.3,87.1 251.9,90.5 252.4,92.5 253.0,95.2 253.5,99.8 254.1,106.2 254.6,114.5 255.1,121.4 255.7,123.8 256.2,123.6 256.8,120.5 257.3,114.3 257.9,108.3 258.4,101.7 259.0,97.9 259.5,93.5 260.1,91.3 260.6,91.8 261.2,95.6 261.7,96.5 262.2,93.7 262.8,84.5 263.3,83.5 263.9,90.9 264.4,100.6 265.0,108.9 265.5,116.5 266.1,118.4 266.6,118.4 267.2,116.3 267.7,107.7 268.3,97.1 268.8,86.8 269.3,79.1 269.9,71.5 270.4,66.6 271.0,66.4 271.5,68.1 272.1,75.3 272.6,81.2 273.2,82.9 273.7,82.8 274.3,81.8 274.8,77.7 275.4,75.1 275.9,74.7 276.4,74.6 277.0,74.5 277.5,74.5 278.1,74.5 278.6,75.0 279.2,75.7 279.7,75.7 280.3,76.5 280.8,76.6 281.4,76.6 281.9,76.6 282.5,76.6 283.0,76.6 283.5,76.6 284.1,77.5 284.6,77.5 285.2,76.9 285.7,75.3 286.3,74.6 286.8,74.1 287.4,72.9 287.9,71.4 288.5,70.1 289.0,69.7 289.5,69.7 290.1,69.7 290.6,69.2 291.2,66.6 291.7,64.7 292.3,63.7 292.8,63.7 293.4,64.0 293.9,67.4 294.5,72.4 295.0,82.9 295.6,96.1 296.1,107.3 296.6,112.9 297.2,113.3 297.7,112.7 298.3,110.6 298.8,107.9 299.4,106.5 299.9,106.5 300.5,106.8 301.0,106.1 301.6,99.3 302.1,89.3 302.7,82.2 303.2,78.9 303.7,81.1 304.3,89.9 304.8,94.6 305.4,95.1 305.9,92.6 306.5,81.2 307.0,69.5 307.6,65.1 308.1,64.8 308.7,69.1 309.2,85.1 309.8,97.8 310.3,104.1 310.8,105.4 311.4,105.4 311.9,104.9 312.5,103.8 313.0,103.1 313.6,103.6 314.1,108.8 314.7,113.9 315.2,116.2 315.8,116.9 316.3,117.1 316.9,117.0 317.4,116.8 317.9,116.7 318.5,116.7 319.0,116.7 319.6,116.5 320.1,116.3 320.7,116.3 321.2,116.3 321.8,116.2 322.3,116.0 322.9,115.7 323.4,115.7 324.0,115.7 324.5,115.7 325.0,115.7 325.6,115.7 326.1,115.7 326.7,115.7 327.2,115.7 327.8,115.7 328.3,115.7 328.9,115.7 329.4,115.7 330.0,115.7 330.5,115.7 331.0,115.7 331.6,115.7 332.1,115.7 332.7,115.6 333.2,115.3 333.8,115.3 334.3,115.3 334.9,115.1 335.4,114.9 336.0,114.8 336.5,114.8 337.1,114.8 337.6,114.8 338.1,114.7 338.7,114.7 339.2,114.7 339.8,114.7 340.3,114.7 340.9,114.7 341.4,114.7 342.0,114.7 342.5,114.7 343.1,114.7 343.6,114.7 344.2,114.7 344.7,114.7 345.2,114.7 345.8,114.4 346.3,112.2 346.9,109.3 347.4,103.5 348.0,96.4 348.5,93.4 349.1,93.2 349.6,94.8 350.2,99.2 350.7,104.2 351.3,108.6 351.8,109.8 352.3,105.1 352.9,92.3 353.4,83.7 354.0,81.6 354.5,79.5 355.1,76.0 355.6,71.9 356.2,67.8 356.7,65.8 357.3,65.1 357.8,65.2 358.4,67.9 358.9,71.4 359.4,75.9 360.0,83.4 360.5,95.2 361.1,108.2 361.6,115.8 362.2,118.5 362.7,118.3 363.3,118.0 363.8,116.7 364.4,116.3 364.9,116.3 365.5,116.3 366.0,118.9 366.5,123.8 367.1,128.0 367.6,130.5 368.2,129.8 368.7,127.3 369.3,124.5 369.8,121.8 370.4,119.0 370.9,117.0 371.5,113.2 372.0,106.6 372.6,98.2 373.1,88.6 373.6,82.0 374.2,78.7 374.7,77.1 375.3,73.3 375.8,70.4 376.4,68.5 376.9,68.5 377.5,68.5 378.0,68.5 378.6,68.5 379.1,68.8 379.6,70.3 380.2,73.0 380.7,74.7 381.3,75.0 381.8,75.0 382.4,75.1 382.9,75.0 383.5,75.0 384.0,75.0 384.6,75.0 385.1,75.1 385.7,76.6 386.2,78.2 386.7,78.5 387.3,78.4 387.8,75.1 388.4,73.3 388.9,73.3 389.5,73.3 390.0,73.2 390.6,73.3 391.1,74.6 391.7,79.7 392.2,88.2 392.8,97.6 393.3,104.2 393.8,108.5 394.4,111.8 394.9,112.2 395.5,113.9 396.0,113.6 396.6,112.9 397.1,110.0 397.7,104.7 398.2,99.6 398.8,96.2 399.3,91.8 399.9,89.7 400.4,89.0 400.9,88.5 401.5,88.5 402.0,90.2 402.6,90.8 403.1,90.7 403.7,88.7 404.2,88.1 404.8,88.2 405.3,88.2 405.9,88.1 406.4,85.9 407.0,83.9 407.5,83.3 408.0,83.1 408.6,83.2 409.1,85.4 409.7,89.9 410.2,96.0 410.8,100.5 411.3,102.1 411.9,103.9 412.4,106.9 413.0,110.7 413.5,111.9 414.1,112.1 414.6,112.0 415.1,109.7 415.7,103.8 416.2,98.6 416.8,94.9 417.3,93.5 417.9,92.5 418.4,92.1 419.0,92.1 419.5,93.4 420.1,93.4 420.6,93.8 421.1,92.3 421.7,81.6 422.2,70.9 422.8,64.9 423.3,62.0 423.9,61.9 424.4,62.3 425.0,67.8 425.5,73.0 426.1,76.9 426.6,80.9 427.2,86.3 427.7,93.9 428.2,105.6 428.8,115.6 429.3,122.1 429.9,130.2 430.4,131.4 431.0,129.2 431.5,123.1 432.1,119.1 432.6,117.6 433.2,114.9 433.7,112.9 434.3,112.9 434.8,112.9 435.3,113.2 435.9,114.3 436.4,114.9 437.0,115.4 437.5,112.2 438.1,108.4 438.6,106.8 439.2,106.6 439.7,106.6 440.3,106.5 440.8,106.1 441.4,106.1 441.9,106.7 442.4,108.3 443.0,109.5 443.5,110.0 444.1,110.0 444.6,109.9 445.2,109.9 445.7,109.9 446.3,109.8 446.8,109.8 447.4,109.4 447.9,109.4 448.5,110.4 449.0,110.4 449.5,110.1 450.1,110.2 450.6,111.8 451.2,111.9 451.7,110.0 452.3,106.6 452.8,103.5 453.4,97.5 453.9,90.5 454.5,84.3 455.0,76.6 455.6,69.9 456.1,65.5 456.6,63.7 457.2,63.6 457.7,63.6 458.3,63.6 458.8,63.6 459.4,63.7 459.9,65.4 460.5,67.8 461.0,70.0 461.6,73.4 462.1,76.0 462.7,77.0 463.2,77.1 463.7,76.9 464.3,75.1 464.8,73.0 465.4,71.4 465.9,70.5 466.5,70.4 467.0,70.8 467.6,74.5 468.1,77.4 468.7,77.9 469.2,77.6 469.7,75.0 470.3,71.6 470.8,71.1 471.4,75.2 471.9,82.2 472.5,90.5 473.0,100.1 473.6,107.6 474.1,112.3 474.7,113.9 475.2,114.6 475.8,115.3 476.3,115.5 476.8,115.0 477.4,112.4 477.9,108.6 478.5,105.0 479.0,99.3 479.6,93.7 480.1,89.1 480.7,83.5 481.2,77.8 481.8,74.7 482.3,74.1 482.9,74.1 483.4,76.4 483.9,82.4 484.5,87.9 485.0,93.2 485.6,99.0 486.1,107.1 486.7,115.2 487.2,118.7 487.8,118.6 488.3,120.6 488.9,127.2 489.4,135.7 490.0,141.6 490.5,146.2 491.0,149.2 491.6,149.0 492.1,138.9 492.7,125.4 493.2,111.2 493.8,95.0 494.3,86.0 494.9,87.5 495.4,95.4 496.0,96.3 496.5,85.7 497.1,74.6 497.6,70.1 498.1,69.3 498.7,69.8 499.2,72.1 499.8,72.2 500.3,66.4 500.9,56.1 501.4,54.8 502.0,58.5 502.5,72.5 503.1,87.5 503.6,96.8 504.2,101.5 504.7,104.9 505.2,107.0 505.8,108.4 506.3,109.1 506.9,109.8 507.4,110.2 508.0,110.5 508.5,110.9 509.1,111.4 509.6,112.1 510.2,112.5 510.7,112.4 511.2,112.4 511.8,112.4 512.3,112.4 512.9,112.4 513.4,112.3 514.0,112.3 514.5,112.3 515.1,112.2 515.6,112.2 516.2,112.2 516.7,112.2 517.3,112.2 517.8,112.2 518.3,112.2 518.9,112.2 519.4,112.2 520.0,112.2 520.5,112.2 521.1,112.2 521.6,112.2 522.2,112.2 522.7,112.2 523.3,112.2 523.8,112.2 524.4,112.2 524.9,112.2 525.4,112.2 526.0,112.2 526.5,112.2 527.1,112.2 527.6,112.2 528.2,112.2 528.7,112.2 529.3,112.2 529.8,112.2 530.4,112.2 530.9,112.2 531.5,112.2 532.0,112.2 532.5,112.2 533.1,112.2 533.6,112.2 534.2,112.2 534.7,112.2 535.3,112.2 535.8,112.2 536.4,112.4 536.9,112.4 537.5,112.5 538.0,113.1 538.6,113.0 539.1,113.0 539.6,113.0 540.2,113.0 540.7,113.1 541.3,114.0 541.8,114.7 542.4,114.9 542.9,113.6 543.5,109.9 544.0,105.0 544.6,100.9 545.1,98.3 545.7,94.3 546.2,89.6 546.7,87.1 547.3,84.9 547.8,83.5 548.4,83.4 548.9,83.4 549.5,86.3 550.0,91.8 550.6,95.1 551.1,98.1 551.7,100.7 552.2,103.3 552.8,105.7 553.3,106.4 553.8,106.8 554.4,106.8 554.9,105.4 555.5,99.2 556.0,90.9 556.6,84.6 557.1,81.1 557.7,79.5 558.2,79.5 558.8,79.2 559.3,78.7 559.8,78.7 560.4,78.7 560.9,78.7 561.5,78.7 562.0,78.6 562.6,79.9 563.1,87.4 563.7,95.1 564.2,100.8 564.8,104.6 565.3,106.4 565.9,106.8 566.4,107.1 566.9,107.1 567.5,106.8 568.0,105.5 568.6,103.5 569.1,101.9 569.7,101.8 570.2,105.0 570.8,110.6 571.3,113.2 571.9,114.5 572.4,115.7 573.0,115.7 573.5,114.8 574.0,111.4 574.6,106.1 575.1,99.4 575.7,91.8 576.2,87.0 576.8,83.9 577.3,81.6 577.9,79.9 578.4,80.0 579.0,79.9 579.5,79.6 580.1,77.3 580.6,75.8 581.1,74.4 581.7,74.4 582.2,76.0 582.8,83.2 583.3,92.7 583.9,101.8 584.4,108.8 585.0,112.9 585.5,113.8 586.1,113.7 586.6,112.3 587.2,108.4 587.7,103.3 588.2,99.3 588.8,96.7 589.3,92.4 589.9,88.9 590.4,88.7 591.0,88.7 591.5,91.0 592.1,96.5 592.6,102.2 593.2,109.0 593.7,111.1 594.3,111.1 594.8,110.9 595.3,110.9 595.9,110.9 596.4,111.0 597.0,111.0 597.5,111.0 598.1,111.3 598.6,111.9 599.2,112.3 599.7,112.4 600.3,112.4 600.8,112.4 601.3,112.5 601.9,112.7 602.4,112.9 603.0,113.1 603.5,113.2 604.1,113.2 604.6,113.8 605.2,113.9 605.7,113.9 606.3,113.3 606.8,112.8 607.4,112.8 607.9,112.8 608.4,115.3 609.0,119.3 609.5,119.9 610.1,116.9 610.6,110.1 611.2,102.1 611.7,95.6 612.3,92.5 612.8,90.8 613.4,86.2 613.9,78.7 614.5,72.3 615.0,67.9 615.5,63.5 616.1,58.6 616.6,54.3 617.2,54.6 617.7,61.8 618.3,71.1 618.8,77.7 619.4,83.4 619.9,87.7 620.5,91.1 621.0,96.0 621.6,98.7 622.1,94.7 622.6,82.8 623.2,73.2 623.7,70.3 624.3,69.8 624.8,69.6 625.4,69.6 625.9,72.0 626.5,83.6 627.0,95.7 627.6,99.2 628.1,99.3 628.7,96.9 629.2,88.6 629.7,78.0 630.3,70.8 630.8,68.9 631.4,69.0 631.9,70.2 632.5,70.8 633.0,70.8 633.6,71.5 634.1,71.6 634.7,71.6 635.2,71.6 635.8,71.6 636.3,70.4 636.8,67.2 637.4,66.9 637.9,68.1 638.5,72.4 639.0,77.9 639.6,85.8 640.1,93.6 640.7,102.5 641.2,107.2 641.8,106.9 642.3,100.6 642.9,88.8 643.4,79.9 643.9,76.6 644.5,76.3 645.0,76.4 645.6,81.2 646.1,90.3 646.7,95.9 647.2,96.4 647.8,88.3 648.3,71.0 648.9,57.9 649.4,55.1 649.9,55.1 650.5,56.1 651.0,58.7 651.6,59.9 652.1,59.8 652.7,52.9 653.2,43.9 653.8,40.1 654.3,40.0 654.9,44.1 655.4,57.0 656.0,72.0 656.5,82.5 657.0,86.8 657.6,87.3 658.1,87.3 658.7,87.3 659.2,87.3 659.8,87.1 660.3,83.1 660.9,76.5 661.4,71.0 662.0,69.3 662.5,68.9 663.1,68.9 663.6,68.9 664.1,68.9 664.7,68.9 665.2,68.9 665.8,68.9 666.3,67.8 666.9,64.2 667.4,63.4 668.0,64.6 668.5,67.3 669.1,68.4 669.6,71.6 670.2,71.7 670.7,71.1 671.2,70.3 671.8,76.4 672.3,89.0 672.9,96.4 673.4,99.9 674.0,101.6 674.5,102.3 675.1,102.7 675.6,103.7 676.2,105.4 676.7,108.0 677.3,110.8 677.8,113.6 678.3,114.6 678.9,115.0 679.4,114.9 680.0,114.8 680.5,114.4 681.1,113.5 681.6,112.5 682.2,112.2 682.7,111.7 683.3,111.6 683.8,111.6 684.4,111.6 684.9,111.6 685.4,111.6 686.0,111.6 686.5,111.6 687.1,111.6 687.6,111.6 688.2,111.6 688.7,111.6 689.3,111.6 689.8,111.6 690.4,111.6 690.9,111.6 691.4,111.6 692.0,111.6 692.5,111.5 693.1,111.5 693.6,111.1 694.2,111.1 694.7,111.1 695.3,111.1 695.8,111.1 696.4,111.1 696.9,111.1 697.5,111.1 698.0,111.1 698.5,111.1 699.1,111.1 699.6,111.1 700.2,111.1 700.7,111.1 701.3,111.1 701.8,111.1 702.4,111.1 702.9,111.1 703.5,111.1 704.0,111.1 704.6,111.1 705.1,111.1 705.6,111.1 706.2,111.1 706.7,111.1 707.3,111.1 707.8,111.1 708.4,111.1 708.9,111.1 709.5,111.1 710.0,111.1 710.6,111.1 711.1,111.1 711.7,111.1 712.2,111.1 712.7,111.1 713.3,110.3 713.8,106.3 714.4,99.6 714.9,92.5 715.5,87.9 716.0,85.9 716.6,82.8 717.1,77.8 717.7,73.3 718.2,71.0 718.8,70.4 719.3,71.1 719.8,76.0 720.4,81.6 720.9,90.7 721.5,97.0 722.0,99.5 722.6,101.0 723.1,102.6 723.7,102.8 724.2,101.9 724.8,97.9 725.3,89.3 725.9,83.0 726.4,78.9 726.9,74.9 727.5,73.5 728.0,73.5 728.6,73.5 729.1,72.9 729.7,70.7 730.2,69.2 730.8,69.2 731.3,73.5 731.9,79.8 732.4,85.1 733.0,90.1 733.5,91.7 734.0,90.4 734.6,85.9 735.1,81.2 735.7,75.8 736.2,72.3 736.8,75.8 737.3,90.3 737.9,101.5 738.4,103.6 739.0,104.8 739.5,105.4 740.0,98.8 740.6,83.6 741.1,74.5 741.7,71.6 742.2,71.6 742.8,71.8 743.3,72.7 743.9,73.5 744.4,74.5 745.0,77.0 745.5,85.2 746.1,96.6 746.6,101.4 747.1,98.1 747.7,80.7 748.2,62.8 748.8,55.7 749.3,54.7 749.9,54.7 750.4,54.8 751.0,55.7 751.5,57.3 752.1,59.5 752.6,60.4 753.2,60.4 753.7,60.4 754.2,60.4 754.8,61.6 755.3,67.9 755.9,79.7 756.4,92.1 757.0,102.0 757.5,108.1 758.1,109.5 758.6,109.2 759.2,109.1 759.7,107.4 760.3,104.1 760.8,101.9 761.3,100.1 761.9,98.2 762.4,95.4 763.0,90.0 763.5,76.8 764.1,62.1 764.6,52.6 765.2,52.0 765.7,58.0 766.3,72.0 766.8,85.7 767.4,94.4 767.9,99.8 768.4,103.5 769.0,105.7 769.5,107.5 770.1,108.5 770.6,109.3 771.2,110.1 771.7,110.9 772.3,111.3 772.8,111.7 773.4,111.8 773.9,112.2 774.5,112.5 775.0,112.8 775.5,111.8 776.1,106.2 776.6,96.6 777.2,86.3 777.7,75.7 778.3,66.4 778.8,63.0 779.4,67.8 779.9,87.3 780.5,101.9 781.0,107.3 781.5,108.4 782.1,110.1 782.6,110.8 783.2,110.2 783.7,102.7 784.3,86.6 784.8,73.0 785.4,68.0 785.9,65.3 786.5,59.6 787.0,54.0 787.6,50.8 788.1,50.8 788.6,53.6 789.2,59.7 789.7,67.0 790.3,73.3 790.8,74.5 791.4,67.4 791.9,51.6 792.5,42.1 793.0,41.5 793.6,47.2 794.1,61.4 794.7,71.9 795.2,80.8 795.7,90.5 796.3,100.5 796.8,106.7 797.4,108.1 797.9,105.7 798.5,103.7 799.0,103.8 799.6,107.9 800.1,111.7 800.7,111.6 801.2,111.6 801.8,111.6 802.3,111.5 802.8,111.1 803.4,110.8 803.9,110.8 804.5,110.8 805.0,110.8 805.6,110.8 806.1,110.8 806.7,110.8 807.2,110.8 807.8,110.8 808.3,110.8 808.9,110.8 809.4,110.8 809.9,110.8 810.5,110.8 811.0,110.8 811.6,110.8 812.1,110.8 812.7,110.8 813.2,110.8 813.8,110.8 814.3,110.8 814.9,110.8 815.4,110.8 816.0,110.8 816.5,110.8 817.0,110.8 817.6,110.9 818.1,110.9 818.7,110.9 819.2,111.2 819.8,111.3 820.3,111.2 820.9,111.2 821.4,111.1 822.0,111.1 822.5,111.1 823.0,111.1 823.6,111.1 824.1,111.1 824.7,111.1 825.2,111.1 825.8,111.1 826.3,111.1 826.9,110.5 827.4,108.1 828.0,105.6 828.5,105.0 829.1,105.0 829.6,106.5 830.1,108.8 830.7,110.5 831.2,112.0 831.8,113.5 832.3,115.1 832.9,117.6 833.4,120.3 834.0,120.8 834.5,119.8 835.1,111.9 835.6,102.8 836.2,97.5 836.7,94.2 837.2,92.9 837.8,92.9 838.3,92.9 838.9,93.0 839.4,93.0 840.0,93.0 840.5,93.0 841.1,92.7 841.6,90.3 842.2,90.1 842.7,90.2 843.3,90.3 843.8,90.6 844.3,90.6 844.9,90.6 845.4,90.6 846.0,90.6 846.5,90.6 847.1,90.6 847.6,90.6 848.2,90.6 848.7,90.6 849.3,90.6 849.8,90.6 850.4,90.6 850.9,90.6 851.4,90.6 852.0,90.6 852.5,90.6 853.1,94.4 853.6,98.6 854.2,102.4 854.7,106.1 855.3,109.7 855.8,113.4 856.4,116.6 856.9,117.0 857.5,117.0 858.0,117.0 858.5,116.9 859.1,116.9 859.6,116.9"/><line x1="60.0" y1="40" x2="60.0" y2="150" stroke="#f0a000" stroke-dasharray="4 3"/><line x1="62.6" y1="40" x2="62.6" y2="150" stroke="#f0a000" stroke-dasharray="4 3"/><line x1="182.4" y1="40" x2="182.4" y2="150" stroke="#f0a000" stroke-dasharray="4 3"/><line x1="192.7" y1="40" x2="192.7" y2="150" stroke="#f0a000" stroke-dasharray="4 3"/><line x1="321.7" y1="40" x2="321.7" y2="150" stroke="#f0a000" stroke-dasharray="4 3"/><line x1="341.1" y1="40" x2="341.1" y2="150" stroke="#f0a000" stroke-dasharray="4 3"/><line x1="514.1" y1="40" x2="514.1" y2="150" stroke="#f0a000" stroke-dasharray="4 3"/><line x1="536.0" y1="40" x2="536.0" y2="150" stroke="#f0a000" stroke-dasharray="4 3"/><line x1="692.0" y1="40" x2="692.0" y2="150" stroke="#f0a000" stroke-dasharray="4 3"/><line x1="710.1" y1="40" x2="710.1" y2="150" stroke="#f0a000" stroke-dasharray="4 3"/><line x1="809.1" y1="40" x2="809.1" y2="150" stroke="#f0a000" stroke-dasharray="4 3"/><text x="40" y="192" font-size="13" fill="#333">j2 — 입력 L(파랑) vs 출력 P(빨강), [-74°, 12°], 225s</text><rect x="40" y="200" width="820" height="110" fill="none" stroke="#ddd"/><polyline fill="none" stroke="#1f77b4" stroke-width="1.2" points=""/><polyline fill="none" stroke="#d62728" stroke-width="1.2" points="40.0,215.1 40.5,215.1 41.1,215.1 41.6,215.1 42.2,215.1 42.7,215.1 43.3,215.1 43.8,215.1 44.4,215.1 44.9,215.1 45.5,215.1 46.0,215.1 46.6,215.1 47.1,215.1 47.6,215.1 48.2,215.1 48.7,215.1 49.3,215.1 49.8,215.1 50.4,215.1 50.9,215.1 51.5,215.1 52.0,215.1 52.6,215.1 53.1,215.1 53.7,215.1 54.2,215.1 54.7,215.1 55.3,215.1 55.8,215.1 56.4,215.1 56.9,215.1 57.5,213.9 58.0,212.9 58.6,212.3 59.1,212.0 59.7,212.0 60.2,212.0 60.8,212.0 61.3,212.0 61.8,212.0 62.4,211.8 62.9,211.6 63.5,211.7 64.0,211.7 64.6,211.6 65.1,211.6 65.7,211.4 66.2,211.4 66.8,211.2 67.3,216.8 67.8,231.0 68.4,249.5 68.9,268.0 69.5,280.6 70.0,283.5 70.6,280.6 71.1,269.5 71.7,258.5 72.2,246.8 72.8,236.3 73.3,231.7 73.9,232.6 74.4,239.6 74.9,250.3 75.5,260.7 76.0,267.1 76.6,268.0 77.1,267.9 77.7,260.4 78.2,246.4 78.8,234.5 79.3,234.6 79.9,246.9 80.4,262.0 81.0,270.2 81.5,273.9 82.0,274.0 82.6,267.6 83.1,258.0 83.7,257.2 84.2,257.2 84.8,257.5 85.3,255.4 85.9,247.7 86.4,240.1 87.0,237.0 87.5,236.9 88.1,237.0 88.6,236.4 89.1,234.4 89.7,237.8 90.2,249.1 90.8,259.3 91.3,267.0 91.9,272.0 92.4,274.1 93.0,272.6 93.5,261.5 94.1,250.2 94.6,239.0 95.2,229.5 95.7,226.2 96.2,227.6 96.8,232.2 97.3,236.4 97.9,240.6 98.4,245.0 99.0,249.8 99.5,252.9 100.1,251.4 100.6,241.8 101.2,237.1 101.7,239.0 102.3,249.8 102.8,261.2 103.3,262.9 103.9,262.1 104.4,261.2 105.0,267.7 105.5,275.0 106.1,275.1 106.6,270.3 107.2,265.3 107.7,265.0 108.3,265.0 108.8,265.1 109.3,264.0 109.9,256.2 110.4,244.2 111.0,233.1 111.5,230.1 112.1,231.9 112.6,237.6 113.2,242.8 113.7,246.9 114.3,251.3 114.8,253.7 115.4,253.7 115.9,250.1 116.4,248.3 117.0,248.1 117.5,245.4 118.1,241.4 118.6,240.1 119.2,242.2 119.7,246.4 120.3,244.9 120.8,236.5 121.4,233.5 121.9,233.5 122.5,235.3 123.0,241.1 123.5,246.5 124.1,250.0 124.6,252.4 125.2,254.0 125.7,253.9 126.3,253.9 126.8,256.6 127.4,263.8 127.9,267.6 128.5,268.8 129.0,271.1 129.6,271.9 130.1,271.9 130.6,274.5 131.2,274.6 131.7,273.0 132.3,269.3 132.8,266.7 133.4,266.6 133.9,266.3 134.5,264.8 135.0,263.8 135.6,262.0 136.1,261.1 136.7,261.0 137.2,263.7 137.7,276.5 138.3,287.2 138.8,292.7 139.4,295.8 139.9,296.6 140.5,296.4 141.0,292.1 141.6,287.2 142.1,286.7 142.7,287.5 143.2,294.6 143.8,304.6 144.3,309.2 144.8,310.0 145.4,310.0 145.9,309.9 146.5,307.8 147.0,305.6 147.6,303.0 148.1,296.9 148.7,289.6 149.2,282.6 149.8,276.4 150.3,270.7 150.9,267.6 151.4,266.6 151.9,265.7 152.5,263.8 153.0,260.9 153.6,257.2 154.1,252.7 154.7,250.0 155.2,251.3 155.8,254.6 156.3,254.8 156.9,251.3 157.4,245.1 157.9,243.8 158.5,243.8 159.0,244.0 159.6,248.1 160.1,250.9 160.7,250.6 161.2,248.3 161.8,240.4 162.3,228.1 162.9,224.1 163.4,222.5 164.0,218.7 164.5,216.4 165.0,214.9 165.6,215.1 166.1,215.0 166.7,214.9 167.2,213.9 167.8,213.9 168.3,214.0 168.9,213.9 169.4,214.0 170.0,214.0 170.5,214.1 171.1,214.1 171.6,214.1 172.1,214.1 172.7,214.2 173.2,215.1 173.8,215.0 174.3,215.1 174.9,215.4 175.4,215.8 176.0,215.9 176.5,215.9 177.1,215.9 177.6,215.0 178.2,215.0 178.7,214.4 179.2,213.7 179.8,213.7 180.3,213.4 180.9,213.4 181.4,213.4 182.0,213.4 182.5,213.4 183.1,213.3 183.6,213.4 184.2,213.4 184.7,213.4 185.3,213.4 185.8,213.4 186.3,213.4 186.9,213.4 187.4,213.3 188.0,213.4 188.5,213.3 189.1,213.4 189.6,213.4 190.2,213.4 190.7,213.4 191.3,213.4 191.8,213.4 192.4,213.4 192.9,213.4 193.4,213.4 194.0,213.4 194.5,213.4 195.1,213.4 195.6,213.4 196.2,213.4 196.7,213.4 197.3,213.7 197.8,214.5 198.4,218.8 198.9,227.8 199.4,239.1 200.0,250.0 200.5,258.4 201.1,263.3 201.6,263.8 202.2,263.8 202.7,261.2 203.3,251.8 203.8,239.7 204.4,235.0 204.9,235.8 205.5,242.8 206.0,253.0 206.5,259.5 207.1,262.0 207.6,261.6 208.2,253.9 208.7,243.8 209.3,240.2 209.8,241.6 210.4,249.3 210.9,260.3 211.5,267.7 212.0,268.6 212.6,268.2 213.1,266.1 213.6,265.8 214.2,265.7 214.7,259.0 215.3,250.5 215.8,247.6 216.4,247.6 216.9,247.6 217.5,249.0 218.0,253.1 218.6,257.8 219.1,262.2 219.7,265.0 220.2,266.5 220.7,269.8 221.3,273.1 221.8,273.3 222.4,273.5 222.9,273.5 223.5,273.5 224.0,273.5 224.6,273.5 225.1,274.0 225.7,274.0 226.2,273.0 226.8,268.3 227.3,263.5 227.8,258.2 228.4,255.6 228.9,255.4 229.5,252.2 230.0,247.4 230.6,245.2 231.1,241.6 231.7,237.3 232.2,235.1 232.8,235.2 233.3,236.5 233.9,238.7 234.4,240.7 234.9,242.9 235.5,243.9 236.0,244.0 236.6,243.9 237.1,241.4 237.7,238.8 238.2,236.4 238.8,235.6 239.3,235.5 239.9,236.1 240.4,238.7 241.0,240.1 241.5,239.8 242.0,236.7 242.6,232.5 243.1,225.4 243.7,216.3 244.2,208.0 244.8,202.6 245.3,200.3 245.9,200.7 246.4,208.5 247.0,220.1 247.5,225.7 248.0,226.4 248.6,227.1 249.1,230.4 249.7,232.6 250.2,233.2 250.8,233.1 251.3,232.9 251.9,232.5 252.4,235.3 253.0,243.6 253.5,246.2 254.1,244.9 254.6,242.7 255.1,242.8 255.7,242.9 256.2,248.3 256.8,257.4 257.3,264.5 257.9,269.6 258.4,274.8 259.0,277.2 259.5,277.3 260.1,275.1 260.6,271.7 261.2,270.9 261.7,271.4 262.2,275.9 262.8,284.1 263.3,290.9 263.9,292.0 264.4,292.0 265.0,291.9 265.5,290.5 266.1,288.2 266.6,286.5 267.2,284.7 267.7,284.8 268.3,289.9 268.8,298.2 269.3,302.8 269.9,305.9 270.4,307.9 271.0,308.0 271.5,308.0 272.1,307.0 272.6,304.7 273.2,304.0 273.7,304.0 274.3,303.9 274.8,303.9 275.4,303.8 275.9,302.3 276.4,302.0 277.0,301.6 277.5,299.9 278.1,299.6 278.6,299.5 279.2,299.5 279.7,298.7 280.3,298.0 280.8,298.0 281.4,297.3 281.9,296.1 282.5,296.1 283.0,296.0 283.5,296.0 284.1,296.0 284.6,296.0 285.2,296.0 285.7,295.8 286.3,294.1 286.8,293.4 287.4,293.1 287.9,292.1 288.5,290.7 289.0,290.6 289.5,290.6 290.1,290.8 290.6,293.1 291.2,294.7 291.7,294.9 292.3,295.2 292.8,295.5 293.4,299.0 293.9,304.1 294.5,308.5 295.0,309.2 295.6,309.2 296.1,308.1 296.6,303.9 297.2,302.1 297.7,301.5 298.3,299.8 298.8,298.2 299.4,295.5 299.9,291.3 300.5,289.7 301.0,289.7 301.6,290.8 302.1,297.4 302.7,301.7 303.2,302.3 303.7,301.9 304.3,294.7 304.8,288.1 305.4,286.8 305.9,286.8 306.5,287.0 307.0,287.0 307.6,284.7 308.1,282.5 308.7,282.1 309.2,276.3 309.8,265.3 310.3,253.1 310.8,242.4 311.4,230.3 311.9,221.2 312.5,217.5 313.0,215.1 313.6,215.2 314.1,215.0 314.7,215.1 315.2,216.0 315.8,216.0 316.3,216.0 316.9,215.3 317.4,214.8 317.9,214.9 318.5,214.6 319.0,213.7 319.6,213.7 320.1,213.4 320.7,213.5 321.2,213.4 321.8,213.2 322.3,213.2 322.9,213.2 323.4,213.2 324.0,213.2 324.5,212.8 325.0,212.9 325.6,212.8 326.1,212.8 326.7,212.8 327.2,212.8 327.8,212.8 328.3,212.6 328.9,212.6 329.4,212.6 330.0,212.6 330.5,212.5 331.0,212.3 331.6,212.3 332.1,212.0 332.7,211.9 333.2,211.9 333.8,211.9 334.3,211.9 334.9,211.9 335.4,211.9 336.0,211.9 336.5,211.9 337.1,211.9 337.6,211.9 338.1,211.9 338.7,211.9 339.2,211.9 339.8,211.9 340.3,212.0 340.9,212.0 341.4,212.0 342.0,212.0 342.5,212.0 343.1,212.0 343.6,212.0 344.2,212.0 344.7,212.4 345.2,214.0 345.8,215.3 346.3,218.0 346.9,221.0 347.4,223.7 348.0,227.0 348.5,231.2 349.1,233.5 349.6,234.1 350.2,234.0 350.7,235.2 351.3,238.2 351.8,246.6 352.3,261.0 352.9,270.6 353.4,271.8 354.0,271.8 354.5,268.2 355.1,262.0 355.6,256.6 356.2,253.4 356.7,252.1 357.3,251.6 357.8,251.6 358.4,251.7 358.9,255.1 359.4,260.3 360.0,263.2 360.5,266.6 361.1,269.3 361.6,269.2 362.2,268.6 362.7,268.4 363.3,267.4 363.8,262.7 364.4,256.5 364.9,248.6 365.5,240.6 366.0,238.4 366.5,239.5 367.1,243.4 367.6,246.7 368.2,249.5 368.7,253.3 369.3,258.9 369.8,264.4 370.4,266.4 370.9,268.0 371.5,269.9 372.0,271.7 372.6,271.9 373.1,272.0 373.6,266.9 374.2,260.5 374.7,254.6 375.3,246.8 375.8,238.4 376.4,234.6 376.9,234.5 377.5,234.8 378.0,237.6 378.6,241.3 379.1,242.9 379.6,244.1 380.2,244.1 380.7,244.1 381.3,244.1 381.8,244.0 382.4,243.1 382.9,241.9 383.5,241.3 384.0,241.3 384.6,241.3 385.1,241.2 385.7,240.7 386.2,240.5 386.7,239.5 387.3,239.3 387.8,239.0 388.4,238.9 388.9,238.2 389.5,237.8 390.0,237.8 390.6,238.7 391.1,244.6 391.7,250.3 392.2,251.1 392.8,251.1 393.3,250.8 393.8,250.6 394.4,250.6 394.9,250.2 395.5,250.9 396.0,252.1 396.6,252.9 397.1,252.8 397.7,253.1 398.2,253.2 398.8,254.5 399.3,257.9 399.9,262.8 400.4,267.8 400.9,271.6 401.5,272.5 402.0,275.2 402.6,275.4 403.1,275.4 403.7,275.4 404.2,274.9 404.8,273.2 405.3,271.3 405.9,268.3 406.4,262.4 407.0,255.9 407.5,251.8 408.0,247.4 408.6,244.7 409.1,242.5 409.7,240.2 410.2,236.9 410.8,236.7 411.3,236.7 411.9,237.1 412.4,237.1 413.0,237.1 413.5,237.2 414.1,237.8 414.6,244.1 415.1,254.6 415.7,266.4 416.2,274.4 416.8,280.5 417.3,286.5 417.9,291.3 418.4,296.4 419.0,299.2 419.5,299.3 420.1,299.3 420.6,296.1 421.1,291.2 421.7,285.4 422.2,278.2 422.8,267.4 423.3,259.0 423.9,254.6 424.4,253.5 425.0,253.5 425.5,253.6 426.1,255.6 426.6,261.2 427.2,266.7 427.7,272.3 428.2,273.7 428.8,273.6 429.3,272.3 429.9,264.5 430.4,264.4 431.0,266.8 431.5,269.7 432.1,269.6 432.6,267.3 433.2,261.3 433.7,257.6 434.3,255.7 434.8,254.9 435.3,254.9 435.9,255.1 436.4,258.3 437.0,258.8 437.5,258.9 438.1,260.7 438.6,261.5 439.2,261.5 439.7,260.3 440.3,259.7 440.8,256.6 441.4,252.7 441.9,250.1 442.4,248.5 443.0,247.9 443.5,247.4 444.1,246.1 444.6,245.2 445.2,245.1 445.7,244.2 446.3,243.8 446.8,243.8 447.4,242.9 447.9,242.4 448.5,242.4 449.0,245.8 449.5,251.7 450.1,254.3 450.6,255.7 451.2,255.5 451.7,255.5 452.3,255.5 452.8,255.8 453.4,258.2 453.9,259.7 454.5,259.8 455.0,257.9 455.6,251.8 456.1,246.3 456.6,242.1 457.2,239.9 457.7,238.8 458.3,238.7 458.8,238.7 459.4,239.0 459.9,240.4 460.5,241.9 461.0,242.3 461.6,242.3 462.1,242.2 462.7,241.6 463.2,240.9 463.7,240.3 464.3,239.7 464.8,238.7 465.4,237.7 465.9,237.4 466.5,237.2 467.0,237.2 467.6,237.4 468.1,237.5 468.7,237.2 469.2,236.6 469.7,236.0 470.3,236.0 470.8,238.4 471.4,244.1 471.9,251.6 472.5,254.0 473.0,252.5 473.6,244.9 474.1,239.4 474.7,239.2 475.2,239.2 475.8,242.3 476.3,249.7 476.8,255.9 477.4,258.0 477.9,259.8 478.5,263.8 479.0,265.9 479.6,265.9 480.1,265.0 480.7,258.6 481.2,249.3 481.8,240.8 482.3,236.7 482.9,235.7 483.4,237.9 483.9,241.8 484.5,246.7 485.0,252.1 485.6,256.6 486.1,259.3 486.7,260.2 487.2,260.4 487.8,258.3 488.3,246.0 488.9,243.4 489.4,248.5 490.0,251.9 490.5,254.5 491.0,262.3 491.6,269.4 492.1,273.1 492.7,277.5 493.2,283.3 493.8,288.6 494.3,292.3 494.9,293.4 495.4,293.5 496.0,296.7 496.5,301.4 497.1,305.7 497.6,308.3 498.1,308.9 498.7,309.0 499.2,307.8 499.8,305.6 500.3,305.6 500.9,305.7 501.4,305.8 502.0,304.5 502.5,296.0 503.1,283.0 503.6,268.9 504.2,255.9 504.7,243.1 505.2,230.4 505.8,221.3 506.3,214.8 506.9,212.6 507.4,211.8 508.0,211.7 508.5,211.6 509.1,211.6 509.6,211.3 510.2,211.4 510.7,211.5 511.2,211.5 511.8,211.5 512.3,211.5 512.9,211.6 513.4,211.7 514.0,211.8 514.5,211.8 515.1,212.2 515.6,212.5 516.2,212.5 516.7,212.5 517.3,212.5 517.8,212.5 518.3,212.3 518.9,212.3 519.4,211.9 520.0,212.0 520.5,211.6 521.1,211.6 521.6,211.6 522.2,211.5 522.7,211.3 523.3,211.0 523.8,211.0 524.4,210.7 524.9,210.7 525.4,210.7 526.0,210.7 526.5,210.7 527.1,210.7 527.6,210.7 528.2,210.4 528.7,210.4 529.3,210.4 529.8,210.4 530.4,210.4 530.9,210.4 531.5,210.4 532.0,210.4 532.5,210.4 533.1,210.4 533.6,210.4 534.2,210.4 534.7,210.5 535.3,210.5 535.8,210.5 536.4,210.5 536.9,210.5 537.5,210.8 538.0,210.9 538.6,210.9 539.1,211.5 539.6,212.9 540.2,215.7 540.7,222.5 541.3,232.1 541.8,240.5 542.4,246.7 542.9,250.6 543.5,253.5 544.0,255.6 544.6,257.6 545.1,259.8 545.7,260.2 546.2,260.3 546.7,260.4 547.3,260.4 547.8,259.4 548.4,257.9 548.9,257.2 549.5,257.0 550.0,256.9 550.6,256.7 551.1,256.1 551.7,256.1 552.2,255.8 552.8,252.4 553.3,247.1 553.8,240.1 554.4,235.5 554.9,233.9 555.5,232.7 556.0,232.4 556.6,232.5 557.1,235.1 557.7,238.2 558.2,239.7 558.8,242.9 559.3,247.2 559.8,251.0 560.4,256.1 560.9,261.1 561.5,265.2 562.0,268.3 562.6,268.4 563.1,268.4 563.7,266.7 564.2,262.1 564.8,257.3 565.3,251.8 565.9,247.4 566.4,245.4 566.9,244.7 567.5,242.9 568.0,239.1 568.6,234.0 569.1,229.1 569.7,226.2 570.2,225.2 570.8,227.3 571.3,234.6 571.9,240.6 572.4,243.9 573.0,247.9 573.5,251.7 574.0,255.2 574.6,259.3 575.1,263.4 575.7,266.2 576.2,266.5 576.8,266.5 577.3,265.0 577.9,260.6 578.4,256.0 579.0,248.7 579.5,241.1 580.1,239.4 580.6,239.4 581.1,239.5 581.7,238.9 582.2,239.0 582.8,238.9 583.3,238.1 583.9,234.9 584.4,231.5 585.0,231.5 585.5,234.3 586.1,237.3 586.6,239.9 587.2,244.3 587.7,249.2 588.2,252.1 588.8,252.3 589.3,252.0 589.9,245.2 590.4,241.6 591.0,241.6 591.5,239.4 592.1,236.3 592.6,233.5 593.2,231.3 593.7,229.3 594.3,228.0 594.8,228.1 595.3,228.3 595.9,228.3 596.4,228.3 597.0,227.8 597.5,227.6 598.1,226.8 598.6,226.8 599.2,227.0 599.7,227.5 600.3,227.8 600.8,227.8 601.3,227.8 601.9,228.3 602.4,228.7 603.0,228.8 603.5,228.8 604.1,228.3 604.6,228.2 605.2,229.0 605.7,229.8 606.3,229.7 606.8,229.7 607.4,229.7 607.9,229.7 608.4,230.5 609.0,235.4 609.5,240.6 610.1,244.6 610.6,252.3 611.2,259.7 611.7,265.2 612.3,267.0 612.8,267.1 613.4,266.4 613.9,265.8 614.5,263.1 615.0,260.3 615.5,260.1 616.1,260.5 616.6,265.5 617.2,270.4 617.7,272.7 618.3,276.5 618.8,283.0 619.4,286.5 619.9,289.2 620.5,290.1 621.0,290.1 621.6,290.1 622.1,290.1 622.6,291.6 623.2,296.2 623.7,297.6 624.3,297.6 624.8,297.2 625.4,297.2 625.9,297.1 626.5,294.3 627.0,289.0 627.6,287.0 628.1,287.0 628.7,287.0 629.2,287.0 629.7,287.4 630.3,287.4 630.8,287.3 631.4,286.4 631.9,285.4 632.5,284.5 633.0,283.7 633.6,283.0 634.1,282.4 634.7,282.5 635.2,282.5 635.8,282.1 636.3,278.2 636.8,274.1 637.4,269.1 637.9,266.5 638.5,266.3 639.0,266.1 639.6,266.1 640.1,265.9 640.7,261.7 641.2,255.9 641.8,257.1 642.3,273.8 642.9,292.4 643.4,302.0 643.9,303.9 644.5,303.9 645.0,303.8 645.6,300.2 646.1,294.1 646.7,288.5 647.2,284.8 647.8,284.8 648.3,286.3 648.9,290.9 649.4,291.9 649.9,291.9 650.5,291.9 651.0,291.9 651.6,292.5 652.1,295.6 652.7,298.3 653.2,299.7 653.8,299.8 654.3,299.1 654.9,298.7 655.4,296.9 656.0,292.0 656.5,286.9 657.0,284.3 657.6,283.3 658.1,283.0 658.7,282.1 659.2,282.0 659.8,282.4 660.3,285.7 660.9,289.5 661.4,291.1 662.0,291.2 662.5,291.1 663.1,291.0 663.6,289.8 664.1,288.8 664.7,288.5 665.2,287.7 665.8,287.6 666.3,287.3 666.9,287.3 667.4,287.1 668.0,284.8 668.5,282.8 669.1,280.1 669.6,275.1 670.2,274.6 670.7,274.5 671.2,274.5 671.8,273.0 672.3,270.0 672.9,264.5 673.4,256.8 674.0,246.3 674.5,233.9 675.1,221.2 675.6,214.2 676.2,214.0 676.7,214.3 677.3,214.7 677.8,215.9 678.3,215.9 678.9,215.5 679.4,214.9 680.0,215.0 680.5,214.7 681.1,213.1 681.6,211.8 682.2,211.0 682.7,210.7 683.3,210.4 683.8,210.4 684.4,210.4 684.9,210.2 685.4,210.0 686.0,210.0 686.5,210.0 687.1,210.0 687.6,210.0 688.2,209.8 688.7,209.6 689.3,209.7 689.8,209.7 690.4,209.8 690.9,209.8 691.4,209.8 692.0,209.8 692.5,209.8 693.1,209.8 693.6,209.8 694.2,209.8 694.7,209.8 695.3,209.8 695.8,209.8 696.4,209.8 696.9,209.8 697.5,209.8 698.0,209.8 698.5,209.7 699.1,209.7 699.6,209.4 700.2,209.3 700.7,209.3 701.3,209.3 701.8,209.3 702.4,209.3 702.9,209.3 703.5,209.0 704.0,209.0 704.6,209.0 705.1,209.0 705.6,209.0 706.2,209.0 706.7,209.0 707.3,209.0 707.8,209.0 708.4,209.0 708.9,209.0 709.5,209.0 710.0,209.0 710.6,209.1 711.1,209.1 711.7,209.4 712.2,212.2 712.7,222.7 713.3,236.5 713.8,249.1 714.4,258.2 714.9,263.4 715.5,267.7 716.0,268.4 716.6,268.5 717.1,266.8 717.7,264.0 718.2,261.9 718.8,260.0 719.3,260.0 719.8,261.4 720.4,264.2 720.9,264.4 721.5,260.0 722.0,256.2 722.6,253.6 723.1,248.8 723.7,245.1 724.2,244.9 724.8,244.9 725.3,246.6 725.9,253.2 726.4,260.0 726.9,264.3 727.5,264.5 728.0,264.4 728.6,262.4 729.1,262.0 729.7,262.0 730.2,262.0 730.8,262.0 731.3,260.2 731.9,257.1 732.4,254.9 733.0,255.0 733.5,264.5 734.0,280.2 734.6,290.5 735.1,296.6 735.7,304.0 736.2,308.6 736.8,308.6 737.3,305.6 737.9,297.8 738.4,296.6 739.0,296.4 739.5,296.4 740.0,297.3 740.6,303.9 741.1,308.6 741.7,308.5 742.2,308.5 742.8,306.9 743.3,305.0 743.9,304.6 744.4,303.8 745.0,303.7 745.5,303.6 746.1,303.6 746.6,303.6 747.1,303.4 747.7,303.6 748.2,300.7 748.8,291.9 749.3,287.1 749.9,287.2 750.4,289.1 751.0,291.8 751.5,291.9 752.1,291.9 752.6,291.9 753.2,291.9 753.7,291.9 754.2,291.9 754.8,291.9 755.3,291.9 755.9,291.8 756.4,291.8 757.0,291.7 757.5,291.4 758.1,291.2 758.6,291.2 759.2,291.2 759.7,291.2 760.3,291.2 760.8,291.1 761.3,291.1 761.9,291.1 762.4,291.1 763.0,291.2 763.5,291.9 764.1,297.0 764.6,300.8 765.2,300.7 765.7,296.2 766.3,286.6 766.8,275.0 767.4,261.2 767.9,248.7 768.4,234.9 769.0,224.0 769.5,217.8 770.1,214.9 770.6,213.7 771.2,212.4 771.7,212.4 772.3,212.7 772.8,212.6 773.4,212.6 773.9,212.7 774.5,213.5 775.0,217.9 775.5,230.0 776.1,249.6 776.6,265.8 777.2,279.3 777.7,289.8 778.3,296.7 778.8,299.0 779.4,298.2 779.9,283.9 780.5,263.5 781.0,245.4 781.5,228.7 782.1,217.5 782.6,215.0 783.2,221.1 783.7,239.1 784.3,256.1 784.8,266.3 785.4,269.4 785.9,269.6 786.5,267.4 787.0,261.2 787.6,256.9 788.1,256.2 788.6,256.7 789.2,257.6 789.7,257.6 790.3,258.3 790.8,259.7 791.4,264.2 791.9,266.0 792.5,262.6 793.0,255.0 793.6,250.3 794.1,248.6 794.7,248.4 795.2,245.9 795.7,240.4 796.3,231.5 796.8,226.6 797.4,224.8 797.9,221.7 798.5,219.2 799.0,216.2 799.6,213.2 800.1,213.4 800.7,213.3 801.2,212.6 801.8,212.0 802.3,211.1 802.8,210.6 803.4,210.5 803.9,210.6 804.5,210.8 805.0,211.4 805.6,211.4 806.1,211.5 806.7,211.5 807.2,211.5 807.8,211.6 808.3,211.6 808.9,211.6 809.4,211.6 809.9,211.6 810.5,211.6 811.0,211.6 811.6,211.6 812.1,211.5 812.7,211.1 813.2,210.9 813.8,210.8 814.3,210.6 814.9,210.5 815.4,210.5 816.0,210.5 816.5,210.5 817.0,210.5 817.6,210.5 818.1,210.5 818.7,210.5 819.2,210.5 819.8,210.5 820.3,210.5 820.9,210.5 821.4,210.5 822.0,210.5 822.5,210.5 823.0,210.5 823.6,210.5 824.1,210.5 824.7,210.5 825.2,210.5 825.8,210.7 826.3,210.9 826.9,213.3 827.4,215.7 828.0,216.0 828.5,216.1 829.1,216.6 829.6,217.9 830.1,218.8 830.7,219.6 831.2,220.6 831.8,222.5 832.3,226.9 832.9,232.3 833.4,236.7 834.0,237.6 834.5,237.3 835.1,232.3 835.6,225.8 836.2,219.5 836.7,216.7 837.2,215.0 837.8,215.1 838.3,215.1 838.9,216.2 839.4,216.6 840.0,215.1 840.5,213.4 841.1,210.3 841.6,206.0 842.2,204.6 842.7,204.7 843.3,204.7 843.8,204.7 844.3,204.7 844.9,204.9 845.4,204.9 846.0,204.9 846.5,204.9 847.1,204.9 847.6,204.9 848.2,204.9 848.7,205.4 849.3,205.3 849.8,205.3 850.4,205.4 850.9,205.4 851.4,205.4 852.0,205.3 852.5,205.3 853.1,205.2 853.6,205.2 854.2,205.2 854.7,205.2 855.3,205.0 855.8,204.9 856.4,204.7 856.9,204.6 857.5,204.7 858.0,204.6 858.5,204.6 859.1,204.7 859.6,204.7"/><line x1="60.0" y1="200" x2="60.0" y2="310" stroke="#f0a000" stroke-dasharray="4 3"/><line x1="62.6" y1="200" x2="62.6" y2="310" stroke="#f0a000" stroke-dasharray="4 3"/><line x1="182.4" y1="200" x2="182.4" y2="310" stroke="#f0a000" stroke-dasharray="4 3"/><line x1="192.7" y1="200" x2="192.7" y2="310" stroke="#f0a000" stroke-dasharray="4 3"/><line x1="321.7" y1="200" x2="321.7" y2="310" stroke="#f0a000" stroke-dasharray="4 3"/><line x1="341.1" y1="200" x2="341.1" y2="310" stroke="#f0a000" stroke-dasharray="4 3"/><line x1="514.1" y1="200" x2="514.1" y2="310" stroke="#f0a000" stroke-dasharray="4 3"/><line x1="536.0" y1="200" x2="536.0" y2="310" stroke="#f0a000" stroke-dasharray="4 3"/><line x1="692.0" y1="200" x2="692.0" y2="310" stroke="#f0a000" stroke-dasharray="4 3"/><line x1="710.1" y1="200" x2="710.1" y2="310" stroke="#f0a000" stroke-dasharray="4 3"/><line x1="809.1" y1="200" x2="809.1" y2="310" stroke="#f0a000" stroke-dasharray="4 3"/><text x="40" y="352" font-size="13" fill="#333">j3 — 입력 L(파랑) vs 출력 P(빨강), [-47°, 39°], 225s</text><rect x="40" y="360" width="820" height="110" fill="none" stroke="#ddd"/><polyline fill="none" stroke="#1f77b4" stroke-width="1.2" points=""/><polyline fill="none" stroke="#d62728" stroke-width="1.2" points="40.0,409.9 40.5,409.9 41.1,409.9 41.6,409.9 42.2,409.9 42.7,409.9 43.3,409.9 43.8,409.9 44.4,409.9 44.9,409.9 45.5,409.9 46.0,409.9 46.6,409.9 47.1,409.9 47.6,409.9 48.2,409.9 48.7,409.9 49.3,409.9 49.8,409.9 50.4,409.9 50.9,409.9 51.5,409.9 52.0,409.9 52.6,409.9 53.1,409.9 53.7,409.9 54.2,409.9 54.7,409.9 55.3,409.9 55.8,409.9 56.4,410.4 56.9,411.8 57.5,413.1 58.0,414.8 58.6,416.8 59.1,418.6 59.7,419.5 60.2,420.0 60.8,420.1 61.3,419.6 61.8,419.4 62.4,419.4 62.9,419.4 63.5,419.4 64.0,419.2 64.6,419.1 65.1,419.1 65.7,419.1 66.2,418.7 66.8,418.1 67.3,413.1 67.8,399.8 68.4,395.3 68.9,403.5 69.5,420.4 70.0,430.3 70.6,432.0 71.1,432.1 71.7,431.3 72.2,423.4 72.8,410.6 73.3,399.8 73.9,386.8 74.4,371.8 74.9,364.6 75.5,366.8 76.0,377.2 76.6,389.7 77.1,407.1 77.7,421.8 78.2,429.6 78.8,430.8 79.3,430.8 79.9,431.1 80.4,426.2 81.0,414.5 81.5,402.1 82.0,390.1 82.6,379.4 83.1,376.2 83.7,379.2 84.2,392.4 84.8,405.4 85.3,417.6 85.9,426.0 86.4,430.2 87.0,433.7 87.5,434.2 88.1,433.2 88.6,424.8 89.1,409.6 89.7,393.1 90.2,381.9 90.8,379.3 91.3,383.7 91.9,396.9 92.4,413.5 93.0,425.6 93.5,434.0 94.1,437.8 94.6,436.5 95.2,429.4 95.7,420.9 96.2,407.9 96.8,391.3 97.3,381.5 97.9,380.8 98.4,382.2 99.0,389.5 99.5,406.7 100.1,422.8 100.6,429.4 101.2,431.6 101.7,431.9 102.3,428.8 102.8,419.0 103.3,399.1 103.9,382.6 104.4,378.2 105.0,387.9 105.5,399.1 106.1,397.6 106.6,391.5 107.2,390.5 107.7,394.3 108.3,405.5 108.8,418.3 109.3,427.3 109.9,429.9 110.4,429.1 111.0,428.9 111.5,426.1 112.1,412.0 112.6,398.7 113.2,391.6 113.7,390.7 114.3,391.9 114.8,397.6 115.4,403.1 115.9,406.1 116.4,415.0 117.0,428.7 117.5,439.3 118.1,447.7 118.6,449.1 119.2,443.8 119.7,439.3 120.3,436.1 120.8,432.7 121.4,430.5 121.9,431.6 122.5,436.8 123.0,441.4 123.5,443.2 124.1,443.3 124.6,443.3 125.2,441.8 125.7,439.8 126.3,438.2 126.8,432.7 127.4,421.1 127.9,402.4 128.5,393.9 129.0,393.6 129.6,396.8 130.1,401.2 130.6,401.9 131.2,402.1 131.7,398.9 132.3,396.7 132.8,394.4 133.4,394.3 133.9,394.0 134.5,391.9 135.0,389.1 135.6,383.9 136.1,381.3 136.7,381.8 137.2,386.3 137.7,400.8 138.3,414.5 138.8,418.8 139.4,418.6 139.9,411.9 140.5,396.1 141.0,381.4 141.6,370.2 142.1,367.4 142.7,373.4 143.2,392.7 143.8,415.3 144.3,429.6 144.8,434.3 145.4,433.2 145.9,427.6 146.5,424.3 147.0,424.1 147.6,425.5 148.1,427.7 148.7,430.2 149.2,432.7 149.8,434.7 150.3,435.4 150.9,436.3 151.4,436.4 151.9,436.5 152.5,436.0 153.0,430.2 153.6,421.6 154.1,413.6 154.7,411.1 155.2,418.0 155.8,433.3 156.3,441.1 156.9,443.7 157.4,443.7 157.9,444.2 158.5,442.6 159.0,434.0 159.6,423.4 160.1,416.5 160.7,412.4 161.2,414.1 161.8,420.5 162.3,428.4 162.9,429.7 163.4,430.2 164.0,432.8 164.5,435.0 165.0,435.7 165.6,436.0 166.1,436.0 166.7,435.3 167.2,434.6 167.8,434.7 168.3,434.9 168.9,434.6 169.4,434.2 170.0,433.7 170.5,433.2 171.1,431.3 171.6,428.4 172.1,426.7 172.7,425.9 173.2,424.1 173.8,422.2 174.3,421.4 174.9,421.4 175.4,421.4 176.0,421.4 176.5,421.4 177.1,421.5 177.6,421.3 178.2,422.5 178.7,424.7 179.2,426.0 179.8,426.5 180.3,426.6 180.9,426.7 181.4,426.7 182.0,426.7 182.5,427.2 183.1,427.5 183.6,427.5 184.2,427.5 184.7,427.5 185.3,427.5 185.8,427.5 186.3,427.5 186.9,427.5 187.4,427.5 188.0,427.5 188.5,427.5 189.1,427.5 189.6,427.5 190.2,427.5 190.7,427.5 191.3,427.5 191.8,427.5 192.4,427.5 192.9,427.5 193.4,427.5 194.0,427.5 194.5,427.5 195.1,427.6 195.6,427.8 196.2,427.8 196.7,427.6 197.3,427.3 197.8,426.9 198.4,421.2 198.9,405.2 199.4,389.9 200.0,388.4 200.5,393.7 201.1,400.5 201.6,406.4 202.2,414.8 202.7,417.0 203.3,409.7 203.8,397.8 204.4,386.6 204.9,373.9 205.5,370.6 206.0,375.0 206.5,385.3 207.1,397.2 207.6,408.4 208.2,416.3 208.7,420.9 209.3,424.8 209.8,425.1 210.4,416.4 210.9,405.6 211.5,395.2 212.0,382.5 212.6,372.7 213.1,371.7 213.6,383.0 214.2,406.3 214.7,420.2 215.3,426.6 215.8,430.4 216.4,428.0 216.9,414.2 217.5,393.1 218.0,372.8 218.6,362.1 219.1,360.1 219.7,361.2 220.2,364.9 220.7,372.9 221.3,381.0 221.8,385.4 222.4,388.6 222.9,392.5 223.5,395.8 224.0,399.0 224.6,401.9 225.1,405.3 225.7,405.0 226.2,399.8 226.8,395.1 227.3,393.6 227.8,393.7 228.4,394.1 228.9,402.6 229.5,414.0 230.0,420.8 230.6,428.5 231.1,435.0 231.7,436.0 232.2,436.1 232.8,436.6 233.3,439.1 233.9,439.3 234.4,438.1 234.9,433.8 235.5,430.8 236.0,429.8 236.6,429.6 237.1,429.5 237.7,429.2 238.2,426.2 238.8,424.5 239.3,425.3 239.9,431.2 240.4,438.0 241.0,438.1 241.5,434.5 242.0,432.6 242.6,432.6 243.1,432.9 243.7,435.2 244.2,439.4 244.8,444.2 245.3,446.0 245.9,446.4 246.4,444.0 247.0,437.3 247.5,428.6 248.0,419.9 248.6,417.2 249.1,417.4 249.7,419.1 250.2,419.8 250.8,419.8 251.3,418.9 251.9,415.1 252.4,416.8 253.0,428.9 253.5,440.5 254.1,441.8 254.6,441.0 255.1,430.5 255.7,409.6 256.2,386.6 256.8,379.8 257.3,380.9 257.9,386.1 258.4,393.8 259.0,398.4 259.5,402.3 260.1,403.8 260.6,401.5 261.2,398.7 261.7,398.4 262.2,401.2 262.8,407.8 263.3,409.4 263.9,403.7 264.4,395.7 265.0,391.3 265.5,389.0 266.1,392.0 266.6,392.8 267.2,388.4 267.7,386.7 268.3,392.6 268.8,402.9 269.3,412.2 269.9,420.1 270.4,424.9 271.0,425.1 271.5,420.2 272.1,408.7 272.6,401.3 273.2,399.3 273.7,399.6 274.3,403.1 274.8,409.2 275.4,409.8 275.9,411.3 276.4,412.9 277.0,415.3 277.5,415.7 278.1,415.3 278.6,412.4 279.2,411.3 279.7,411.1 280.3,408.9 280.8,407.6 281.4,405.2 281.9,403.2 282.5,402.2 283.0,400.9 283.5,398.3 284.1,396.5 284.6,396.3 285.2,396.9 285.7,398.2 286.3,399.8 286.8,402.6 287.4,406.8 287.9,409.6 288.5,409.8 289.0,410.6 289.5,413.2 290.1,420.9 290.6,429.5 291.2,435.2 291.7,440.8 292.3,442.5 292.8,442.3 293.4,439.4 293.9,433.1 294.5,425.2 295.0,411.2 295.6,394.7 296.1,380.1 296.6,373.5 297.2,373.0 297.7,373.9 298.3,376.7 298.8,380.5 299.4,382.8 299.9,382.7 300.5,381.8 301.0,381.2 301.6,385.0 302.1,393.8 302.7,401.4 303.2,405.2 303.7,400.7 304.3,389.2 304.8,383.6 305.4,383.2 305.9,388.5 306.5,402.2 307.0,413.3 307.6,416.2 308.1,417.0 308.7,416.7 309.2,415.6 309.8,415.1 310.3,416.2 310.8,421.3 311.4,428.8 311.9,438.0 312.5,443.2 313.0,444.3 313.6,445.0 314.1,444.9 314.7,443.2 315.2,440.7 315.8,439.2 316.3,438.5 316.9,438.4 317.4,437.9 317.9,437.6 318.5,437.5 319.0,437.1 319.6,436.2 320.1,435.0 320.7,433.8 321.2,432.9 321.8,432.5 322.3,432.4 322.9,432.4 323.4,432.4 324.0,432.4 324.5,432.4 325.0,432.4 325.6,432.4 326.1,432.4 326.7,432.4 327.2,431.8 327.8,431.8 328.3,431.8 328.9,431.8 329.4,431.8 330.0,431.8 330.5,431.8 331.0,431.8 331.6,431.8 332.1,431.8 332.7,431.3 333.2,430.9 333.8,430.8 334.3,430.8 334.9,430.4 335.4,430.4 336.0,430.4 336.5,430.4 337.1,430.4 337.6,430.4 338.1,430.4 338.7,430.4 339.2,430.4 339.8,430.4 340.3,430.4 340.9,430.4 341.4,430.4 342.0,430.6 342.5,430.8 343.1,430.8 343.6,431.0 344.2,431.3 344.7,432.4 345.2,435.9 345.8,438.3 346.3,439.0 346.9,436.3 347.4,429.8 348.0,425.3 348.5,421.2 349.1,415.0 349.6,405.7 350.2,395.8 350.7,387.4 351.3,380.8 351.8,377.8 352.3,383.7 352.9,398.8 353.4,409.3 354.0,413.3 354.5,416.6 355.1,419.6 355.6,420.6 356.2,420.7 356.7,420.7 357.3,419.8 357.8,417.7 358.4,415.1 358.9,411.8 359.4,409.1 360.0,403.1 360.5,397.9 361.1,396.4 361.6,398.1 362.2,406.7 362.7,417.4 363.3,424.8 363.8,428.9 364.4,431.2 364.9,431.9 365.5,433.2 366.0,433.7 366.5,433.7 367.1,430.2 367.6,418.7 368.2,398.1 368.7,380.6 369.3,372.0 369.8,369.5 370.4,369.8 370.9,373.0 371.5,379.0 372.0,386.4 372.6,396.8 373.1,408.6 373.6,417.3 374.2,423.0 374.7,425.1 375.3,425.4 375.8,422.3 376.4,417.9 376.9,416.3 377.5,416.2 378.0,418.1 378.6,423.1 379.1,426.2 379.6,427.0 380.2,426.5 380.7,423.9 381.3,423.7 381.8,425.6 382.4,427.3 382.9,427.2 383.5,427.1 384.0,426.8 384.6,424.8 385.1,421.0 385.7,417.6 386.2,416.6 386.7,416.2 387.3,416.5 387.8,419.8 388.4,423.1 388.9,423.8 389.5,424.8 390.0,426.4 390.6,428.8 391.1,437.4 391.7,449.8 392.2,453.8 392.8,454.9 393.3,454.6 393.8,449.6 394.4,440.9 394.9,436.3 395.5,412.1 396.0,399.6 396.6,397.2 397.1,397.3 397.7,399.8 398.2,403.3 398.8,405.1 399.3,405.5 399.9,405.4 400.4,404.4 400.9,402.5 401.5,400.4 402.0,398.1 402.6,397.4 403.1,397.6 403.7,399.9 404.2,401.9 404.8,404.4 405.3,407.2 405.9,410.2 406.4,414.9 407.0,422.1 407.5,428.2 408.0,434.1 408.6,438.5 409.1,442.4 409.7,444.5 410.2,447.8 410.8,451.0 411.3,452.3 411.9,452.9 412.4,452.7 413.0,450.7 413.5,444.0 414.1,427.8 414.6,407.6 415.1,400.3 415.7,401.0 416.2,401.1 416.8,401.1 417.3,401.1 417.9,401.1 418.4,401.2 419.0,400.8 419.5,399.1 420.1,398.5 420.6,398.3 421.1,401.6 421.7,412.9 422.2,422.5 422.8,427.2 423.3,429.9 423.9,430.2 424.4,430.1 425.0,426.3 425.5,421.4 426.1,415.9 426.6,411.1 427.2,406.5 427.7,400.7 428.2,392.3 428.8,391.0 429.3,400.4 429.9,416.9 430.4,432.0 431.0,444.5 431.5,455.7 432.1,462.9 432.6,465.8 433.2,468.3 433.7,470.0 434.3,469.7 434.8,467.7 435.3,464.8 435.9,459.2 436.4,446.4 437.0,421.8 437.5,406.7 438.1,405.6 438.6,407.5 439.2,413.5 439.7,421.5 440.3,434.7 440.8,441.9 441.4,442.3 441.9,442.1 442.4,441.0 443.0,441.4 443.5,446.2 444.1,451.3 444.6,453.0 445.2,452.9 445.7,452.9 446.3,453.3 446.8,454.2 447.4,453.4 447.9,450.0 448.5,447.9 449.0,448.8 449.5,455.1 450.1,453.5 450.6,437.9 451.2,418.5 451.7,404.0 452.3,399.1 452.8,398.7 453.4,401.4 453.9,408.8 454.5,414.2 455.0,419.5 455.6,424.6 456.1,427.1 456.6,428.4 457.2,428.9 457.7,429.1 458.3,429.2 458.8,429.2 459.4,428.4 459.9,426.0 460.5,422.8 461.0,420.0 461.6,416.3 462.1,412.1 462.7,410.4 463.2,410.3 463.7,411.5 464.3,414.7 464.8,417.9 465.4,420.8 465.9,422.4 466.5,422.5 467.0,422.4 467.6,421.1 468.1,417.7 468.7,417.6 469.2,419.3 469.7,422.9 470.3,429.9 470.8,438.8 471.4,444.9 471.9,452.4 472.5,457.5 473.0,457.4 473.6,457.1 474.1,458.9 474.7,464.4 475.2,466.7 475.8,467.1 476.3,464.0 476.8,454.5 477.4,441.3 477.9,426.2 478.5,417.1 479.0,415.7 479.6,417.4 480.1,422.8 480.7,429.2 481.2,435.3 481.8,441.1 482.3,444.8 482.9,447.6 483.4,446.9 483.9,438.5 484.5,425.9 485.0,416.0 485.6,409.9 486.1,408.0 486.7,410.7 487.2,422.7 487.8,431.7 488.3,436.8 488.9,440.7 489.4,440.7 490.0,435.3 490.5,427.9 491.0,419.0 491.6,402.2 492.1,384.7 492.7,383.5 493.2,394.2 493.8,410.6 494.3,419.3 494.9,415.1 495.4,404.0 496.0,402.4 496.5,411.8 497.1,423.5 497.6,427.9 498.1,429.1 498.7,427.9 499.2,424.8 499.8,424.7 500.3,431.8 500.9,442.2 501.4,443.6 502.0,437.9 502.5,425.1 503.1,412.8 503.6,408.0 504.2,407.8 504.7,410.6 505.2,416.6 505.8,423.0 506.3,427.6 506.9,431.0 507.4,432.6 508.0,433.0 508.5,433.0 509.1,433.1 509.6,432.8 510.2,432.6 510.7,432.4 511.2,432.4 511.8,432.4 512.3,432.4 512.9,432.0 513.4,431.3 514.0,430.8 514.5,430.5 515.1,430.5 515.6,430.5 516.2,430.5 516.7,430.6 517.3,430.9 517.8,430.9 518.3,431.1 518.9,431.3 519.4,431.3 520.0,431.3 520.5,431.3 521.1,431.3 521.6,431.3 522.2,431.3 522.7,431.3 523.3,431.3 523.8,431.3 524.4,431.3 524.9,431.3 525.4,431.3 526.0,431.5 526.5,431.5 527.1,431.5 527.6,431.5 528.2,431.8 528.7,431.8 529.3,431.8 529.8,431.9 530.4,431.9 530.9,431.9 531.5,431.9 532.0,432.1 532.5,432.1 533.1,432.1 533.6,432.1 534.2,432.1 534.7,432.1 535.3,432.1 535.8,432.1 536.4,432.1 536.9,432.1 537.5,432.1 538.0,432.3 538.6,433.8 539.1,435.4 539.6,435.9 540.2,434.5 540.7,428.9 541.3,420.1 541.8,405.8 542.4,393.3 542.9,388.8 543.5,388.6 544.0,389.7 544.6,393.3 545.1,397.4 545.7,401.6 546.2,406.9 546.7,412.8 547.3,420.2 547.8,425.5 548.4,424.3 548.9,416.4 549.5,407.3 550.0,400.5 550.6,395.7 551.1,394.0 551.7,394.2 552.2,399.4 552.8,411.6 553.3,420.3 553.8,426.2 554.4,429.1 554.9,430.6 555.5,430.5 556.0,428.5 556.6,425.0 557.1,421.4 557.7,417.3 558.2,413.1 558.8,410.9 559.3,410.1 559.8,406.8 560.4,406.7 560.9,408.5 561.5,410.4 562.0,411.4 562.6,408.8 563.1,403.7 563.7,401.7 564.2,404.3 564.8,414.4 565.3,420.9 565.9,426.1 566.4,430.1 566.9,432.6 567.5,434.7 568.0,436.6 568.6,438.5 569.1,442.3 569.7,445.6 570.2,446.9 570.8,446.6 571.3,445.4 571.9,436.8 572.4,421.8 573.0,406.1 573.5,394.1 574.0,390.4 574.6,390.6 575.1,394.2 575.7,400.9 576.2,405.7 576.8,408.0 577.3,410.1 577.9,410.1 578.4,408.6 579.0,402.0 579.5,400.5 580.1,406.0 580.6,418.1 581.1,432.1 581.7,443.3 582.2,451.0 582.8,455.0 583.3,454.8 583.9,448.7 584.4,435.0 585.0,422.9 585.5,412.7 586.1,401.5 586.6,393.6 587.2,390.0 587.7,390.1 588.2,391.7 588.8,395.6 589.3,401.1 589.9,406.6 590.4,415.5 591.0,425.2 591.5,433.2 592.1,439.9 592.6,443.8 593.2,440.1 593.7,433.9 594.3,431.3 594.8,431.0 595.3,431.2 595.9,432.1 596.4,432.9 597.0,434.2 597.5,434.7 598.1,435.3 598.6,436.6 599.2,438.5 599.7,441.5 600.3,443.1 600.8,443.9 601.3,444.5 601.9,445.8 602.4,447.2 603.0,447.5 603.5,447.5 604.1,446.5 604.6,444.9 605.2,446.6 605.7,451.4 606.3,454.0 606.8,454.3 607.4,454.2 607.9,450.6 608.4,438.8 609.0,418.1 609.5,398.7 610.1,388.4 610.6,385.6 611.2,385.7 611.7,388.7 612.3,392.7 612.8,395.8 613.4,400.5 613.9,406.7 614.5,410.2 615.0,412.0 615.5,416.0 616.1,422.8 616.6,429.0 617.2,429.0 617.7,426.8 618.3,420.4 618.8,417.5 619.4,410.1 619.9,403.4 620.5,398.9 621.0,395.1 621.6,393.4 622.1,398.5 622.6,410.1 623.2,417.9 623.7,421.7 624.3,422.9 624.8,423.2 625.4,425.6 625.9,419.7 626.5,401.8 627.0,385.2 627.6,380.3 628.1,380.3 628.7,382.7 629.2,391.9 629.7,405.0 630.3,414.3 630.8,417.5 631.4,417.5 631.9,417.1 632.5,416.9 633.0,416.3 633.6,415.5 634.1,415.2 634.7,415.2 635.2,415.8 635.8,416.0 636.3,416.7 636.8,418.4 637.4,418.8 637.9,419.5 638.5,419.6 639.0,416.3 639.6,408.7 640.1,404.9 640.7,409.4 641.2,412.8 641.8,404.8 642.3,400.9 642.9,405.9 643.4,415.8 643.9,419.8 644.5,420.3 645.0,417.0 645.6,406.4 646.1,395.6 646.7,390.1 647.2,390.0 647.8,400.8 648.3,420.4 648.9,434.0 649.4,437.1 649.9,437.0 650.5,436.3 651.0,435.3 651.6,434.0 652.1,432.6 652.7,436.3 653.2,444.7 653.8,448.0 654.3,447.5 654.9,441.3 655.4,426.9 656.0,410.1 656.5,399.4 657.0,396.2 657.6,395.6 658.1,395.5 658.7,393.8 659.2,391.4 659.8,392.1 660.3,396.6 660.9,404.3 661.4,409.5 662.0,409.9 662.5,410.0 663.1,410.0 663.6,410.0 664.1,410.0 664.7,410.0 665.2,409.9 665.8,409.9 666.3,411.7 666.9,417.0 667.4,418.6 668.0,415.5 668.5,408.8 669.1,403.3 669.6,395.0 670.2,395.6 670.7,401.4 671.2,402.8 671.8,402.0 672.3,406.5 672.9,417.9 673.4,430.6 674.0,441.5 674.5,449.5 675.1,453.3 675.6,454.5 676.2,455.3 676.7,455.3 677.3,454.3 677.8,452.1 678.3,450.6 678.9,449.7 679.4,448.8 680.0,448.0 680.5,447.1 681.1,445.3 681.6,443.6 682.2,442.4 682.7,441.4 683.3,440.6 683.8,440.1 684.4,440.1 684.9,440.1 685.4,440.1 686.0,440.1 686.5,440.1 687.1,440.1 687.6,440.1 688.2,439.9 688.7,439.7 689.3,439.2 689.8,438.3 690.4,437.5 690.9,436.9 691.4,436.2 692.0,435.3 692.5,434.9 693.1,434.9 693.6,434.7 694.2,434.6 694.7,434.6 695.3,434.6 695.8,434.6 696.4,434.8 696.9,435.5 697.5,436.1 698.0,436.1 698.5,436.1 699.1,436.1 699.6,436.4 700.2,436.4 700.7,436.4 701.3,436.4 701.8,436.4 702.4,436.4 702.9,436.4 703.5,436.4 704.0,436.4 704.6,436.4 705.1,436.4 705.6,436.4 706.2,436.4 706.7,436.4 707.3,436.4 707.8,436.4 708.4,436.4 708.9,436.4 709.5,435.9 710.0,435.3 710.6,434.4 711.1,433.9 711.7,433.8 712.2,432.8 712.7,423.9 713.3,403.8 713.8,389.7 714.4,385.1 714.9,385.6 715.5,388.8 716.0,392.2 716.6,394.9 717.1,401.3 717.7,405.4 718.2,406.1 718.8,405.0 719.3,401.8 719.8,399.8 720.4,396.6 720.9,390.3 721.5,384.8 722.0,382.6 722.6,381.5 723.1,380.4 723.7,380.5 724.2,382.1 724.8,384.0 725.3,386.7 725.9,390.1 726.4,394.3 726.9,397.2 727.5,397.3 728.0,396.6 728.6,394.1 729.1,394.3 729.7,396.7 730.2,399.7 730.8,398.7 731.3,394.1 731.9,388.6 732.4,384.1 733.0,383.5 733.5,387.9 734.0,399.0 734.6,409.0 735.1,414.3 735.7,419.5 736.2,423.4 736.8,416.8 737.3,396.7 737.9,384.0 738.4,381.2 739.0,380.2 739.5,379.6 740.0,389.8 740.6,408.5 741.1,417.2 741.7,419.7 742.2,419.2 742.8,416.9 743.3,415.2 743.9,414.1 744.4,412.0 745.0,410.2 745.5,402.9 746.1,390.5 746.6,385.3 747.1,387.9 747.7,404.5 748.2,421.5 748.8,429.6 749.3,432.5 749.9,433.0 750.4,432.9 751.0,432.3 751.5,431.7 752.1,430.5 752.6,429.1 753.2,428.7 753.7,428.6 754.2,428.2 754.8,426.2 755.3,420.3 755.9,410.3 756.4,398.5 757.0,389.1 757.5,382.2 758.1,380.6 758.6,380.5 759.2,380.5 759.7,381.8 760.3,383.8 760.8,385.9 761.3,387.6 761.9,388.7 762.4,390.4 763.0,395.2 763.5,409.5 764.1,424.5 764.6,434.4 765.2,435.6 765.7,429.0 766.3,420.2 766.8,412.3 767.4,412.0 767.9,413.2 768.4,415.2 769.0,420.8 769.5,425.6 770.1,427.3 770.6,427.7 771.2,428.5 771.7,429.7 772.3,430.7 772.8,430.8 773.4,431.1 773.9,431.3 774.5,430.4 775.0,426.7 775.5,421.6 776.1,415.7 776.6,413.2 777.2,413.6 777.7,417.8 778.3,425.6 778.8,429.2 779.4,425.0 779.9,409.5 780.5,406.5 781.0,406.8 781.5,411.9 782.1,419.9 782.6,423.4 783.2,420.0 783.7,402.1 784.3,392.9 784.8,400.5 785.4,410.4 785.9,415.9 786.5,425.3 787.0,435.0 787.6,441.4 788.1,440.7 788.6,430.8 789.2,413.7 789.7,395.2 790.3,385.8 790.8,383.3 791.4,389.0 791.9,399.4 792.5,400.3 793.0,399.9 793.6,399.7 794.1,397.9 794.7,394.8 795.2,392.6 795.7,393.4 796.3,402.0 796.8,411.3 797.4,413.6 797.9,418.4 798.5,421.8 799.0,425.1 799.6,429.5 800.1,431.5 800.7,432.5 801.2,432.6 801.8,432.3 802.3,431.7 802.8,430.2 803.4,429.4 803.9,428.4 804.5,427.1 805.0,425.4 805.6,424.0 806.1,423.2 806.7,423.2 807.2,423.2 807.8,423.2 808.3,423.2 808.9,423.3 809.4,423.6 809.9,423.6 810.5,423.6 811.0,423.9 811.6,424.2 812.1,424.6 812.7,424.9 813.2,425.4 813.8,425.9 814.3,426.0 814.9,426.0 815.4,426.0 816.0,426.0 816.5,426.0 817.0,426.0 817.6,426.0 818.1,425.9 818.7,425.7 819.2,425.3 819.8,425.1 820.3,424.9 820.9,424.7 821.4,424.6 822.0,424.5 822.5,424.2 823.0,424.2 823.6,424.2 824.1,424.3 824.7,424.6 825.2,424.6 825.8,425.1 826.3,425.8 826.9,427.2 827.4,429.7 828.0,433.2 828.5,438.5 829.1,443.1 829.6,446.0 830.1,448.6 830.7,452.5 831.2,457.6 831.8,460.8 832.3,461.3 832.9,461.5 833.4,461.3 834.0,458.9 834.5,456.7 835.1,452.7 835.6,448.4 836.2,446.0 836.7,444.6 837.2,443.4 837.8,442.0 838.3,441.5 838.9,440.9 839.4,440.2 840.0,439.0 840.5,437.4 841.1,437.6 841.6,441.2 842.2,443.2 842.7,442.9 843.3,442.7 843.8,442.7 844.3,442.7 844.9,442.7 845.4,442.7 846.0,442.7 846.5,442.7 847.1,442.7 847.6,442.7 848.2,442.7 848.7,442.7 849.3,442.6 849.8,442.6 850.4,442.6 850.9,442.6 851.4,442.6 852.0,442.6 852.5,442.5 853.1,440.0 853.6,435.7 854.2,431.6 854.7,427.5 855.3,423.1 855.8,418.6 856.4,414.3 856.9,409.8 857.5,405.7 858.0,405.0 858.5,405.0 859.1,405.0 859.6,405.0"/><line x1="60.0" y1="360" x2="60.0" y2="470" stroke="#f0a000" stroke-dasharray="4 3"/><line x1="62.6" y1="360" x2="62.6" y2="470" stroke="#f0a000" stroke-dasharray="4 3"/><line x1="182.4" y1="360" x2="182.4" y2="470" stroke="#f0a000" stroke-dasharray="4 3"/><line x1="192.7" y1="360" x2="192.7" y2="470" stroke="#f0a000" stroke-dasharray="4 3"/><line x1="321.7" y1="360" x2="321.7" y2="470" stroke="#f0a000" stroke-dasharray="4 3"/><line x1="341.1" y1="360" x2="341.1" y2="470" stroke="#f0a000" stroke-dasharray="4 3"/><line x1="514.1" y1="360" x2="514.1" y2="470" stroke="#f0a000" stroke-dasharray="4 3"/><line x1="536.0" y1="360" x2="536.0" y2="470" stroke="#f0a000" stroke-dasharray="4 3"/><line x1="692.0" y1="360" x2="692.0" y2="470" stroke="#f0a000" stroke-dasharray="4 3"/><line x1="710.1" y1="360" x2="710.1" y2="470" stroke="#f0a000" stroke-dasharray="4 3"/><line x1="809.1" y1="360" x2="809.1" y2="470" stroke="#f0a000" stroke-dasharray="4 3"/></svg>