<svg xmlns="http://www.w3.org/2000/svg" width="900" height="520" font-family="sans-serif"><text x="40" y="32" font-size="13" fill="#333">j1 — 입력 L(파랑) vs 출력 P(빨강), [-20°, 89°], 177s</text><rect x="40" y="40" width="820" height="110" fill="none" stroke="#ddd"/><polyline fill="none" stroke="#1f77b4" stroke-width="1.2" points=""/><polyline fill="none" stroke="#d62728" stroke-width="1.2" points="40.0,128.5 40.5,128.5 40.9,128.5 41.4,128.5 41.9,128.5 42.3,128.5 42.8,128.5 43.2,128.5 43.7,128.5 44.2,128.5 44.6,128.5 45.1,128.5 45.6,128.5 46.0,128.5 46.5,128.5 46.9,128.5 47.4,128.5 47.9,128.5 48.3,128.5 48.8,128.5 49.3,128.5 49.7,128.5 50.2,128.5 50.6,128.5 51.1,128.5 51.6,128.5 52.0,128.5 52.5,128.5 53.0,128.5 53.4,128.5 53.9,128.5 54.3,128.5 54.8,128.5 55.3,128.5 55.7,128.5 56.2,128.5 56.7,128.5 57.1,128.5 57.6,128.5 58.0,128.5 58.5,128.5 59.0,128.5 59.4,128.5 59.9,128.5 60.4,128.5 60.8,128.5 61.3,128.5 61.7,128.5 62.2,128.5 62.7,128.5 63.1,128.5 63.6,128.5 64.1,128.5 64.5,128.5 65.0,128.5 65.5,128.5 65.9,128.5 66.4,128.5 66.8,128.5 67.3,128.5 67.8,128.5 68.2,128.5 68.7,128.5 69.2,128.5 69.6,128.5 70.1,128.5 70.5,128.5 71.0,128.5 71.5,128.5 71.9,128.5 72.4,128.5 72.9,128.5 73.3,128.5 73.8,128.5 74.2,128.5 74.7,128.5 75.2,128.5 75.6,128.5 76.1,128.5 76.6,128.5 77.0,128.5 77.5,128.5 77.9,128.5 78.4,128.5 78.9,128.5 79.3,128.5 79.8,128.5 80.3,128.5 80.7,128.5 81.2,128.5 81.6,128.5 82.1,128.5 82.6,128.5 83.0,128.5 83.5,128.5 84.0,128.5 84.4,128.5 84.9,128.5 85.3,128.5 85.8,128.6 86.3,129.1 86.7,129.7 87.2,130.1 87.7,130.4 88.1,130.8 88.6,131.1 89.1,131.4 89.5,131.4 90.0,131.4 90.4,131.4 90.9,131.2 91.4,130.1 91.8,128.7 92.3,127.5 92.8,126.1 93.2,123.3 93.7,119.2 94.1,114.2 94.6,109.1 95.1,104.9 95.5,101.9 96.0,100.2 96.5,100.2 96.9,100.2 97.4,100.4 97.8,102.0 98.3,105.1 98.8,108.7 99.2,113.7 99.7,120.3 100.2,127.1 100.6,132.5 101.1,136.5 101.5,139.2 102.0,140.2 102.5,140.9 102.9,141.4 103.4,141.6 103.9,140.7 104.3,137.3 104.8,133.3 105.2,130.0 105.7,127.8 106.2,126.7 106.6,125.3 107.1,123.7 107.6,123.3 108.0,124.1 108.5,127.4 109.0,131.9 109.4,136.0 109.9,138.1 110.3,138.9 110.8,139.0 111.3,138.9 111.7,138.9 112.2,138.8 112.7,138.4 113.1,136.8 113.6,134.6 114.0,131.9 114.5,129.0 115.0,125.4 115.4,121.0 115.9,116.4 116.4,112.6 116.8,110.0 117.3,108.0 117.7,106.2 118.2,104.5 118.7,104.1 119.1,106.8 119.6,113.8 120.1,120.4 120.5,123.5 121.0,124.0 121.4,123.7 121.9,122.3 122.4,120.3 122.8,118.6 123.3,117.6 123.8,116.8 124.2,116.2 124.7,116.2 125.1,115.8 125.6,115.4 126.1,115.3 126.5,114.9 127.0,114.2 127.5,113.4 127.9,112.9 128.4,112.2 128.8,112.0 129.3,112.0 129.8,112.0 130.2,112.0 130.7,112.5 131.2,114.8 131.6,116.8 132.1,117.9 132.6,118.3 133.0,118.2 133.5,117.7 133.9,116.7 134.4,115.4 134.9,113.4 135.3,111.0 135.8,108.9 136.3,107.3 136.7,106.3 137.2,106.1 137.6,106.1 138.1,106.1 138.6,106.1 139.0,106.1 139.5,105.2 140.0,103.2 140.4,101.3 140.9,100.6 141.3,100.6 141.8,100.6 142.3,100.6 142.7,100.9 143.2,103.5 143.7,109.6 144.1,117.7 144.6,125.0 145.0,129.5 145.5,130.6 146.0,130.6 146.4,130.3 146.9,129.6 147.4,129.3 147.8,129.1 148.3,129.0 148.7,129.1 149.2,129.1 149.7,129.0 150.1,128.5 150.6,128.1 151.1,128.1 151.5,129.1 152.0,130.0 152.4,129.3 152.9,126.4 153.4,122.8 153.8,121.0 154.3,120.2 154.8,119.9 155.2,119.8 155.7,118.3 156.2,110.3 156.6,97.4 157.1,85.0 157.5,80.4 158.0,80.5 158.5,83.1 158.9,91.3 159.4,101.2 159.9,109.4 160.3,115.7 160.8,119.6 161.2,121.6 161.7,123.0 162.2,123.0 162.6,123.0 163.1,121.7 163.6,120.5 164.0,120.4 164.5,119.7 164.9,117.0 165.4,113.1 165.9,109.0 166.3,105.7 166.8,103.2 167.3,101.4 167.7,100.6 168.2,100.5 168.6,99.1 169.1,94.8 169.6,87.9 170.0,79.0 170.5,70.8 171.0,65.0 171.4,61.2 171.9,58.6 172.3,56.6 172.8,54.9 173.3,53.8 173.7,53.8 174.2,53.8 174.7,53.8 175.1,53.8 175.6,53.8 176.0,53.7 176.5,53.7 177.0,53.8 177.4,53.7 177.9,53.8 178.4,53.8 178.8,53.6 179.3,51.9 179.8,48.2 180.2,45.1 180.7,43.1 181.1,42.3 181.6,42.0 182.1,42.0 182.5,42.0 183.0,42.0 183.5,42.1 183.9,42.5 184.4,43.8 184.8,45.7 185.3,47.4 185.8,49.4 186.2,51.6 186.7,53.9 187.2,55.4 187.6,55.6 188.1,55.6 188.5,55.7 189.0,54.3 189.5,52.0 189.9,49.0 190.4,46.6 190.9,44.1 191.3,42.7 191.8,41.2 192.2,40.0 192.7,40.0 193.2,40.0 193.6,40.0 194.1,40.0 194.6,40.0 195.0,40.0 195.5,40.0 195.9,40.0 196.4,40.0 196.9,40.0 197.3,40.0 197.8,40.0 198.3,40.0 198.7,40.0 199.2,40.0 199.7,40.0 200.1,40.0 200.6,40.0 201.0,40.0 201.5,40.0 202.0,40.0 202.4,40.0 202.9,40.0 203.4,40.0 203.8,40.0 204.3,40.0 204.7,40.0 205.2,40.0 205.7,40.0 206.1,40.0 206.6,40.0 207.1,40.0 207.5,40.0 208.0,40.0 208.4,40.0 208.9,40.0 209.4,40.0 209.8,40.0 210.3,40.0 210.8,40.0 211.2,40.0 211.7,40.0 212.1,40.0 212.6,40.0 213.1,40.0 213.5,40.0 214.0,40.3 214.5,40.3 214.9,40.3 215.4,40.3 215.8,40.3 216.3,40.3 216.8,40.3 217.2,40.3 217.7,40.3 218.2,40.3 218.6,40.6 219.1,40.6 219.5,40.9 220.0,42.0 220.5,43.7 220.9,47.2 221.4,51.4 221.9,55.9 222.3,61.4 222.8,68.1 223.3,76.2 223.7,86.1 224.2,97.0 224.6,108.6 225.1,118.8 225.6,126.1 226.0,129.0 226.5,128.9 227.0,128.8 227.4,129.8 227.9,130.7 228.3,130.7 228.8,130.5 229.3,130.5 229.7,130.5 230.2,129.8 230.7,129.1 231.1,129.0 231.6,129.0 232.0,129.0 232.5,129.0 233.0,128.9 233.4,128.9 233.9,128.9 234.4,129.0 234.8,129.0 235.3,128.9 235.7,129.0 236.2,128.9 236.7,128.9 237.1,128.9 237.6,128.8 238.1,128.8 238.5,128.7 239.0,128.7 239.4,128.6 239.9,128.6 240.4,128.6 240.8,128.6 241.3,128.6 241.8,128.6 242.2,128.6 242.7,128.6 243.1,128.6 243.6,128.6 244.1,128.6 244.5,128.6 245.0,128.6 245.5,128.6 245.9,128.6 246.4,128.6 246.9,128.6 247.3,128.6 247.8,128.6 248.2,128.6 248.7,128.6 249.2,128.6 249.6,128.6 250.1,128.6 250.6,128.6 251.0,128.6 251.5,128.6 251.9,128.6 252.4,128.6 252.9,128.6 253.3,128.6 253.8,128.6 254.3,128.6 254.7,128.6 255.2,128.6 255.6,128.6 256.1,128.6 256.6,128.6 257.0,128.6 257.5,128.6 258.0,128.6 258.4,128.6 258.9,128.6 259.3,128.6 259.8,128.6 260.3,128.6 260.7,128.6 261.2,128.6 261.7,128.6 262.1,128.6 262.6,128.6 263.0,128.6 263.5,128.6 264.0,128.6 264.4,128.6 264.9,128.6 265.4,128.6 265.8,128.6 266.3,128.6 266.7,128.6 267.2,128.6 267.7,128.6 268.1,128.6 268.6,128.6 269.1,128.8 269.5,129.2 270.0,129.6 270.5,131.1 270.9,133.0 271.4,133.8 271.8,133.6 272.3,132.7 272.8,131.2 273.2,129.1 273.7,126.9 274.2,123.4 274.6,119.9 275.1,117.8 275.5,117.1 276.0,116.1 276.5,115.6 276.9,115.5 277.4,115.6 277.9,116.8 278.3,119.4 278.8,120.8 279.2,121.5 279.7,121.6 280.2,121.7 280.6,121.8 281.1,121.2 281.6,118.7 282.0,116.1 282.5,113.0 282.9,109.7 283.4,106.4 283.9,103.5 284.3,101.8 284.8,101.7 285.3,101.8 285.7,103.4 286.2,106.4 286.6,109.8 287.1,114.1 287.6,118.8 288.0,123.9 288.5,130.1 289.0,135.4 289.4,139.0 289.9,140.3 290.3,140.3 290.8,140.3 291.3,138.7 291.7,134.2 292.2,127.6 292.7,121.8 293.1,117.9 293.6,114.4 294.1,111.6 294.5,109.6 295.0,108.8 295.4,108.8 295.9,108.8 296.4,109.1 296.8,111.9 297.3,116.6 297.8,121.9 298.2,127.5 298.7,132.6 299.1,136.6 299.6,139.3 300.1,140.4 300.5,140.5 301.0,139.6 301.5,135.9 301.9,130.4 302.4,125.0 302.8,121.4 303.3,119.1 303.8,117.3 304.2,115.9 304.7,114.4 305.2,110.8 305.6,102.7 306.1,92.5 306.5,83.9 307.0,79.9 307.5,79.3 307.9,79.1 308.4,79.1 308.9,79.0 309.3,79.1 309.8,82.5 310.2,91.4 310.7,101.6 311.2,109.6 311.6,115.2 312.1,118.7 312.6,120.6 313.0,120.9 313.5,120.8 314.0,119.8 314.4,117.1 314.9,115.3 315.3,115.3 315.8,116.8 316.3,120.1 316.7,124.2 317.2,128.1 317.7,131.5 318.1,135.5 318.6,138.2 319.0,140.5 319.5,142.6 320.0,144.8 320.4,147.2 320.9,148.0 321.4,148.0 321.8,147.9 322.3,146.4 322.7,144.9 323.2,143.7 323.7,142.2 324.1,139.7 324.6,135.8 325.1,132.1 325.5,130.3 326.0,129.9 326.4,130.0 326.9,129.9 327.4,131.0 327.8,132.5 328.3,134.2 328.8,134.8 329.2,134.8 329.7,134.8 330.1,134.6 330.6,133.6 331.1,131.9 331.5,130.6 332.0,130.4 332.5,130.3 332.9,130.3 333.4,130.3 333.8,130.3 334.3,130.4 334.8,130.3 335.2,130.4 335.7,130.3 336.2,130.3 336.6,130.4 337.1,130.4 337.6,130.3 338.0,130.3 338.5,130.3 338.9,130.4 339.4,130.4 339.9,130.4 340.3,130.3 340.8,130.3 341.3,130.3 341.7,130.3 342.2,130.3 342.6,130.3 343.1,130.3 343.6,130.2 344.0,130.2 344.5,130.2 345.0,130.2 345.4,130.2 345.9,130.2 346.3,130.2 346.8,130.2 347.3,130.2 347.7,130.2 348.2,130.2 348.7,130.2 349.1,130.1 349.6,130.2 350.0,130.2 350.5,130.1 351.0,130.1 351.4,130.2 351.9,130.2 352.4,130.1 352.8,130.1 353.3,130.1 353.7,130.1 354.2,130.1 354.7,130.1 355.1,130.2 355.6,130.2 356.1,130.1 356.5,130.2 357.0,130.2 357.4,129.9 357.9,129.4 358.4,129.3 358.8,129.3 359.3,129.3 359.8,129.3 360.2,129.3 360.7,129.3 361.2,129.3 361.6,129.3 362.1,129.3 362.5,129.3 363.0,129.3 363.5,129.3 363.9,129.1 364.4,128.8 364.9,128.8 365.3,128.8 365.8,128.8 366.2,128.8 366.7,128.8 367.2,128.8 367.6,128.8 368.1,128.8 368.6,128.9 369.0,129.0 369.5,129.0 369.9,129.0 370.4,128.9 370.9,129.0 371.3,128.9 371.8,129.0 372.3,129.0 372.7,129.0 373.2,129.0 373.6,129.0 374.1,129.0 374.6,129.0 375.0,129.0 375.5,128.9 376.0,128.9 376.4,128.9 376.9,128.7 377.3,128.0 377.8,128.2 378.3,129.0 378.7,130.7 379.2,132.9 379.7,133.7 380.1,133.1 380.6,133.1 381.0,132.9 381.5,132.7 382.0,132.1 382.4,131.6 382.9,131.6 383.4,131.4 383.8,131.2 384.3,130.7 384.8,130.5 385.2,130.4 385.7,129.9 386.1,129.1 386.6,129.1 387.1,129.0 387.5,129.0 388.0,129.0 388.5,129.0 388.9,129.0 389.4,129.0 389.8,129.0 390.3,128.9 390.8,129.0 391.2,129.0 391.7,128.9 392.2,129.0 392.6,128.9 393.1,128.9 393.5,128.9 394.0,128.9 394.5,128.9 394.9,128.9 395.4,128.9 395.9,128.9 396.3,128.9 396.8,128.9 397.2,128.9 397.7,128.9 398.2,128.9 398.6,128.9 399.1,128.9 399.6,128.9 400.0,129.0 400.5,128.9 400.9,128.9 401.4,128.9 401.9,128.9 402.3,128.9 402.8,128.9 403.3,128.9 403.7,128.9 404.2,128.9 404.7,128.9 405.1,129.0 405.6,128.9 406.0,128.9 406.5,129.0 407.0,128.9 407.4,128.9 407.9,128.9 408.4,128.9 408.8,128.9 409.3,128.9 409.7,128.9 410.2,128.9 410.7,128.9 411.1,129.0 411.6,128.9 412.1,128.9 412.5,128.9 413.0,128.9 413.4,128.9 413.9,128.9 414.4,128.7 414.8,128.4 415.3,128.3 415.8,128.1 416.2,128.1 416.7,128.0 417.1,128.0 417.6,128.0 418.1,128.0 418.5,128.0 419.0,128.0 419.5,128.1 419.9,128.4 420.4,128.8 420.8,129.4 421.3,130.6 421.8,131.9 422.2,133.2 422.7,133.3 423.2,133.3 423.6,132.6 424.1,130.5 424.5,127.9 425.0,126.1 425.5,123.8 425.9,119.9 426.4,115.3 426.9,110.7 427.3,106.6 427.8,103.6 428.3,101.0 428.7,98.8 429.2,96.8 429.6,95.3 430.1,93.7 430.6,91.8 431.0,90.6 431.5,89.9 432.0,89.7 432.4,89.7 432.9,91.2 433.3,95.8 433.8,101.8 434.3,109.0 434.7,117.5 435.2,125.9 435.7,133.8 436.1,139.7 436.6,143.6 437.0,145.8 437.5,147.2 438.0,147.9 438.4,147.9 438.9,146.7 439.4,142.1 439.8,134.8 440.3,126.3 440.7,116.8 441.2,108.6 441.7,102.8 442.1,99.9 442.6,98.2 443.1,97.5 443.5,97.6 444.0,99.5 444.4,104.9 444.9,111.3 445.4,118.5 445.8,126.6 446.3,133.5 446.8,139.6 447.2,143.2 447.7,144.1 448.1,144.2 448.6,144.2 449.1,144.1 449.5,140.5 450.0,131.6 450.5,120.9 450.9,112.9 451.4,108.5 451.9,106.1 452.3,105.3 452.8,105.3 453.2,106.0 453.7,109.9 454.2,115.2 454.6,121.8 455.1,128.3 455.6,132.3 456.0,133.2 456.5,133.7 456.9,134.0 457.4,133.1 457.9,131.0 458.3,129.1 458.8,128.9 459.3,129.0 459.7,129.0 460.2,128.7 460.6,127.7 461.1,127.7 461.6,127.2 462.0,125.7 462.5,122.7 463.0,120.7 463.4,120.6 463.9,121.1 464.3,122.7 464.8,124.8 465.3,127.4 465.7,131.9 466.2,136.6 466.7,139.1 467.1,139.7 467.6,140.3 468.0,140.5 468.5,140.4 469.0,139.6 469.4,138.2 469.9,136.8 470.4,136.1 470.8,136.0 471.3,135.8 471.7,133.2 472.2,129.7 472.7,128.9 473.1,129.0 473.6,129.1 474.1,129.0 474.5,129.3 475.0,130.0 475.5,130.1 475.9,130.1 476.4,130.0 476.8,129.7 477.3,129.0 477.8,128.6 478.2,128.2 478.7,127.5 479.2,126.8 479.6,126.5 480.1,126.6 480.5,126.5 481.0,126.6 481.5,127.7 481.9,129.6 482.4,130.6 482.9,130.1 483.3,127.6 483.8,125.2 484.2,124.0 484.7,123.8 485.2,123.8 485.6,123.5 486.1,122.5 486.6,121.2 487.0,120.8 487.5,120.8 487.9,120.8 488.4,120.9 488.9,121.6 489.3,122.6 489.8,123.1 490.3,123.0 490.7,123.0 491.2,123.1 491.6,123.2 492.1,124.0 492.6,124.8 493.0,125.1 493.5,125.2 494.0,125.2 494.4,125.2 494.9,125.1 495.3,125.1 495.8,125.0 496.3,125.0 496.7,124.9 497.2,124.9 497.7,124.9 498.1,124.9 498.6,124.9 499.1,124.8 499.5,124.8 500.0,124.6 500.4,124.6 500.9,124.5 501.4,124.5 501.8,124.5 502.3,124.5 502.8,124.6 503.2,124.6 503.7,124.6 504.1,124.5 504.6,124.5 505.1,124.5 505.5,124.5 506.0,124.5 506.5,124.5 506.9,124.6 507.4,124.5 507.8,124.5 508.3,124.5 508.8,124.5 509.2,124.6 509.7,124.5 510.2,124.5 510.6,124.5 511.1,124.6 511.5,124.6 512.0,124.5 512.5,124.6 512.9,124.7 513.4,124.7 513.9,124.6 514.3,124.7 514.8,124.7 515.2,124.6 515.7,124.6 516.2,124.6 516.6,124.7 517.1,124.6 517.6,124.6 518.0,124.6 518.5,124.6 519.0,124.6 519.4,124.7 519.9,124.6 520.3,124.6 520.8,124.7 521.3,124.7 521.7,124.7 522.2,124.6 522.7,124.7 523.1,124.7 523.6,124.7 524.0,124.7 524.5,124.6 525.0,124.6 525.4,124.7 525.9,124.7 526.4,124.7 526.8,124.9 527.3,124.9 527.7,124.9 528.2,124.9 528.7,124.9 529.1,124.9 529.6,124.9 530.1,124.9 530.5,124.9 531.0,125.0 531.4,125.4 531.9,126.1 532.4,127.4 532.8,129.7 533.3,131.7 533.8,133.4 534.2,134.0 534.7,134.0 535.1,133.9 535.6,132.2 536.1,129.1 536.5,124.4 537.0,118.4 537.5,112.8 537.9,107.8 538.4,103.8 538.8,100.3 539.3,96.2 539.8,93.0 540.2,90.9 540.7,90.2 541.2,89.9 541.6,90.0 542.1,92.2 542.6,98.6 543.0,108.0 543.5,118.5 543.9,128.5 544.4,136.6 544.9,142.5 545.3,145.9 545.8,147.4 546.3,147.0 546.7,142.5 547.2,132.4 547.6,119.8 548.1,108.6 548.6,100.6 549.0,94.8 549.5,92.5 550.0,92.3 550.4,92.3 550.9,93.1 551.3,98.6 551.8,107.5 552.3,118.4 552.7,129.9 553.2,139.4 553.7,145.8 554.1,148.5 554.6,148.6 555.0,145.2 555.5,137.9 556.0,129.5 556.4,121.4 556.9,114.3 557.4,108.2 557.8,104.8 558.3,104.7 558.7,107.1 559.2,115.5 559.7,128.0 560.1,137.8 560.6,143.0 561.1,145.4 561.5,145.8 562.0,144.1 562.4,139.0 562.9,131.5 563.4,123.8 563.8,117.8 564.3,113.7 564.8,111.9 565.2,111.8 565.7,114.0 566.2,120.8 566.6,129.7 567.1,137.5 567.5,142.5 568.0,144.3 568.5,143.9 568.9,141.0 569.4,134.9 569.9,126.8 570.3,120.0 570.8,115.7 571.2,112.7 571.7,111.2 572.2,111.1 572.6,112.3 573.1,118.3 573.6,127.5 574.0,135.4 574.5,141.1 574.9,145.0 575.4,147.3 575.9,147.8 576.3,147.6 576.8,144.6 577.3,138.5 577.7,132.0 578.2,126.5 578.6,122.3 579.1,121.2 579.6,121.3 580.0,123.1 580.5,127.4 581.0,131.6 581.4,134.0 581.9,134.6 582.3,134.8 582.8,134.0 583.3,131.1 583.7,127.6 584.2,126.4 584.7,126.5 585.1,126.6 585.6,127.1 586.0,128.4 586.5,128.4 587.0,128.2 587.4,128.0 587.9,127.3 588.4,126.4 588.8,126.5 589.3,127.0 589.8,127.5 590.2,128.2 590.7,128.4 591.1,128.4 591.6,128.4 592.1,128.4 592.5,128.4 593.0,128.4 593.5,128.4 593.9,128.4 594.4,128.4 594.8,128.4 595.3,128.3 595.8,128.0 596.2,127.9 596.7,127.9 597.2,127.6 597.6,127.5 598.1,127.3 598.5,127.1 599.0,127.1 599.5,127.0 599.9,126.7 600.4,126.4 600.9,126.1 601.3,126.1 601.8,126.1 602.2,126.1 602.7,126.1 603.2,126.1 603.6,126.3 604.1,126.6 604.6,127.1 605.0,127.3 605.5,127.3 605.9,127.3 606.4,127.3 606.9,127.3 607.3,127.3 607.8,127.3 608.3,127.3 608.7,127.3 609.2,127.3 609.7,127.3 610.1,127.3 610.6,127.3 611.0,127.3 611.5,127.3 612.0,127.3 612.4,127.3 612.9,127.3 613.4,127.3 613.8,127.3 614.3,127.3 614.7,127.3 615.2,127.3 615.7,127.3 616.1,127.1 616.6,127.1 617.1,127.1 617.5,127.1 618.0,127.1 618.4,127.1 618.9,127.1 619.4,127.1 619.8,127.1 620.3,127.1 620.8,127.1 621.2,127.1 621.7,127.1 622.1,127.1 622.6,127.1 623.1,127.2 623.5,127.3 624.0,127.3 624.5,127.3 624.9,127.3 625.4,127.3 625.8,127.3 626.3,127.3 626.8,127.4 627.2,127.6 627.7,127.6 628.2,127.6 628.6,127.6 629.1,127.6 629.5,127.6 630.0,127.6 630.5,127.6 630.9,127.6 631.4,127.6 631.9,127.6 632.3,127.6 632.8,127.6 633.3,127.6 633.7,127.6 634.2,127.6 634.6,127.6 635.1,127.6 635.6,127.6 636.0,127.6 636.5,127.6 637.0,127.6 637.4,127.6 637.9,127.6 638.3,127.6 638.8,127.6 639.3,127.6 639.7,127.6 640.2,127.6 640.7,127.6 641.1,127.6 641.6,127.6 642.0,128.0 642.5,128.2 643.0,129.1 643.4,130.1 643.9,129.9 644.4,127.4 644.8,124.3 645.3,122.9 645.7,122.9 646.2,123.2 646.7,125.2 647.1,128.2 647.6,130.4 648.1,131.5 648.5,131.6 649.0,131.7 649.4,132.5 649.9,133.4 650.4,133.5 650.8,133.6 651.3,134.1 651.8,136.1 652.2,139.4 652.7,141.5 653.1,141.3 653.6,138.9 654.1,136.4 654.5,135.9 655.0,134.5 655.5,130.2 655.9,125.6 656.4,124.1 656.9,124.1 657.3,125.0 657.8,128.7 658.2,132.2 658.7,133.8 659.2,134.1 659.6,134.2 660.1,134.2 660.6,134.5 661.0,135.5 661.5,136.5 661.9,136.8 662.4,136.6 662.9,135.1 663.3,133.2 663.8,132.3 664.3,132.0 664.7,131.8 665.2,130.9 665.6,129.6 666.1,128.2 666.6,126.9 667.0,126.4 667.5,126.2 668.0,126.1 668.4,126.1 668.9,126.0 669.3,126.0 669.8,126.5 670.3,128.3 670.7,128.6 671.2,128.6 671.7,128.5 672.1,128.6 672.6,128.7 673.0,128.7 673.5,128.9 674.0,130.5 674.4,133.9 674.9,135.9 675.4,135.9 675.8,135.8 676.3,135.0 676.7,134.4 677.2,134.3 677.7,134.9 678.1,135.3 678.6,135.3 679.1,134.4 679.5,132.4 680.0,131.2 680.5,130.5 680.9,129.4 681.4,127.2 681.8,124.2 682.3,121.5 682.8,120.8 683.2,121.5 683.7,125.2 684.2,128.6 684.6,128.7 685.1,128.1 685.5,127.7 686.0,128.3 686.5,131.2 686.9,135.7 687.4,139.2 687.9,140.2 688.3,140.2 688.8,140.0 689.2,138.8 689.7,135.4 690.2,131.8 690.6,130.8 691.1,130.8 691.6,130.7 692.0,130.8 692.5,131.5 692.9,133.9 693.4,136.2 693.9,137.9 694.3,138.3 694.8,137.6 695.3,134.2 695.7,129.7 696.2,127.0 696.6,126.5 697.1,126.6 697.6,126.9 698.0,127.8 698.5,128.4 699.0,129.4 699.4,129.6 699.9,129.6 700.3,129.6 700.8,129.6 701.3,129.6 701.7,129.1 702.2,128.9 702.7,128.9 703.1,128.9 703.6,128.9 704.1,129.2 704.5,129.1 705.0,128.8 705.4,128.7 705.9,128.6 706.4,128.6 706.8,128.6 707.3,128.5 707.8,128.1 708.2,127.9 708.7,127.5 709.1,127.2 709.6,127.1 710.1,127.1 710.5,127.1 711.0,127.1 711.5,127.1 711.9,127.0 712.4,127.1 712.8,127.1 713.3,127.0 713.8,127.1 714.2,127.1 714.7,127.1 715.2,127.1 715.6,127.0 716.1,127.1 716.5,127.0 717.0,127.0 717.5,127.0 717.9,126.9 718.4,126.9 718.9,126.9 719.3,126.8 719.8,126.7 720.2,126.7 720.7,126.7 721.2,126.7 721.6,126.7 722.1,126.7 722.6,126.6 723.0,126.5 723.5,126.5 724.0,126.5 724.4,126.5 724.9,126.5 725.3,126.5 725.8,126.5 726.3,126.5 726.7,126.5 727.2,126.5 727.7,126.6 728.1,126.5 728.6,126.5 729.0,126.5 729.5,126.5 730.0,126.5 730.4,126.5 730.9,126.5 731.4,126.5 731.8,126.5 732.3,126.5 732.7,126.5 733.2,126.5 733.7,126.5 734.1,126.5 734.6,126.5 735.1,126.5 735.5,126.5 736.0,126.5 736.4,126.5 736.9,126.6 737.4,126.7 737.8,126.8 738.3,126.8 738.8,126.5 739.2,125.8 739.7,125.3 740.1,125.7 740.6,128.9 741.1,133.6 741.5,136.0 742.0,136.9 742.5,137.0 742.9,137.2 743.4,137.7 743.8,137.9 744.3,137.4 744.8,135.0 745.2,130.5 745.7,128.0 746.2,127.8 746.6,127.8 747.1,127.7 747.6,128.1 748.0,129.1 748.5,131.3 748.9,132.3 749.4,132.3 749.9,132.4 750.3,133.0 750.8,133.7 751.3,133.9 751.7,133.5 752.2,131.5 752.6,129.5 753.1,129.2 753.6,129.2 754.0,129.3 754.5,129.7 755.0,129.7 755.4,130.3 755.9,130.6 756.3,130.5 756.8,130.1 757.3,129.9 757.7,129.2 758.2,129.0 758.7,129.0 759.1,130.1 759.6,131.5 760.0,133.2 760.5,134.7 761.0,135.4 761.4,135.4 761.9,135.2 762.4,133.6 762.8,131.3 763.3,130.0 763.7,130.0 764.2,130.0 764.7,130.0 765.1,130.0 765.6,130.0 766.1,130.0 766.5,130.0 767.0,130.0 767.4,130.0 767.9,130.1 768.4,130.4 768.8,130.7 769.3,130.8 769.8,130.7 770.2,130.7 770.7,130.5 771.2,130.0 771.6,129.9 772.1,129.8 772.5,129.8 773.0,129.8 773.5,129.8 773.9,129.8 774.4,129.8 774.9,129.8 775.3,129.9 775.8,129.9 776.2,129.9 776.7,129.9 777.2,129.9 777.6,129.9 778.1,129.9 778.6,129.8 779.0,129.8 779.5,129.8 779.9,129.7 780.4,129.0 780.9,128.2 781.3,128.0 781.8,127.8 782.3,126.3 782.7,122.5 783.2,116.1 783.6,110.7 784.1,106.7 784.6,103.6 785.0,100.7 785.5,97.9 786.0,95.5 786.4,94.7 786.9,94.2 787.3,93.8 787.8,93.6 788.3,93.3 788.7,93.2 789.2,93.2 789.7,93.4 790.1,94.6 790.6,97.4 791.0,100.3 791.5,104.6 792.0,110.6 792.4,117.9 792.9,125.2 793.4,132.4 793.8,137.7 794.3,139.1 794.8,138.5 795.2,136.1 795.7,133.7 796.1,132.3 796.6,131.2 797.1,129.9 797.5,128.5 798.0,127.3 798.5,126.7 798.9,126.7 799.4,126.7 799.8,127.0 800.3,127.4 800.8,128.1 801.2,128.5 801.7,128.5 802.2,128.5 802.6,128.5 803.1,128.5 803.5,128.2 804.0,128.1 804.5,128.0 804.9,127.9 805.4,128.0 805.9,127.9 806.3,127.9 806.8,127.9 807.2,128.0 807.7,128.0 808.2,127.9 808.6,127.9 809.1,128.0 809.6,128.3 810.0,128.5 810.5,128.5 810.9,128.5 811.4,128.5 811.9,128.5 812.3,128.5 812.8,128.5 813.3,128.5 813.7,128.5 814.2,128.5 814.7,128.5 815.1,128.5 815.6,128.5 816.0,128.5 816.5,128.5 817.0,128.5 817.4,128.5 817.9,128.5 818.4,128.5 818.8,128.5 819.3,128.5 819.7,128.5 820.2,128.5 820.7,128.5 821.1,128.5 821.6,128.5 822.1,128.5 822.5,128.5 823.0,128.5 823.4,128.5 823.9,128.5 824.4,128.5 824.8,128.5 825.3,128.5 825.8,128.5 826.2,128.5 826.7,128.5 827.1,128.5 827.6,128.5 828.1,128.5 828.5,128.5 829.0,128.5 829.5,128.5 829.9,128.5 830.4,128.5 830.8,128.5 831.3,128.5 831.8,128.5 832.2,128.5 832.7,128.5 833.2,128.5 833.6,128.5 834.1,128.5 834.5,128.5 835.0,128.5 835.5,128.5 835.9,128.5 836.4,127.9 836.9,126.8 837.3,125.6 837.8,125.0 838.3,124.9 838.7,124.8 839.2,124.6 839.6,124.1 840.1,123.8 840.6,123.9 841.0,124.7 841.5,127.6 842.0,131.2 842.4,135.7 842.9,141.2 843.3,146.3 843.8,149.5 844.3,150.0 844.7,149.9 845.2,149.1 845.7,147.0 846.1,143.9 846.6,141.1 847.0,138.9 847.5,136.9 848.0,135.3 848.4,134.2 848.9,133.6 849.4,133.1 849.8,132.8 850.3,132.7 850.7,132.7 851.2,132.7 851.7,132.7 852.1,132.7 852.6,132.7 853.1,132.6 853.5,132.7 854.0,132.7 854.4,132.7 854.9,132.7 855.4,132.7 855.8,132.7 856.3,132.7 856.8,132.7 857.2,132.7 857.7,132.7 858.1,132.7 858.6,132.7 859.1,132.7 859.5,132.7 860.0,132.7"/><line x1="46.3" y1="40" x2="46.3" y2="150" stroke="#f0a000" stroke-dasharray="4 3"/><line x1="46.3" y1="40" x2="46.3" y2="150" stroke="#f0a000" stroke-dasharray="4 3"/><line x1="46.3" y1="40" x2="46.3" y2="150" stroke="#f0a000" stroke-dasharray="4 3"/><line x1="46.3" y1="40" x2="46.3" y2="150" stroke="#f0a000" stroke-dasharray="4 3"/><line x1="46.3" y1="40" x2="46.3" y2="150" stroke="#f0a000" stroke-dasharray="4 3"/><line x1="46.3" y1="40" x2="46.3" y2="150" stroke="#f0a000" stroke-dasharray="4 3"/><line x1="46.3" y1="40" x2="46.3" y2="150" stroke="#f0a000" stroke-dasharray="4 3"/><line x1="59.7" y1="40" x2="59.7" y2="150" stroke="#f0a000" stroke-dasharray="4 3"/><line x1="79.5" y1="40" x2="79.5" y2="150" stroke="#f0a000" stroke-dasharray="4 3"/><line x1="243.9" y1="40" x2="243.9" y2="150" stroke="#f0a000" stroke-dasharray="4 3"/><line x1="265.3" y1="40" x2="265.3" y2="150" stroke="#f0a000" stroke-dasharray="4 3"/><line x1="390.0" y1="40" x2="390.0" y2="150" stroke="#f0a000" stroke-dasharray="4 3"/><line x1="416.2" y1="40" x2="416.2" y2="150" stroke="#f0a000" stroke-dasharray="4 3"/><line x1="506.5" y1="40" x2="506.5" y2="150" stroke="#f0a000" stroke-dasharray="4 3"/><line x1="528.3" y1="40" x2="528.3" y2="150" stroke="#f0a000" stroke-dasharray="4 3"/><line x1="614.9" y1="40" x2="614.9" y2="150" stroke="#f0a000" stroke-dasharray="4 3"/><line x1="639.3" y1="40" x2="639.3" y2="150" stroke="#f0a000" stroke-dasharray="4 3"/><line x1="716.5" y1="40" x2="716.5" y2="150" stroke="#f0a000" stroke-dasharray="4 3"/><line x1="734.2" y1="40" x2="734.2" y2="150" stroke="#f0a000" stroke-dasharray="4 3"/><line x1="809.5" y1="40" x2="809.5" y2="150" stroke="#f0a000" stroke-dasharray="4 3"/><line x1="832.2" y1="40" x2="832.2" y2="150" stroke="#f0a000" stroke-dasharray="4 3"/><text x="40" y="192" font-size="13" fill="#333">j2 — 입력 L(파랑) vs 출력 P(빨강), [-74°, 21°], 177s</text><rect x="40" y="200" width="820" height="110" fill="none" stroke="#ddd"/><polyline fill="none" stroke="#1f77b4" stroke-width="1.2" points=""/><polyline fill="none" stroke="#d62728" stroke-width="1.2" points="40.0,214.6 40.5,214.6 40.9,214.6 41.4,214.6 41.9,214.6 42.3,214.6 42.8,214.6 43.2,214.6 43.7,214.6 44.2,214.6 44.6,214.6 45.1,214.6 45.6,214.6 46.0,214.6 46.5,214.6 46.9,214.6 47.4,214.6 47.9,214.6 48.3,214.6 48.8,214.6 49.3,214.6 49.7,214.6 50.2,214.4 50.6,213.8 51.1,213.2 51.6,212.8 52.0,212.4 52.5,212.3 53.0,212.2 53.4,212.0 53.9,211.7 54.3,211.7 54.8,211.7 55.3,211.5 55.7,211.4 56.2,211.4 56.7,211.4 57.1,211.4 57.6,211.4 58.0,211.4 58.5,211.4 59.0,211.1 59.4,211.1 59.9,211.1 60.4,211.1 60.8,211.1 61.3,211.1 61.7,211.1 62.2,211.1 62.7,211.1 63.1,211.1 63.6,211.1 64.1,211.1 64.5,211.1 65.0,211.1 65.5,211.1 65.9,211.1 66.4,211.1 66.8,211.1 67.3,211.1 67.8,211.1 68.2,211.1 68.7,211.1 69.2,211.1 69.6,211.1 70.1,211.1 70.5,211.1 71.0,211.1 71.5,211.1 71.9,211.1 72.4,211.1 72.9,211.1 73.3,211.1 73.8,211.1 74.2,211.1 74.7,211.1 75.2,211.1 75.6,211.1 76.1,211.1 76.6,211.1 77.0,211.1 77.5,211.1 77.9,211.1 78.4,211.3 78.9,211.4 79.3,211.5 79.8,211.7 80.3,211.7 80.7,211.7 81.2,211.7 81.6,211.8 82.1,211.9 82.6,212.3 83.0,212.4 83.5,212.3 84.0,212.4 84.4,212.8 84.9,215.1 85.3,220.0 85.8,226.8 86.3,233.5 86.7,239.0 87.2,244.0 87.7,248.6 88.1,252.5 88.6,256.6 89.1,260.5 89.5,264.2 90.0,267.3 90.4,269.2 90.9,269.6 91.4,269.8 91.8,270.1 92.3,270.2 92.8,270.8 93.2,272.3 93.7,273.2 94.1,273.4 94.6,273.5 95.1,273.5 95.5,273.9 96.0,274.0 96.5,273.9 96.9,273.1 97.4,272.5 97.8,272.4 98.3,272.4 98.8,272.4 99.2,272.4 99.7,272.4 100.2,271.9 100.6,267.2 101.1,260.9 101.5,256.0 102.0,251.1 102.5,247.1 102.9,246.9 103.4,247.0 103.9,247.8 104.3,250.6 104.8,253.9 105.2,257.1 105.7,259.1 106.2,260.8 106.6,264.3 107.1,268.3 107.6,269.8 108.0,269.4 108.5,266.0 109.0,259.8 109.4,254.1 109.9,248.3 110.3,242.0 110.8,237.0 111.3,236.5 111.7,239.8 112.2,248.9 112.7,260.3 113.1,269.2 113.6,275.3 114.0,281.0 114.5,286.8 115.0,292.4 115.4,297.3 115.9,301.3 116.4,304.5 116.8,306.9 117.3,308.5 117.7,308.9 118.2,308.9 118.7,309.8 119.1,309.9 119.6,309.4 120.1,306.6 120.5,303.6 121.0,302.2 121.4,302.3 121.9,302.3 122.4,302.3 122.8,302.3 123.3,302.3 123.8,302.3 124.2,301.9 124.7,301.4 125.1,301.4 125.6,301.1 126.1,301.0 126.5,301.0 127.0,301.0 127.5,301.0 127.9,301.0 128.4,301.0 128.8,301.0 129.3,300.9 129.8,301.0 130.2,301.0 130.7,300.9 131.2,299.4 131.6,297.4 132.1,296.1 132.6,296.1 133.0,296.1 133.5,296.1 133.9,296.1 134.4,296.2 134.9,296.3 135.3,296.4 135.8,296.7 136.3,297.3 136.7,297.5 137.2,297.5 137.6,297.5 138.1,297.5 138.6,297.5 139.0,297.5 139.5,297.5 140.0,298.9 140.4,301.0 140.9,302.9 141.3,303.1 141.8,303.1 142.3,303.1 142.7,303.1 143.2,301.9 143.7,297.2 144.1,288.6 144.6,278.3 145.0,268.0 145.5,257.3 146.0,246.6 146.4,235.0 146.9,224.6 147.4,218.8 147.8,216.9 148.3,216.2 148.7,216.0 149.2,216.3 149.7,218.2 150.1,221.2 150.6,224.6 151.1,227.6 151.5,230.6 152.0,233.0 152.4,233.1 152.9,233.0 153.4,232.4 153.8,231.4 154.3,230.8 154.8,230.6 155.2,230.6 155.7,230.6 156.2,230.3 156.6,225.8 157.1,216.7 157.5,209.6 158.0,208.9 158.5,213.3 158.9,223.4 159.4,233.7 159.9,240.8 160.3,244.8 160.8,247.0 161.2,247.1 161.7,247.0 162.2,245.7 162.6,245.0 163.1,245.0 163.6,245.0 164.0,246.0 164.5,247.5 164.9,247.5 165.4,246.1 165.9,242.4 166.3,237.6 166.8,232.9 167.3,228.9 167.7,226.0 168.2,223.9 168.6,223.2 169.1,223.0 169.6,222.6 170.0,222.1 170.5,221.5 171.0,220.3 171.4,218.8 171.9,216.7 172.3,214.4 172.8,213.1 173.3,212.7 173.7,212.6 174.2,212.7 174.7,212.6 175.1,213.0 175.6,214.3 176.0,214.7 176.5,214.6 177.0,214.6 177.4,214.6 177.9,214.6 178.4,214.6 178.8,214.6 179.3,214.7 179.8,214.6 180.2,214.8 180.7,215.4 181.1,215.7 181.6,216.1 182.1,216.4 182.5,217.0 183.0,218.0 183.5,219.3 183.9,221.3 184.4,223.7 184.8,225.8 185.3,228.0 185.8,230.0 186.2,231.8 186.7,233.6 187.2,234.6 187.6,234.7 188.1,234.8 188.5,235.6 189.0,235.6 189.5,235.5 189.9,234.3 190.4,232.0 190.9,229.9 191.3,228.7 191.8,227.6 192.2,226.6 192.7,226.4 193.2,226.6 193.6,226.8 194.1,226.7 194.6,226.6 195.0,226.7 195.5,226.7 195.9,226.7 196.4,226.7 196.9,226.9 197.3,227.2 197.8,227.3 198.3,227.6 198.7,227.6 199.2,227.6 199.7,227.6 200.1,227.6 200.6,227.8 201.0,228.0 201.5,228.4 202.0,228.7 202.4,229.1 202.9,229.2 203.4,229.3 203.8,229.5 204.3,229.5 204.7,229.5 205.2,229.5 205.7,229.5 206.1,229.4 206.6,229.0 207.1,228.8 207.5,228.1 208.0,227.8 208.4,227.8 208.9,227.8 209.4,227.7 209.8,227.9 210.3,228.5 210.8,229.0 211.2,229.2 211.7,229.4 212.1,229.6 212.6,229.8 213.1,229.8 213.5,230.0 214.0,230.2 214.5,230.2 214.9,230.2 215.4,230.2 215.8,230.2 216.3,230.2 216.8,230.2 217.2,230.2 217.7,230.2 218.2,230.2 218.6,230.4 219.1,230.9 219.5,231.6 220.0,232.4 220.5,234.4 220.9,237.3 221.4,241.7 221.9,246.8 222.3,253.1 222.8,257.9 223.3,261.4 223.7,262.7 224.2,262.5 224.6,260.7 225.1,256.5 225.6,250.7 226.0,244.5 226.5,237.6 227.0,231.2 227.4,228.1 227.9,226.4 228.3,224.4 228.8,222.7 229.3,222.3 229.7,222.0 230.2,221.1 230.7,220.7 231.1,220.0 231.6,219.4 232.0,219.1 232.5,218.8 233.0,218.6 233.4,218.1 233.9,217.3 234.4,216.6 234.8,215.5 235.3,214.5 235.7,213.5 236.2,212.7 236.7,212.3 237.1,212.1 237.6,212.1 238.1,212.2 238.5,212.5 239.0,212.5 239.4,212.5 239.9,212.5 240.4,212.5 240.8,212.5 241.3,212.5 241.8,212.5 242.2,212.5 242.7,212.3 243.1,212.2 243.6,212.2 244.1,212.2 244.5,212.2 245.0,212.0 245.5,211.9 245.9,211.9 246.4,211.9 246.9,211.9 247.3,211.9 247.8,211.9 248.2,211.7 248.7,211.6 249.2,211.6 249.6,211.6 250.1,211.6 250.6,211.6 251.0,211.6 251.5,211.6 251.9,211.6 252.4,211.6 252.9,211.6 253.3,211.6 253.8,211.6 254.3,211.6 254.7,211.5 255.2,211.3 255.6,211.3 256.1,211.3 256.6,211.5 257.0,211.6 257.5,211.6 258.0,211.6 258.4,211.6 258.9,211.6 259.3,211.6 259.8,211.6 260.3,211.7 260.7,211.9 261.2,211.9 261.7,211.9 262.1,211.9 262.6,211.9 263.0,211.9 263.5,211.9 264.0,211.9 264.4,211.9 264.9,211.9 265.4,211.9 265.8,211.9 266.3,211.9 266.7,211.9 267.2,211.9 267.7,212.0 268.1,212.1 268.6,212.6 269.1,214.7 269.5,217.4 270.0,221.3 270.5,226.7 270.9,232.2 271.4,237.2 271.8,241.6 272.3,246.5 272.8,250.5 273.2,253.1 273.7,254.7 274.2,256.2 274.6,258.0 275.1,259.0 275.5,259.1 276.0,259.0 276.5,259.0 276.9,257.7 277.4,254.1 277.9,250.0 278.3,246.2 278.8,243.8 279.2,243.7 279.7,244.8 280.2,249.9 280.6,256.3 281.1,259.9 281.6,260.2 282.0,260.2 282.5,259.9 282.9,258.9 283.4,257.6 283.9,255.4 284.3,253.0 284.8,251.7 285.3,251.5 285.7,251.7 286.2,254.0 286.6,258.4 287.1,261.6 287.6,263.2 288.0,263.6 288.5,263.6 289.0,263.0 289.4,259.1 289.9,254.0 290.3,251.1 290.8,251.3 291.3,251.2 291.7,253.2 292.2,256.7 292.7,257.6 293.1,257.6 293.6,257.6 294.1,257.6 294.5,257.6 295.0,257.3 295.4,256.5 295.9,256.4 296.4,256.4 296.8,257.4 297.3,258.7 297.8,259.2 298.2,259.1 298.7,259.1 299.1,259.1 299.6,259.0 300.1,259.1 300.5,260.2 301.0,265.4 301.5,271.2 301.9,275.7 302.4,278.9 302.8,280.2 303.3,280.2 303.8,280.2 304.2,280.2 304.7,280.1 305.2,280.2 305.6,280.5 306.1,283.6 306.5,287.8 307.0,290.1 307.5,290.9 307.9,291.0 308.4,291.0 308.9,291.0 309.3,291.0 309.8,291.0 310.2,290.4 310.7,286.5 311.2,281.1 311.6,276.2 312.1,273.7 312.6,272.3 313.0,272.2 313.5,272.2 314.0,272.3 314.4,273.2 314.9,273.3 315.3,273.3 315.8,271.8 316.3,269.6 316.7,267.8 317.2,266.1 317.7,264.2 318.1,261.9 318.6,258.5 319.0,254.3 319.5,250.1 320.0,246.9 320.4,244.6 320.9,242.1 321.4,241.2 321.8,241.1 322.3,241.1 322.7,240.9 323.2,240.9 323.7,240.9 324.1,240.7 324.6,238.2 325.1,234.8 325.5,234.2 326.0,234.7 326.4,235.4 326.9,236.9 327.4,237.8 327.8,239.6 328.3,241.8 328.8,243.1 329.2,243.2 329.7,243.1 330.1,241.5 330.6,239.5 331.1,238.1 331.5,238.0 332.0,238.0 332.5,238.0 332.9,238.1 333.4,238.1 333.8,238.0 334.3,238.0 334.8,237.2 335.2,236.0 335.7,235.1 336.2,234.8 336.6,234.8 337.1,234.7 337.6,234.8 338.0,234.9 338.5,234.8 338.9,234.8 339.4,234.8 339.9,234.2 340.3,233.8 340.8,233.4 341.3,233.0 341.7,232.6 342.2,232.6 342.6,232.6 343.1,232.4 343.6,232.1 344.0,232.1 344.5,232.1 345.0,232.1 345.4,232.1 345.9,232.3 346.3,232.1 346.8,232.1 347.3,232.1 347.7,232.1 348.2,232.1 348.7,232.1 349.1,232.1 349.6,232.1 350.0,232.0 350.5,231.8 351.0,231.9 351.4,231.7 351.9,231.7 352.4,231.8 352.8,231.7 353.3,231.7 353.7,231.7 354.2,231.8 354.7,231.8 355.1,231.8 355.6,231.7 356.1,231.8 356.5,231.4 357.0,231.2 357.4,230.9 357.9,230.6 358.4,230.5 358.8,230.5 359.3,230.5 359.8,230.5 360.2,230.5 360.7,230.5 361.2,230.5 361.6,230.5 362.1,230.5 362.5,230.5 363.0,230.5 363.5,230.5 363.9,230.5 364.4,230.5 364.9,230.5 365.3,230.5 365.8,230.5 366.2,230.5 366.7,230.5 367.2,230.5 367.6,230.4 368.1,230.3 368.6,230.3 369.0,230.3 369.5,230.1 369.9,230.0 370.4,230.0 370.9,230.0 371.3,230.0 371.8,230.0 372.3,230.0 372.7,229.8 373.2,229.4 373.6,229.2 374.1,229.1 374.6,229.1 375.0,229.1 375.5,229.2 376.0,229.1 376.4,229.1 376.9,228.9 377.3,227.9 377.8,227.3 378.3,227.6 378.7,228.5 379.2,229.3 379.7,229.2 380.1,229.2 380.6,229.4 381.0,229.4 381.5,229.6 382.0,228.8 382.4,226.4 382.9,224.1 383.4,222.7 383.8,221.7 384.3,220.8 384.8,220.3 385.2,219.9 385.7,219.4 386.1,219.0 386.6,218.6 387.1,218.4 387.5,218.1 388.0,217.8 388.5,217.6 388.9,217.6 389.4,217.6 389.8,217.5 390.3,217.3 390.8,217.2 391.2,216.9 391.7,216.9 392.2,216.9 392.6,216.7 393.1,216.6 393.5,216.6 394.0,216.3 394.5,216.3 394.9,216.3 395.4,216.3 395.9,216.3 396.3,216.3 396.8,216.3 397.2,216.3 397.7,216.2 398.2,216.3 398.6,216.3 399.1,216.3 399.6,216.3 400.0,216.3 400.5,216.2 400.9,216.0 401.4,216.0 401.9,216.0 402.3,216.0 402.8,216.0 403.3,216.0 403.7,216.0 404.2,216.0 404.7,215.8 405.1,215.7 405.6,215.7 406.0,215.7 406.5,215.7 407.0,215.7 407.4,215.7 407.9,215.7 408.4,215.6 408.8,214.9 409.3,214.6 409.7,214.6 410.2,214.6 410.7,214.6 411.1,214.6 411.6,214.6 412.1,214.6 412.5,214.6 413.0,214.6 413.4,214.6 413.9,214.6 414.4,214.6 414.8,214.6 415.3,214.6 415.8,214.6 416.2,214.6 416.7,214.6 417.1,214.6 417.6,214.6 418.1,214.6 418.5,215.0 419.0,215.4 419.5,216.0 419.9,217.3 420.4,219.2 420.8,221.6 421.3,226.6 421.8,233.8 422.2,241.0 422.7,246.4 423.2,250.8 423.6,254.8 424.1,257.7 424.5,259.3 425.0,259.6 425.5,259.7 425.9,259.7 426.4,259.6 426.9,258.3 427.3,254.9 427.8,251.3 428.3,248.1 428.7,244.7 429.2,240.7 429.6,236.5 430.1,231.6 430.6,226.8 431.0,223.9 431.5,222.3 432.0,222.1 432.4,224.7 432.9,231.9 433.3,240.3 433.8,248.2 434.3,253.9 434.7,257.4 435.2,258.7 435.7,258.6 436.1,258.6 436.6,257.6 437.0,253.3 437.5,247.5 438.0,245.2 438.4,245.2 438.9,248.0 439.4,254.1 439.8,259.7 440.3,263.0 440.7,263.5 441.2,261.5 441.7,254.0 442.1,243.4 442.6,233.8 443.1,226.5 443.5,222.3 444.0,221.5 444.4,223.6 444.9,228.2 445.4,233.0 445.8,234.5 446.3,234.5 446.8,234.5 447.2,234.6 447.7,235.8 448.1,239.7 448.6,246.2 449.1,251.9 449.5,255.9 450.0,257.3 450.5,256.2 450.9,250.9 451.4,241.6 451.9,232.6 452.3,226.3 452.8,222.6 453.2,222.4 453.7,225.3 454.2,234.5 454.6,244.3 455.1,248.8 455.6,248.9 456.0,248.8 456.5,248.7 456.9,248.6 457.4,248.8 457.9,249.3 458.3,251.9 458.8,254.3 459.3,256.0 459.7,258.1 460.2,260.4 460.6,261.0 461.1,260.9 461.6,258.2 462.0,254.3 462.5,249.9 463.0,246.1 463.4,245.3 463.9,245.3 464.3,245.8 464.8,247.6 465.3,250.5 465.7,254.3 466.2,255.5 466.7,253.1 467.1,248.0 467.6,244.1 468.0,241.5 468.5,238.3 469.0,235.7 469.4,233.6 469.9,232.7 470.4,232.8 470.8,232.8 471.3,233.7 471.7,235.7 472.2,235.8 472.7,235.7 473.1,235.1 473.6,234.2 474.1,233.4 474.5,231.6 475.0,228.6 475.5,224.7 475.9,219.9 476.4,217.5 476.8,217.4 477.3,217.0 477.8,215.7 478.2,214.9 478.7,214.6 479.2,214.5 479.6,214.6 480.1,214.6 480.5,214.7 481.0,214.6 481.5,215.3 481.9,218.3 482.4,222.6 482.9,226.4 483.3,227.6 483.8,227.4 484.2,227.5 484.7,226.4 485.2,225.8 485.6,226.0 486.1,226.3 486.6,226.4 487.0,226.5 487.5,226.5 487.9,226.3 488.4,225.0 488.9,223.9 489.3,223.4 489.8,222.7 490.3,221.5 490.7,220.4 491.2,220.0 491.6,219.3 492.1,218.3 492.6,217.2 493.0,216.8 493.5,216.7 494.0,216.5 494.4,216.3 494.9,216.0 495.3,215.3 495.8,214.8 496.3,214.5 496.7,214.8 497.2,215.4 497.7,215.5 498.1,215.1 498.6,214.5 499.1,214.6 499.5,214.7 500.0,214.6 500.4,214.4 500.9,214.6 501.4,214.7 501.8,214.6 502.3,214.5 502.8,214.7 503.2,214.6 503.7,214.5 504.1,214.5 504.6,214.7 505.1,214.6 505.5,214.5 506.0,214.6 506.5,214.7 506.9,214.5 507.4,214.5 507.8,214.7 508.3,214.6 508.8,214.5 509.2,214.7 509.7,214.6 510.2,214.5 510.6,214.6 511.1,214.6 511.5,214.5 512.0,214.6 512.5,214.7 512.9,214.5 513.4,214.6 513.9,214.7 514.3,214.6 514.8,214.6 515.2,214.6 515.7,214.6 516.2,214.6 516.6,214.6 517.1,214.6 517.6,214.6 518.0,214.6 518.5,214.6 519.0,214.6 519.4,214.6 519.9,214.6 520.3,214.6 520.8,214.6 521.3,214.6 521.7,214.5 522.2,214.6 522.7,214.6 523.1,214.6 523.6,214.6 524.0,214.6 524.5,214.6 525.0,214.6 525.4,214.6 525.9,214.6 526.4,214.6 526.8,214.6 527.3,214.6 527.7,214.6 528.2,214.6 528.7,214.6 529.1,214.6 529.6,214.6 530.1,214.6 530.5,214.6 531.0,214.6 531.4,215.2 531.9,217.4 532.4,221.0 532.8,226.7 533.3,234.3 533.8,241.4 534.2,247.1 534.7,251.4 535.1,255.3 535.6,259.0 536.1,262.8 536.5,265.3 537.0,266.1 537.5,266.1 537.9,266.1 538.4,263.9 538.8,259.9 539.3,255.6 539.8,250.4 540.2,245.7 540.7,242.5 541.2,242.3 541.6,245.2 542.1,251.8 542.6,258.9 543.0,264.6 543.5,266.9 543.9,266.9 544.4,266.2 544.9,263.0 545.3,259.8 545.8,258.7 546.3,258.5 546.7,258.8 547.2,260.6 547.6,263.2 548.1,264.2 548.6,263.9 549.0,259.2 549.5,253.3 550.0,250.5 550.4,250.3 550.9,252.1 551.3,258.0 551.8,264.4 552.3,267.5 552.7,267.6 553.2,266.0 553.7,258.8 554.1,249.3 554.6,241.8 555.0,237.2 555.5,234.4 556.0,234.3 556.4,234.5 556.9,236.1 557.4,242.6 557.8,252.8 558.3,263.1 558.7,271.0 559.2,274.8 559.7,275.3 560.1,274.1 560.6,269.0 561.1,260.0 561.5,250.6 562.0,242.9 562.4,237.2 562.9,233.7 563.4,233.9 563.8,238.2 564.3,246.9 564.8,257.0 565.2,266.6 565.7,274.1 566.2,277.4 566.6,277.3 567.1,274.7 567.5,265.4 568.0,253.5 568.5,245.0 568.9,238.4 569.4,234.2 569.9,233.4 570.3,233.5 570.8,234.7 571.2,240.4 571.7,248.8 572.2,256.7 572.6,263.6 573.1,269.1 573.6,271.0 574.0,270.9 574.5,270.6 574.9,267.1 575.4,261.5 575.9,255.0 576.3,247.4 576.8,240.1 577.3,234.2 577.7,231.2 578.2,229.4 578.6,227.6 579.1,226.7 579.6,226.5 580.0,226.5 580.5,226.8 581.0,227.5 581.4,229.4 581.9,231.7 582.3,233.6 582.8,234.7 583.3,234.9 583.7,234.6 584.2,233.7 584.7,232.5 585.1,230.7 585.6,227.9 586.0,224.3 586.5,223.8 587.0,224.4 587.4,225.9 587.9,228.6 588.4,231.2 588.8,231.3 589.3,230.1 589.8,227.9 590.2,224.5 590.7,222.7 591.1,222.8 591.6,223.0 592.1,222.9 592.5,222.8 593.0,221.6 593.5,220.2 593.9,219.5 594.4,219.0 594.8,218.2 595.3,217.4 595.8,216.7 596.2,216.2 596.7,215.7 597.2,214.9 597.6,214.5 598.1,214.6 598.5,214.6 599.0,214.6 599.5,214.6 599.9,214.6 600.4,214.6 600.9,214.6 601.3,214.6 601.8,214.6 602.2,214.6 602.7,214.6 603.2,214.6 603.6,214.6 604.1,214.6 604.6,214.6 605.0,214.6 605.5,214.6 605.9,214.6 606.4,214.6 606.9,214.6 607.3,214.6 607.8,214.6 608.3,214.6 608.7,214.6 609.2,214.6 609.7,214.6 610.1,214.6 610.6,214.6 611.0,214.6 611.5,214.6 612.0,214.6 612.4,214.6 612.9,214.6 613.4,214.6 613.8,214.6 614.3,214.6 614.7,214.6 615.2,214.6 615.7,214.6 616.1,214.6 616.6,214.6 617.1,214.6 617.5,214.6 618.0,214.6 618.4,214.6 618.9,214.6 619.4,214.6 619.8,214.6 620.3,214.6 620.8,214.6 621.2,214.6 621.7,214.6 622.1,214.6 622.6,214.6 623.1,214.6 623.5,214.6 624.0,214.6 624.5,214.6 624.9,214.6 625.4,214.6 625.8,214.6 626.3,214.6 626.8,214.6 627.2,214.6 627.7,214.6 628.2,214.6 628.6,214.6 629.1,214.6 629.5,214.6 630.0,214.6 630.5,214.6 630.9,214.6 631.4,214.6 631.9,214.6 632.3,214.6 632.8,214.6 633.3,214.6 633.7,214.6 634.2,214.6 634.6,214.6 635.1,214.6 635.6,214.6 636.0,214.6 636.5,214.6 637.0,214.6 637.4,214.6 637.9,214.6 638.3,214.6 638.8,214.6 639.3,214.6 639.7,214.6 640.2,214.6 640.7,214.6 641.1,214.6 641.6,214.8 642.0,215.9 642.5,219.2 643.0,226.4 643.4,236.5 643.9,244.9 644.4,250.4 644.8,253.4 645.3,254.1 645.7,254.0 646.2,254.0 646.7,253.0 647.1,252.1 647.6,251.9 648.1,252.3 648.5,254.1 649.0,255.6 649.4,256.0 649.9,255.9 650.4,255.8 650.8,255.7 651.3,256.1 651.8,258.0 652.2,259.0 652.7,259.1 653.1,259.0 653.6,259.0 654.1,258.9 654.5,258.9 655.0,259.1 655.5,260.2 655.9,260.7 656.4,260.1 656.9,258.0 657.3,257.8 657.8,257.7 658.2,257.8 658.7,257.7 659.2,257.9 659.6,259.7 660.1,263.1 660.6,264.2 661.0,264.0 661.5,263.9 661.9,262.5 662.4,262.6 662.9,262.7 663.3,262.7 663.8,262.7 664.3,262.6 664.7,261.7 665.2,261.0 665.6,260.9 666.1,259.5 666.6,255.7 667.0,251.3 667.5,246.3 668.0,241.9 668.4,241.7 668.9,242.5 669.3,245.4 669.8,250.2 670.3,254.3 670.7,256.7 671.2,258.2 671.7,259.5 672.1,262.5 672.6,266.2 673.0,268.7 673.5,269.4 674.0,269.6 674.4,269.0 674.9,265.6 675.4,262.8 675.8,261.2 676.3,260.3 676.7,259.7 677.2,259.1 677.7,257.6 678.1,255.9 678.6,255.2 679.1,255.2 679.5,255.2 680.0,255.9 680.5,259.4 680.9,264.9 681.4,269.3 681.8,273.2 682.3,275.6 682.8,275.8 683.2,275.5 683.7,271.7 684.2,266.2 684.6,262.3 685.1,261.8 685.5,261.8 686.0,261.8 686.5,261.6 686.9,257.5 687.4,249.5 687.9,241.3 688.3,238.5 688.8,238.8 689.2,239.1 689.7,240.3 690.2,242.1 690.6,244.0 691.1,246.5 691.6,248.9 692.0,250.5 692.5,250.6 692.9,246.7 693.4,238.0 693.9,229.8 694.3,225.1 694.8,222.3 695.3,220.4 695.7,218.6 696.2,217.5 696.6,216.9 697.1,216.9 697.6,217.1 698.0,217.2 698.5,217.3 699.0,217.4 699.4,217.7 699.9,217.8 700.3,217.8 700.8,217.8 701.3,217.8 701.7,217.5 702.2,217.4 702.7,217.4 703.1,217.4 703.6,217.4 704.1,217.5 704.5,217.5 705.0,217.5 705.4,217.6 705.9,217.6 706.4,217.6 706.8,217.5 707.3,217.3 707.8,216.8 708.2,216.3 708.7,215.2 709.1,214.6 709.6,214.6 710.1,214.6 710.5,214.6 711.0,214.6 711.5,214.6 711.9,214.6 712.4,214.6 712.8,214.6 713.3,214.1 713.8,213.6 714.2,213.4 714.7,213.4 715.2,213.4 715.6,213.4 716.1,213.4 716.5,213.4 717.0,213.4 717.5,213.4 717.9,213.4 718.4,213.4 718.9,213.4 719.3,213.4 719.8,213.4 720.2,213.4 720.7,213.4 721.2,213.4 721.6,213.4 722.1,213.4 722.6,213.6 723.0,214.2 723.5,214.5 724.0,214.6 724.4,214.6 724.9,214.6 725.3,214.5 725.8,214.6 726.3,214.5 726.7,214.6 727.2,214.6 727.7,214.5 728.1,214.6 728.6,214.5 729.0,214.6 729.5,214.6 730.0,214.5 730.4,214.6 730.9,214.6 731.4,214.5 731.8,214.6 732.3,214.6 732.7,214.6 733.2,214.5 733.7,214.6 734.1,214.6 734.6,214.6 735.1,214.6 735.5,214.5 736.0,214.6 736.4,214.6 736.9,214.7 737.4,216.3 737.8,220.1 738.3,227.1 738.8,236.3 739.2,243.1 739.7,245.7 740.1,245.8 740.6,245.7 741.1,246.2 741.5,248.6 742.0,253.3 742.5,257.7 742.9,258.6 743.4,258.4 743.8,255.5 744.3,252.1 744.8,251.6 745.2,251.7 745.7,252.3 746.2,253.1 746.6,253.5 747.1,253.5 747.6,253.5 748.0,253.5 748.5,253.6 748.9,254.6 749.4,256.4 749.9,257.0 750.3,257.0 750.8,257.0 751.3,256.5 751.7,255.7 752.2,255.6 752.6,255.6 753.1,255.5 753.6,255.5 754.0,255.5 754.5,255.5 755.0,255.3 755.4,255.3 755.9,255.3 756.3,255.5 756.8,256.1 757.3,258.5 757.7,260.6 758.2,261.3 758.7,261.4 759.1,261.5 759.6,261.3 760.0,260.2 760.5,257.8 761.0,254.7 761.4,251.1 761.9,248.2 762.4,246.3 762.8,245.6 763.3,245.4 763.7,245.4 764.2,245.3 764.7,245.4 765.1,245.4 765.6,245.5 766.1,245.5 766.5,245.5 767.0,245.5 767.4,245.0 767.9,243.6 768.4,242.9 768.8,242.4 769.3,241.8 769.8,240.9 770.2,239.8 770.7,238.5 771.2,237.4 771.6,237.1 772.1,237.1 772.5,237.1 773.0,237.1 773.5,237.1 773.9,237.1 774.4,237.1 774.9,237.1 775.3,237.1 775.8,237.1 776.2,237.2 776.7,237.2 777.2,237.2 777.6,237.1 778.1,237.0 778.6,236.1 779.0,236.0 779.5,236.0 779.9,236.0 780.4,236.1 780.9,236.1 781.3,236.2 781.8,236.5 782.3,236.5 782.7,235.8 783.2,232.8 783.6,229.5 784.1,225.3 784.6,220.8 785.0,216.4 785.5,211.7 786.0,207.9 786.4,205.2 786.9,203.9 787.3,202.7 787.8,200.8 788.3,200.0 788.7,200.1 789.2,200.0 789.7,200.0 790.1,201.4 790.6,204.2 791.0,208.0 791.5,214.1 792.0,222.9 792.4,234.1 792.9,242.2 793.4,245.4 793.8,245.6 794.3,243.5 794.8,237.1 795.2,229.1 795.7,224.1 796.1,222.1 796.6,220.8 797.1,220.7 797.5,220.8 798.0,220.8 798.5,219.9 798.9,218.9 799.4,217.9 799.8,217.2 800.3,216.9 800.8,216.6 801.2,216.3 801.7,216.0 802.2,215.1 802.6,214.6 803.1,214.6 803.5,214.1 804.0,213.7 804.5,213.5 804.9,213.3 805.4,213.4 805.9,213.7 806.3,214.1 806.8,214.5 807.2,214.6 807.7,214.6 808.2,214.6 808.6,214.6 809.1,214.6 809.6,214.6 810.0,214.6 810.5,214.6 810.9,214.6 811.4,214.6 811.9,214.5 812.3,214.6 812.8,214.5 813.3,214.6 813.7,214.6 814.2,214.6 814.7,214.6 815.1,214.6 815.6,214.6 816.0,214.6 816.5,214.6 817.0,214.6 817.4,214.6 817.9,214.6 818.4,214.6 818.8,214.6 819.3,214.6 819.7,214.6 820.2,214.6 820.7,214.6 821.1,214.6 821.6,214.6 822.1,214.6 822.5,214.5 823.0,214.6 823.4,214.6 823.9,214.5 824.4,214.6 824.8,214.6 825.3,214.5 825.8,214.6 826.2,214.6 826.7,214.6 827.1,214.6 827.6,214.5 828.1,214.6 828.5,214.6 829.0,214.6 829.5,214.6 829.9,214.5 830.4,214.6 830.8,214.6 831.3,214.5 831.8,214.6 832.2,214.6 832.7,214.6 833.2,214.6 833.6,214.6 834.1,214.6 834.5,214.6 835.0,214.6 835.5,214.5 835.9,214.6 836.4,214.6 836.9,214.3 837.3,213.5 837.8,213.4 838.3,213.9 838.7,214.5 839.2,212.9 839.6,210.3 840.1,208.7 840.6,209.7 841.0,213.7 841.5,220.1 842.0,226.9 842.4,233.7 842.9,239.9 843.3,244.8 843.8,246.4 844.3,246.1 844.7,243.5 845.2,237.4 845.7,231.5 846.1,227.7 846.6,225.1 847.0,223.5 847.5,222.5 848.0,221.8 848.4,221.0 848.9,219.8 849.4,219.0 849.8,218.6 850.3,218.7 850.7,218.6 851.2,218.6 851.7,218.7 852.1,218.7 852.6,218.7 853.1,218.7 853.5,218.7 854.0,218.7 854.4,218.7 854.9,218.7 855.4,218.7 855.8,218.7 856.3,218.7 856.8,218.7 857.2,218.7 857.7,218.7 858.1,218.7 858.6,218.7 859.1,218.7 859.5,218.7 860.0,218.7"/><line x1="46.3" y1="200" x2="46.3" y2="310" stroke="#f0a000" stroke-dasharray="4 3"/><line x1="46.3" y1="200" x2="46.3" y2="310" stroke="#f0a000" stroke-dasharray="4 3"/><line x1="46.3" y1="200" x2="46.3" y2="310" stroke="#f0a000" stroke-dasharray="4 3"/><line x1="46.3" y1="200" x2="46.3" y2="310" stroke="#f0a000" stroke-dasharray="4 3"/><line x1="46.3" y1="200" x2="46.3" y2="310" stroke="#f0a000" stroke-dasharray="4 3"/><line x1="46.3" y1="200" x2="46.3" y2="310" stroke="#f0a000" stroke-dasharray="4 3"/><line x1="46.3" y1="200" x2="46.3" y2="310" stroke="#f0a000" stroke-dasharray="4 3"/><line x1="59.7" y1="200" x2="59.7" y2="310" stroke="#f0a000" stroke-dasharray="4 3"/><line x1="79.5" y1="200" x2="79.5" y2="310" stroke="#f0a000" stroke-dasharray="4 3"/><line x1="243.9" y1="200" x2="243.9" y2="310" stroke="#f0a000" stroke-dasharray="4 3"/><line x1="265.3" y1="200" x2="265.3" y2="310" stroke="#f0a000" stroke-dasharray="4 3"/><line x1="390.0" y1="200" x2="390.0" y2="310" stroke="#f0a000" stroke-dasharray="4 3"/><line x1="416.2" y1="200" x2="416.2" y2="310" stroke="#f0a000" stroke-dasharray="4 3"/><line x1="506.5" y1="200" x2="506.5" y2="310" stroke="#f0a000" stroke-dasharray="4 3"/><line x1="528.3" y1="200" x2="528.3" y2="310" stroke="#f0a000" stroke-dasharray="4 3"/><line x1="614.9" y1="200" x2="614.9" y2="310" stroke="#f0a000" stroke-dasharray="4 3"/><line x1="639.3" y1="200" x2="639.3" y2="310" stroke="#f0a000" stroke-dasharray="4 3"/><line x1="716.5" y1="200" x2="716.5" y2="310" stroke="#f0a000" stroke-dasharray="4 3"/><line x1="734.2" y1="200" x2="734.2" y2="310" stroke="#f0a000" stroke-dasharray="4 3"/><line x1="809.5" y1="200" x2="809.5" y2="310" stroke="#f0a000" stroke-dasharray="4 3"/><line x1="832.2" y1="200" x2="832.2" y2="310" stroke="#f0a000" stroke-dasharray="4 3"/><text x="40" y="352" font-size="13" fill="#333">j3 — 입력 L(파랑) vs 출력 P(빨강), [-31°, 64°], 177s</text><rect x="40" y="360" width="820" height="110" fill="none" stroke="#ddd"/><polyline fill="none" stroke="#1f77b4" stroke-width="1.2" points=""/><polyline fill="none" stroke="#d62728" stroke-width="1.2" points="40.0,429.4 40.5,429.4 40.9,429.4 41.4,429.4 41.9,429.4 42.3,429.4 42.8,429.4 43.2,429.4 43.7,429.4 44.2,429.4 44.6,429.4 45.1,429.4 45.6,429.4 46.0,429.4 46.5,429.4 46.9,429.4 47.4,429.4 47.9,429.4 48.3,429.4 48.8,429.4 49.3,429.4 49.7,429.4 50.2,429.4 50.6,429.4 51.1,429.4 51.6,429.4 52.0,429.4 52.5,429.8 53.0,430.6 53.4,430.8 53.9,430.8 54.3,429.9 54.8,429.4 55.3,429.4 55.7,429.4 56.2,429.4 56.7,429.4 57.1,429.4 57.6,429.4 58.0,429.4 58.5,429.4 59.0,429.4 59.4,429.4 59.9,429.4 60.4,429.4 60.8,429.4 61.3,429.4 61.7,429.4 62.2,429.4 62.7,429.4 63.1,429.4 63.6,429.4 64.1,429.4 64.5,429.4 65.0,429.4 65.5,429.4 65.9,429.4 66.4,429.4 66.8,429.4 67.3,429.4 67.8,429.4 68.2,429.4 68.7,429.4 69.2,429.4 69.6,429.4 70.1,429.4 70.5,429.4 71.0,429.4 71.5,429.4 71.9,429.4 72.4,429.4 72.9,429.4 73.3,429.4 73.8,429.4 74.2,429.4 74.7,429.4 75.2,429.4 75.6,429.4 76.1,429.4 76.6,429.4 77.0,429.4 77.5,429.4 77.9,429.4 78.4,429.4 78.9,429.4 79.3,429.4 79.8,429.4 80.3,429.4 80.7,429.4 81.2,429.4 81.6,429.3 82.1,428.4 82.6,427.6 83.0,427.2 83.5,427.2 84.0,427.2 84.4,427.2 84.9,427.1 85.3,426.3 85.8,425.4 86.3,424.3 86.7,422.9 87.2,422.0 87.7,421.4 88.1,420.7 88.6,419.2 89.1,417.0 89.5,414.5 90.0,411.4 90.4,405.9 90.9,400.7 91.4,398.9 91.8,398.9 92.3,399.4 92.8,401.6 93.2,406.2 93.7,413.7 94.1,422.7 94.6,432.4 95.1,441.0 95.5,446.9 96.0,449.5 96.5,449.6 96.9,448.5 97.4,443.9 97.8,436.9 98.3,429.6 98.8,423.4 99.2,417.1 99.7,411.0 100.2,405.8 100.6,401.6 101.1,400.2 101.5,402.3 102.0,407.1 102.5,411.1 102.9,413.5 103.4,414.9 103.9,415.2 104.3,415.2 104.8,415.4 105.2,414.0 105.7,411.5 106.2,409.3 106.6,409.2 107.1,409.8 107.6,410.8 108.0,409.5 108.5,406.1 109.0,403.9 109.4,404.0 109.9,405.5 110.3,408.6 110.8,411.5 111.3,413.1 111.7,413.7 112.2,412.6 112.7,410.8 113.1,410.5 113.6,410.8 114.0,412.0 114.5,414.3 115.0,418.8 115.4,423.8 115.9,428.4 116.4,431.8 116.8,433.4 117.3,434.5 117.7,435.7 118.2,437.4 118.7,438.0 119.1,434.1 119.6,425.0 120.1,415.8 120.5,410.9 121.0,409.9 121.4,410.1 121.9,411.2 122.4,412.4 122.8,413.4 123.3,414.0 123.8,414.7 124.2,415.0 124.7,415.3 125.1,415.4 125.6,415.6 126.1,415.9 126.5,416.7 127.0,418.2 127.5,419.5 127.9,420.2 128.4,420.5 128.8,420.8 129.3,420.9 129.8,420.8 130.2,420.7 130.7,418.2 131.2,413.8 131.6,409.9 132.1,407.6 132.6,407.2 133.0,407.4 133.5,408.6 133.9,410.3 134.4,413.1 134.9,417.6 135.3,422.6 135.8,427.6 136.3,430.2 136.7,431.4 137.2,431.8 137.6,431.4 138.1,429.8 138.6,428.4 139.0,428.5 139.5,430.0 140.0,431.9 140.4,433.1 140.9,433.2 141.3,433.2 141.8,432.9 142.3,431.3 142.7,430.1 143.2,427.6 143.7,422.4 144.1,416.3 144.6,412.0 145.0,410.9 145.5,411.1 146.0,413.5 146.4,418.8 146.9,425.3 147.4,430.6 147.8,434.0 148.3,436.1 148.7,436.9 149.2,437.3 149.7,438.2 150.1,438.8 150.6,438.7 151.1,436.6 151.5,431.1 152.0,428.9 152.4,429.3 152.9,429.5 153.4,429.6 153.8,430.4 154.3,431.7 154.8,432.8 155.2,433.0 155.7,433.9 156.2,436.0 156.6,438.7 157.1,440.5 157.5,440.9 158.0,441.0 158.5,441.0 158.9,441.1 159.4,439.3 159.9,434.1 160.3,427.2 160.8,421.8 161.2,416.7 161.7,409.7 162.2,405.1 162.6,403.7 163.1,403.2 163.6,403.2 164.0,404.8 164.5,410.5 164.9,418.5 165.4,426.9 165.9,435.1 166.3,442.0 166.8,448.0 167.3,452.6 167.7,456.4 168.2,458.5 168.6,458.7 169.1,458.3 169.6,456.6 170.0,453.1 170.5,449.7 171.0,448.2 171.4,447.7 171.9,447.3 172.3,447.1 172.8,447.0 173.3,447.0 173.7,447.9 174.2,448.3 174.7,448.6 175.1,449.1 175.6,449.6 176.0,450.1 176.5,450.1 177.0,450.1 177.4,449.7 177.9,449.0 178.4,448.4 178.8,447.8 179.3,447.1 179.8,446.6 180.2,446.5 180.7,446.5 181.1,446.5 181.6,446.7 182.1,447.1 182.5,447.5 183.0,447.9 183.5,448.5 183.9,448.9 184.4,449.3 184.8,449.3 185.3,449.3 185.8,449.3 186.2,449.0 186.7,447.9 187.2,446.7 187.6,445.9 188.1,445.8 188.5,447.6 189.0,451.8 189.5,455.3 189.9,456.3 190.4,456.6 190.9,456.9 191.3,457.1 191.8,457.1 192.2,457.2 192.7,457.3 193.2,457.3 193.6,457.4 194.1,457.4 194.6,457.5 195.0,457.4 195.5,457.4 195.9,457.6 196.4,457.7 196.9,457.7 197.3,457.7 197.8,457.7 198.3,457.7 198.7,457.7 199.2,457.7 199.7,457.7 200.1,457.7 200.6,457.7 201.0,457.5 201.5,457.2 202.0,457.1 202.4,456.8 202.9,456.4 203.4,456.2 203.8,455.7 204.3,455.4 204.7,455.4 205.2,455.4 205.7,455.4 206.1,455.4 206.6,455.4 207.1,455.4 207.5,455.4 208.0,455.4 208.4,455.4 208.9,455.4 209.4,455.5 209.8,455.5 210.3,455.5 210.8,455.5 211.2,455.5 211.7,455.5 212.1,455.5 212.6,455.5 213.1,455.5 213.5,455.5 214.0,455.5 214.5,455.4 214.9,455.3 215.4,455.3 215.8,455.3 216.3,455.3 216.8,455.3 217.2,455.3 217.7,455.3 218.2,455.3 218.6,455.3 219.1,455.0 219.5,455.0 220.0,455.0 220.5,455.0 220.9,455.1 221.4,456.4 221.9,457.1 222.3,457.1 222.8,456.7 223.3,454.7 223.7,450.5 224.2,445.2 224.6,438.2 225.1,432.3 225.6,429.0 226.0,428.0 226.5,428.5 227.0,429.7 227.4,431.8 227.9,432.9 228.3,433.3 228.8,433.7 229.3,433.8 229.7,434.4 230.2,434.9 230.7,434.9 231.1,434.9 231.6,434.7 232.0,434.5 232.5,434.1 233.0,433.7 233.4,433.5 233.9,433.5 234.4,433.7 234.8,434.7 235.3,435.3 235.7,435.7 236.2,436.4 236.7,436.5 237.1,436.5 237.6,435.7 238.1,434.8 238.5,434.0 239.0,433.5 239.4,433.2 239.9,433.2 240.4,432.9 240.8,432.9 241.3,432.9 241.8,432.9 242.2,432.9 242.7,432.5 243.1,432.4 243.6,432.4 244.1,432.2 244.5,432.1 245.0,432.1 245.5,432.1 245.9,432.1 246.4,431.8 246.9,431.8 247.3,431.8 247.8,431.8 248.2,431.8 248.7,431.8 249.2,431.8 249.6,431.8 250.1,431.8 250.6,431.6 251.0,431.5 251.5,431.5 251.9,431.5 252.4,431.5 252.9,431.5 253.3,431.5 253.8,431.4 254.3,431.2 254.7,430.9 255.2,430.9 255.6,431.1 256.1,431.2 256.6,431.5 257.0,431.5 257.5,431.5 258.0,431.5 258.4,431.5 258.9,431.5 259.3,431.5 259.8,431.5 260.3,431.5 260.7,431.5 261.2,431.5 261.7,431.5 262.1,431.5 262.6,431.5 263.0,431.5 263.5,431.5 264.0,431.5 264.4,431.5 264.9,431.5 265.4,431.5 265.8,431.5 266.3,431.5 266.7,431.5 267.2,431.5 267.7,431.3 268.1,431.1 268.6,430.0 269.1,429.3 269.5,427.0 270.0,422.1 270.5,415.8 270.9,406.9 271.4,396.5 271.8,389.7 272.3,386.7 272.8,386.1 273.2,386.0 273.7,386.0 274.2,386.1 274.6,387.0 275.1,388.3 275.5,390.1 276.0,392.4 276.5,393.4 276.9,393.4 277.4,393.3 277.9,392.5 278.3,391.2 278.8,390.1 279.2,388.1 279.7,387.3 280.2,389.8 280.6,396.3 281.1,404.1 281.6,412.1 282.0,421.0 282.5,431.0 282.9,441.2 283.4,450.3 283.9,458.4 284.3,463.6 284.8,464.3 285.3,460.1 285.7,451.9 286.2,442.9 286.6,433.9 287.1,425.1 287.6,416.2 288.0,408.0 288.5,400.6 289.0,395.0 289.4,391.6 289.9,390.4 290.3,389.8 290.8,389.7 291.3,389.8 291.7,392.5 292.2,398.1 292.7,404.9 293.1,411.9 293.6,420.1 294.1,428.4 294.5,436.2 295.0,441.7 295.4,443.3 295.9,441.7 296.4,435.1 296.8,425.5 297.3,414.6 297.8,403.9 298.2,394.8 298.7,387.3 299.1,380.7 299.6,374.8 300.1,372.0 300.5,371.8 301.0,371.8 301.5,375.2 301.9,381.7 302.4,388.2 302.8,392.6 303.3,395.7 303.8,398.0 304.2,399.8 304.7,402.1 305.2,407.9 305.6,418.7 306.1,431.4 306.5,440.9 307.0,445.8 307.5,446.7 307.9,447.3 308.4,447.6 308.9,447.5 309.3,446.5 309.8,441.0 310.2,430.7 310.7,417.5 311.2,406.5 311.6,398.6 312.1,394.2 312.6,392.2 313.0,392.0 313.5,393.0 314.0,398.8 314.4,406.0 314.9,407.4 315.3,407.1 315.8,406.6 316.3,404.9 316.7,403.5 317.2,403.7 317.7,405.6 318.1,412.2 318.6,420.3 319.0,424.9 319.5,429.0 320.0,432.8 320.4,435.8 320.9,437.2 321.4,437.8 321.8,438.4 322.3,438.1 322.7,437.0 323.2,435.5 323.7,434.3 324.1,433.0 324.6,432.2 325.1,432.6 325.5,433.4 326.0,434.3 326.4,435.4 326.9,435.5 327.4,435.1 327.8,432.5 328.3,428.8 328.8,425.6 329.2,423.6 329.7,422.4 330.1,421.9 330.6,422.0 331.1,423.0 331.5,425.6 332.0,427.7 332.5,428.7 332.9,428.7 333.4,428.5 333.8,427.9 334.3,426.4 334.8,424.8 335.2,423.6 335.7,422.9 336.2,422.3 336.6,422.3 337.1,423.1 337.6,423.6 338.0,423.8 338.5,423.9 338.9,423.9 339.4,423.9 339.9,423.6 340.3,423.2 340.8,422.4 341.3,421.4 341.7,420.8 342.2,420.5 342.6,420.9 343.1,421.8 343.6,422.7 344.0,423.1 344.5,423.4 345.0,423.6 345.4,423.9 345.9,423.8 346.3,423.9 346.8,423.9 347.3,423.7 347.7,423.3 348.2,422.5 348.7,422.2 349.1,422.0 349.6,422.3 350.0,423.6 350.5,424.4 351.0,424.7 351.4,424.7 351.9,424.7 352.4,424.6 352.8,424.7 353.3,424.6 353.7,424.5 354.2,424.3 354.7,424.3 355.1,424.2 355.6,424.2 356.1,424.2 356.5,424.2 357.0,424.2 357.4,424.2 357.9,424.1 358.4,424.2 358.8,424.2 359.3,424.2 359.8,424.2 360.2,424.1 360.7,424.0 361.2,423.8 361.6,423.8 362.1,423.6 362.5,423.4 363.0,423.3 363.5,423.2 363.9,423.2 364.4,423.2 364.9,423.2 365.3,423.1 365.8,422.9 366.2,422.7 366.7,422.4 367.2,422.4 367.6,422.3 368.1,422.4 368.6,422.4 369.0,422.4 369.5,422.4 369.9,422.3 370.4,422.2 370.9,422.1 371.3,422.1 371.8,422.2 372.3,422.1 372.7,422.1 373.2,421.9 373.6,421.8 374.1,421.4 374.6,421.3 375.0,421.0 375.5,420.6 376.0,421.0 376.4,422.1 376.9,423.7 377.3,427.6 377.8,433.6 378.3,438.9 378.7,442.6 379.2,441.5 379.7,433.0 380.1,426.0 380.6,421.8 381.0,420.8 381.5,421.5 382.0,424.0 382.4,427.9 382.9,429.3 383.4,429.7 383.8,430.6 384.3,431.1 384.8,431.4 385.2,431.4 385.7,431.4 386.1,431.2 386.6,430.1 387.1,429.4 387.5,429.4 388.0,429.4 388.5,429.4 388.9,429.4 389.4,429.4 389.8,429.4 390.3,429.4 390.8,429.4 391.2,429.4 391.7,429.5 392.2,429.4 392.6,429.4 393.1,429.5 393.5,429.4 394.0,430.2 394.5,430.8 394.9,430.8 395.4,430.8 395.9,431.1 396.3,431.2 396.8,431.4 397.2,431.4 397.7,431.5 398.2,431.7 398.6,431.7 399.1,431.7 399.6,431.7 400.0,431.7 400.5,431.7 400.9,431.7 401.4,431.7 401.9,431.7 402.3,431.7 402.8,431.7 403.3,431.7 403.7,431.7 404.2,431.7 404.7,431.7 405.1,431.7 405.6,431.7 406.0,431.7 406.5,431.7 407.0,431.7 407.4,431.7 407.9,431.7 408.4,431.7 408.8,431.7 409.3,431.7 409.7,431.7 410.2,431.7 410.7,431.7 411.1,431.7 411.6,431.7 412.1,431.5 412.5,431.4 413.0,431.4 413.4,431.4 413.9,431.4 414.4,431.4 414.8,431.4 415.3,431.4 415.8,431.4 416.2,431.4 416.7,431.4 417.1,431.4 417.6,431.4 418.1,431.2 418.5,431.1 419.0,431.0 419.5,430.0 419.9,429.3 420.4,427.3 420.8,422.9 421.3,417.6 421.8,412.0 422.2,405.2 422.7,397.7 423.2,392.5 423.6,390.7 424.1,390.5 424.5,390.8 425.0,391.6 425.5,393.5 425.9,397.0 426.4,402.0 426.9,407.3 427.3,412.9 427.8,417.9 428.3,422.0 428.7,425.1 429.2,428.2 429.6,431.0 430.1,433.1 430.6,435.5 431.0,438.6 431.5,441.0 432.0,441.7 432.4,441.3 432.9,439.4 433.3,434.5 433.8,426.5 434.3,417.2 434.7,407.1 435.2,396.9 435.7,387.2 436.1,380.6 436.6,375.6 437.0,372.2 437.5,369.0 438.0,367.1 438.4,366.8 438.9,367.9 439.4,374.1 439.8,384.4 440.3,398.8 440.7,412.6 441.2,422.9 441.7,430.7 442.1,437.1 442.6,442.9 443.1,448.8 443.5,453.4 444.0,455.6 444.4,456.8 444.9,456.9 445.4,451.4 445.8,439.1 446.3,425.7 446.8,412.9 447.2,400.7 447.7,387.6 448.1,376.7 448.6,371.6 449.1,371.4 449.5,375.5 450.0,385.3 450.5,397.5 450.9,408.3 451.4,417.2 451.9,423.8 452.3,429.6 452.8,435.2 453.2,437.6 453.7,437.2 454.2,435.0 454.6,426.7 455.1,412.8 455.6,400.3 456.0,390.2 456.5,383.2 456.9,379.7 457.4,379.3 457.9,379.7 458.3,382.9 458.8,388.0 459.3,393.8 459.7,400.4 460.2,408.6 460.6,412.2 461.1,411.8 461.6,410.6 462.0,408.1 462.5,404.1 463.0,400.7 463.4,400.2 463.9,400.5 464.3,401.8 464.8,404.3 465.3,409.3 465.7,416.5 466.2,422.6 466.7,425.2 467.1,426.2 467.6,426.2 468.0,424.9 468.5,422.1 469.0,418.5 469.4,416.1 469.9,416.5 470.4,420.0 470.8,424.5 471.3,433.1 471.7,447.8 472.2,460.1 472.7,465.2 473.1,466.1 473.6,465.7 474.1,462.0 474.5,455.0 475.0,447.8 475.5,440.7 475.9,432.7 476.4,426.3 476.8,422.6 477.3,419.5 477.8,415.3 478.2,409.9 478.7,404.1 479.2,400.1 479.6,397.2 480.1,395.4 480.5,394.5 481.0,395.3 481.5,402.4 481.9,415.5 482.4,427.5 482.9,438.5 483.3,448.7 483.8,455.5 484.2,457.8 484.7,457.8 485.2,457.3 485.6,457.9 486.1,463.1 486.6,469.2 487.0,469.9 487.5,467.7 487.9,463.7 488.4,459.8 488.9,456.4 489.3,453.0 489.8,449.8 490.3,447.5 490.7,445.7 491.2,444.8 491.6,443.8 492.1,442.3 492.6,440.9 493.0,439.8 493.5,438.8 494.0,437.7 494.4,436.8 494.9,435.7 495.3,434.2 495.8,433.1 496.3,431.8 496.7,430.0 497.2,429.4 497.7,429.4 498.1,429.4 498.6,429.4 499.1,429.4 499.5,429.4 500.0,429.4 500.4,429.4 500.9,429.4 501.4,429.4 501.8,429.4 502.3,429.4 502.8,429.4 503.2,429.4 503.7,429.4 504.1,429.4 504.6,429.4 505.1,429.4 505.5,429.4 506.0,429.4 506.5,429.4 506.9,429.4 507.4,429.4 507.8,429.4 508.3,429.4 508.8,429.4 509.2,429.4 509.7,429.4 510.2,429.4 510.6,429.4 511.1,429.4 511.5,429.4 512.0,429.4 512.5,429.4 512.9,429.4 513.4,429.4 513.9,429.4 514.3,429.4 514.8,429.4 515.2,429.4 515.7,429.4 516.2,429.4 516.6,429.4 517.1,429.4 517.6,429.4 518.0,429.4 518.5,429.4 519.0,429.4 519.4,429.4 519.9,429.4 520.3,429.4 520.8,429.4 521.3,429.4 521.7,429.4 522.2,429.4 522.7,429.4 523.1,429.4 523.6,429.4 524.0,429.4 524.5,429.4 525.0,429.4 525.4,429.4 525.9,429.4 526.4,429.4 526.8,429.4 527.3,429.4 527.7,429.4 528.2,429.4 528.7,429.4 529.1,429.4 529.6,429.4 530.1,429.4 530.5,429.4 531.0,429.4 531.4,429.2 531.9,427.8 532.4,423.0 532.8,413.9 533.3,403.7 533.8,394.8 534.2,388.2 534.7,384.4 535.1,383.4 535.6,383.9 536.1,387.7 536.5,394.6 537.0,401.8 537.5,408.3 537.9,414.4 538.4,419.8 538.8,424.7 539.3,429.4 539.8,433.2 540.2,436.5 540.7,438.3 541.2,439.0 541.6,439.0 542.1,436.5 542.6,430.2 543.0,420.3 543.5,408.4 543.9,396.2 544.4,384.4 544.9,375.3 545.3,368.6 545.8,365.7 546.3,366.2 546.7,370.7 547.2,382.3 547.6,397.5 548.1,412.7 548.6,425.1 549.0,431.7 549.5,434.8 550.0,436.1 550.4,435.7 550.9,432.1 551.3,425.6 551.8,416.3 552.3,405.1 552.7,393.2 553.2,382.6 553.7,377.1 554.1,376.8 554.6,380.5 555.0,390.7 555.5,405.4 556.0,418.8 556.4,428.3 556.9,431.8 557.4,432.4 557.8,432.4 558.3,430.5 558.7,423.2 559.2,410.8 559.7,394.5 560.1,381.8 560.6,375.0 561.1,372.7 561.5,376.2 562.0,386.6 562.4,402.1 562.9,416.1 563.4,425.1 563.8,427.6 564.3,427.3 564.8,425.9 565.2,421.7 565.7,414.4 566.2,405.2 566.6,394.6 567.1,383.6 567.5,378.0 568.0,378.6 568.5,384.1 568.9,394.0 569.4,406.4 569.9,417.0 570.3,422.3 570.8,424.7 571.2,425.8 571.7,425.5 572.2,423.2 572.6,417.8 573.1,409.5 573.6,398.5 574.0,387.6 574.5,380.1 574.9,376.2 575.4,376.1 575.9,378.2 576.3,384.4 576.8,393.9 577.3,404.9 577.7,416.2 578.2,427.7 578.6,434.4 579.1,436.2 579.6,435.9 580.0,435.1 580.5,434.0 581.0,432.0 581.4,428.6 581.9,425.5 582.3,427.7 582.8,436.7 583.3,447.3 583.7,454.6 584.2,455.0 584.7,453.6 585.1,449.1 585.6,442.3 586.0,435.6 586.5,434.1 587.0,435.0 587.4,439.5 587.9,447.1 588.4,450.7 588.8,448.8 589.3,444.1 589.8,439.0 590.2,434.8 590.7,433.1 591.1,432.8 591.6,432.8 592.1,433.5 592.5,434.4 593.0,435.0 593.5,435.6 593.9,436.0 594.4,436.0 594.8,436.0 595.3,436.0 595.8,435.5 596.2,434.8 596.7,433.9 597.2,433.2 597.6,432.4 598.1,430.8 598.5,429.6 599.0,428.9 599.5,427.9 599.9,427.3 600.4,427.3 600.9,427.5 601.3,428.1 601.8,429.1 602.2,429.4 602.7,429.4 603.2,429.4 603.6,429.4 604.1,429.4 604.6,429.4 605.0,429.4 605.5,429.4 605.9,429.4 606.4,429.4 606.9,429.4 607.3,429.4 607.8,429.4 608.3,429.4 608.7,429.4 609.2,429.4 609.7,429.4 610.1,429.4 610.6,429.4 611.0,429.4 611.5,429.4 612.0,429.4 612.4,429.4 612.9,429.4 613.4,429.4 613.8,429.4 614.3,429.4 614.7,429.4 615.2,429.4 615.7,429.4 616.1,429.4 616.6,429.4 617.1,429.4 617.5,429.4 618.0,429.4 618.4,429.4 618.9,429.4 619.4,429.4 619.8,429.4 620.3,429.4 620.8,429.4 621.2,429.4 621.7,429.4 622.1,429.4 622.6,429.4 623.1,429.4 623.5,429.4 624.0,429.4 624.5,429.4 624.9,429.4 625.4,429.4 625.8,429.4 626.3,429.4 626.8,429.4 627.2,429.4 627.7,429.4 628.2,429.4 628.6,429.4 629.1,429.4 629.5,429.4 630.0,429.4 630.5,429.4 630.9,429.4 631.4,429.4 631.9,429.4 632.3,429.4 632.8,429.4 633.3,429.4 633.7,429.4 634.2,429.4 634.6,429.4 635.1,429.4 635.6,429.4 636.0,429.4 636.5,429.4 637.0,429.4 637.4,429.4 637.9,429.4 638.3,429.4 638.8,429.4 639.3,429.4 639.7,429.4 640.2,429.4 640.7,429.4 641.1,429.4 641.6,429.3 642.0,427.4 642.5,421.9 643.0,415.6 643.4,408.4 643.9,398.6 644.4,390.7 644.8,387.7 645.3,386.7 645.7,385.8 646.2,384.9 646.7,384.7 647.1,386.0 647.6,391.7 648.1,401.5 648.5,411.1 649.0,414.9 649.4,413.3 649.9,404.5 650.4,394.1 650.8,386.6 651.3,378.4 651.8,369.5 652.2,362.5 652.7,360.0 653.1,360.7 653.6,365.2 654.1,373.0 654.5,384.0 655.0,399.4 655.5,415.1 655.9,426.2 656.4,432.8 656.9,435.2 657.3,433.0 657.8,421.1 658.2,403.8 658.7,390.7 659.2,384.4 659.6,381.9 660.1,377.7 660.6,372.3 661.0,368.7 661.5,367.9 661.9,368.2 662.4,370.0 662.9,372.7 663.3,373.7 663.8,373.5 664.3,373.4 664.7,373.4 665.2,373.8 665.6,375.8 666.1,377.9 666.6,377.8 667.0,376.9 667.5,374.7 668.0,372.4 668.4,371.5 668.9,372.0 669.3,374.0 669.8,377.3 670.3,381.1 670.7,384.9 671.2,389.2 671.7,394.8 672.1,404.8 672.6,417.4 673.0,428.1 673.5,433.6 674.0,432.6 674.4,423.0 674.9,406.4 675.4,391.4 675.8,381.9 676.3,375.8 676.7,371.1 677.2,366.9 677.7,362.6 678.1,360.6 678.6,360.4 679.1,362.0 679.5,365.8 680.0,370.7 680.5,378.3 680.9,390.7 681.4,404.3 681.8,417.5 682.3,429.2 682.8,434.6 683.2,434.0 683.7,425.1 684.2,409.2 684.6,396.7 685.1,390.6 685.5,386.7 686.0,382.8 686.5,379.7 686.9,379.6 687.4,385.5 687.9,394.5 688.3,400.3 688.8,403.4 689.2,404.7 689.7,404.2 690.2,401.4 690.6,396.3 691.1,390.8 691.6,387.2 692.0,385.0 692.5,382.9 692.9,381.5 693.4,381.8 693.9,385.4 694.3,390.8 694.8,399.3 695.3,410.1 695.7,417.0 696.2,421.6 696.6,423.6 697.1,424.9 697.6,425.1 698.0,424.6 698.5,424.0 699.0,423.8 699.4,424.0 699.9,424.3 700.3,424.7 700.8,424.9 701.3,425.0 701.7,424.8 702.2,424.5 702.7,423.8 703.1,423.0 703.6,422.1 704.1,421.9 704.5,421.6 705.0,420.9 705.4,420.8 705.9,420.8 706.4,420.7 706.8,420.3 707.3,419.9 707.8,419.6 708.2,419.1 708.7,418.7 709.1,418.7 709.6,418.8 710.1,419.0 710.5,419.0 711.0,419.0 711.5,419.0 711.9,419.0 712.4,419.0 712.8,419.0 713.3,419.0 713.8,419.0 714.2,419.0 714.7,419.0 715.2,419.0 715.6,419.0 716.1,419.0 716.5,419.0 717.0,418.8 717.5,418.7 717.9,418.7 718.4,418.7 718.9,418.7 719.3,418.7 719.8,418.9 720.2,419.0 720.7,419.0 721.2,419.0 721.6,419.0 722.1,419.0 722.6,419.0 723.0,419.0 723.5,419.0 724.0,419.2 724.4,419.3 724.9,419.3 725.3,419.4 725.8,419.6 726.3,419.6 726.7,419.6 727.2,419.6 727.7,419.6 728.1,419.6 728.6,419.6 729.0,419.6 729.5,419.6 730.0,419.6 730.4,419.6 730.9,419.6 731.4,419.6 731.8,419.6 732.3,419.6 732.7,419.6 733.2,419.6 733.7,419.6 734.1,419.6 734.6,419.6 735.1,419.6 735.5,419.6 736.0,419.6 736.4,419.5 736.9,418.6 737.4,415.7 737.8,407.8 738.3,396.5 738.8,387.0 739.2,382.5 739.7,380.7 740.1,380.0 740.6,380.7 741.1,384.0 741.5,391.0 742.0,399.7 742.5,407.1 742.9,409.7 743.4,408.8 743.8,403.4 744.3,397.0 744.8,394.0 745.2,392.6 745.7,390.9 746.2,389.0 746.6,387.6 747.1,387.2 747.6,387.9 748.0,390.5 748.5,396.2 748.9,402.4 749.4,406.3 749.9,408.0 750.3,407.5 750.8,407.1 751.3,403.5 751.7,399.3 752.2,396.4 752.6,393.5 753.1,390.4 753.6,387.7 754.0,386.8 754.5,386.6 755.0,387.8 755.4,391.0 755.9,396.4 756.3,402.9 756.8,408.1 757.3,414.4 757.7,421.6 758.2,425.0 758.7,425.3 759.1,424.6 759.6,423.4 760.0,420.4 760.5,415.4 761.0,409.8 761.4,404.7 761.9,401.2 762.4,399.1 762.8,398.2 763.3,397.9 763.7,398.0 764.2,399.3 764.7,400.2 765.1,401.3 765.6,402.3 766.1,403.2 766.5,404.0 767.0,404.2 767.4,403.9 767.9,403.5 768.4,402.9 768.8,402.4 769.3,402.1 769.8,401.9 770.2,401.9 770.7,401.5 771.2,401.3 771.6,401.2 772.1,401.3 772.5,401.2 773.0,400.8 773.5,400.5 773.9,400.5 774.4,400.4 774.9,400.4 775.3,400.4 775.8,400.4 776.2,400.4 776.7,400.5 777.2,400.4 777.6,400.4 778.1,400.4 778.6,400.4 779.0,400.6 779.5,401.1 779.9,402.8 780.4,406.7 780.9,411.3 781.3,415.0 781.8,418.6 782.3,422.5 782.7,427.6 783.2,433.7 783.6,438.1 784.1,440.0 784.6,440.9 785.0,441.8 785.5,443.1 786.0,444.1 786.4,444.7 786.9,445.2 787.3,445.8 787.8,446.1 788.3,446.3 788.7,446.4 789.2,446.2 789.7,445.7 790.1,444.6 790.6,442.8 791.0,441.7 791.5,441.3 792.0,441.5 792.4,442.5 792.9,442.8 793.4,438.9 793.8,432.8 794.3,430.1 794.8,430.9 795.2,433.8 795.7,437.1 796.1,439.0 796.6,439.8 797.1,440.4 797.5,441.6 798.0,442.9 798.5,443.1 798.9,442.7 799.4,441.6 799.8,440.3 800.3,439.6 800.8,439.0 801.2,438.4 801.7,437.9 802.2,437.4 802.6,436.6 803.1,435.9 803.5,435.2 804.0,434.7 804.5,434.5 804.9,434.5 805.4,434.5 805.9,434.5 806.3,434.7 806.8,435.0 807.2,435.4 807.7,435.6 808.2,436.0 808.6,436.0 809.1,436.0 809.6,436.0 810.0,435.6 810.5,435.4 810.9,435.4 811.4,435.1 811.9,434.9 812.3,434.8 812.8,434.8 813.3,434.8 813.7,434.8 814.2,434.6 814.7,434.5 815.1,434.5 815.6,434.5 816.0,434.6 816.5,434.6 817.0,434.5 817.4,434.3 817.9,434.2 818.4,434.2 818.8,434.2 819.3,434.2 819.7,434.2 820.2,434.2 820.7,434.2 821.1,434.2 821.6,434.2 822.1,434.2 822.5,434.2 823.0,434.2 823.4,434.2 823.9,434.2 824.4,434.2 824.8,434.2 825.3,434.2 825.8,434.2 826.2,434.2 826.7,434.2 827.1,434.2 827.6,434.1 828.1,433.9 828.5,433.9 829.0,433.9 829.5,433.9 829.9,433.7 830.4,433.6 830.8,433.5 831.3,433.3 831.8,433.3 832.2,433.3 832.7,433.3 833.2,433.2 833.6,433.0 834.1,433.0 834.5,433.0 835.0,433.1 835.5,433.5 835.9,434.4 836.4,436.0 836.9,438.6 837.3,441.8 837.8,444.1 838.3,446.8 838.7,450.2 839.2,452.7 839.6,455.8 840.1,459.7 840.6,463.4 841.0,465.0 841.5,465.8 842.0,466.1 842.4,465.9 842.9,465.5 843.3,463.1 843.8,460.1 844.3,457.8 844.7,456.0 845.2,454.0 845.7,450.2 846.1,444.3 846.6,438.1 847.0,433.5 847.5,430.0 848.0,429.6 848.4,428.8 848.9,427.7 849.4,426.8 849.8,426.2 850.3,425.7 850.7,425.5 851.2,425.3 851.7,425.3 852.1,425.3 852.6,425.3 853.1,425.3 853.5,425.3 854.0,425.3 854.4,425.3 854.9,425.3 855.4,425.3 855.8,425.3 856.3,425.3 856.8,425.3 857.2,425.3 857.7,425.3 858.1,425.3 858.6,425.3 859.1,425.3 859.5,425.3 860.0,425.3"/><line x1="46.3" y1="360" x2="46.3" y2="470" stroke="#f0a000" stroke-dasharray="4 3"/><line x1="46.3" y1="360" x2="46.3" y2="470" stroke="#f0a000" stroke-dasharray="4 3"/><line x1="46.3" y1="360" x2="46.3" y2="470" stroke="#f0a000" stroke-dasharray="4 3"/><line x1="46.3" y1="360" x2="46.3" y2="470" stroke="#f0a000" stroke-dasharray="4 3"/><line x1="46.3" y1="360" x2="46.3" y2="470" stroke="#f0a000" stroke-dasharray="4 3"/><line x1="46.3" y1="360" x2="46.3" y2="470" stroke="#f0a000" stroke-dasharray="4 3"/><line x1="46.3" y1="360" x2="46.3" y2="470" stroke="#f0a000" stroke-dasharray="4 3"/><line x1="59.7" y1="360" x2="59.7" y2="470" stroke="#f0a000" stroke-dasharray="4 3"/><line x1="79.5" y1="360" x2="79.5" y2="470" stroke="#f0a000" stroke-dasharray="4 3"/><line x1="243.9" y1="360" x2="243.9" y2="470" stroke="#f0a000" stroke-dasharray="4 3"/><line x1="265.3" y1="360" x2="265.3" y2="470" stroke="#f0a000" stroke-dasharray="4 3"/><line x1="390.0" y1="360" x2="390.0" y2="470" stroke="#f0a000" stroke-dasharray="4 3"/><line x1="416.2" y1="360" x2="416.2" y2="470" stroke="#f0a000" stroke-dasharray="4 3"/><line x1="506.5" y1="360" x2="506.5" y2="470" stroke="#f0a000" stroke-dasharray="4 3"/><line x1="528.3" y1="360" x2="528.3" y2="470" stroke="#f0a000" stroke-dasharray="4 3"/><line x1="614.9" y1="360" x2="614.9" y2="470" stroke="#f0a000" stroke-dasharray="4 3"/><line x1="639.3" y1="360" x2="639.3" y2="470" stroke="#f0a000" stroke-dasharray="4 3"/><line x1="716.5" y1="360" x2="716.5" y2="470" stroke="#f0a000" stroke-dasharray="4 3"/><line x1="734.2" y1="360" x2="734.2" y2="470" stroke="#f0a000" stroke-dasharray="4 3"/><line x1="809.5" y1="360" x2="809.5" y2="470" stroke="#f0a000" stroke-dasharray="4 3"/><line x1="832.2" y1="360" x2="832.2" y2="470" stroke="#f0a000" stroke-dasharray="4 3"/></svg>