<svg xmlns="http://www.w3.org/2000/svg" width="900" height="520" font-family="sans-serif"><text x="40" y="32" font-size="13" fill="#333">j1 — 입력 L(파랑) vs 출력 P(빨강), [10°, 79°], 35s</text><rect x="40" y="40" width="820" height="110" fill="none" stroke="#ddd"/><polyline fill="none" stroke="#1f77b4" stroke-width="1.2" points=""/><polyline fill="none" stroke="#d62728" stroke-width="1.2" points="40.0,150.0 41.2,150.0 42.4,150.0 43.5,150.0 44.7,150.0 45.9,150.0 47.1,150.0 48.3,150.0 49.4,150.0 50.6,150.0 51.8,150.0 53.0,150.0 54.2,150.0 55.3,150.0 56.5,150.0 57.7,150.0 58.9,150.0 60.1,150.0 61.2,150.0 62.4,150.0 63.6,150.0 64.8,150.0 66.0,150.0 67.1,150.0 68.3,150.0 69.5,150.0 70.7,150.0 71.9,150.0 73.0,150.0 74.2,150.0 75.4,150.0 76.6,150.0 77.8,150.0 78.9,150.0 80.1,150.0 81.3,150.0 82.5,150.0 83.7,150.0 84.8,150.0 86.0,150.0 87.2,150.0 88.4,149.9 89.6,149.6 90.7,149.0 91.9,148.9 93.1,148.6 94.3,148.6 95.5,148.6 96.6,148.5 97.8,148.5 99.0,148.5 100.2,148.3 101.4,148.3 102.5,148.5 103.7,148.5 104.9,148.3 106.1,148.5 107.3,148.3 108.4,148.3 109.6,148.5 110.8,148.3 112.0,148.5 113.2,148.3 114.3,148.3 115.5,148.3 116.7,148.0 117.9,147.3 119.1,146.1 120.2,144.7 121.4,143.3 122.6,142.1 123.8,141.3 124.9,140.6 126.1,139.7 127.3,138.8 128.5,137.3 129.7,136.0 130.8,134.3 132.0,132.7 133.2,131.1 134.4,129.1 135.6,126.4 136.7,123.3 137.9,119.3 139.1,114.8 140.3,110.2 141.5,106.2 142.6,102.3 143.8,98.9 145.0,96.7 146.2,96.4 147.4,96.4 148.5,96.5 149.7,97.9 150.9,100.9 152.1,104.7 153.3,109.2 154.4,114.2 155.6,119.0 156.8,123.6 158.0,127.4 159.2,130.8 160.3,133.3 161.5,135.4 162.7,137.2 163.9,138.2 165.1,138.5 166.2,138.6 167.4,138.8 168.6,138.6 169.8,138.6 171.0,138.5 172.1,138.1 173.3,137.7 174.5,137.0 175.7,136.2 176.9,135.4 178.0,134.7 179.2,134.3 180.4,134.0 181.6,133.8 182.8,133.7 183.9,133.7 185.1,133.5 186.3,133.2 187.5,132.8 188.7,132.6 189.8,132.2 191.0,131.8 192.2,131.1 193.4,130.5 194.6,129.8 195.7,129.1 196.9,128.4 198.1,127.8 199.3,127.6 200.5,127.3 201.6,126.8 202.8,126.8 204.0,126.4 205.2,126.0 206.4,125.6 207.5,125.3 208.7,124.9 209.9,124.8 211.1,124.7 212.3,124.7 213.4,124.7 214.6,124.7 215.8,124.7 217.0,124.7 218.2,124.7 219.3,124.7 220.5,124.6 221.7,124.5 222.9,124.2 224.1,123.9 225.2,123.8 226.4,123.6 227.6,123.6 228.8,123.5 230.0,122.9 231.1,122.4 232.3,121.7 233.5,121.5 234.7,120.8 235.9,120.0 237.0,119.4 238.2,119.0 239.4,118.3 240.6,117.7 241.8,117.1 242.9,116.4 244.1,115.8 245.3,115.3 246.5,114.7 247.7,113.8 248.8,112.8 250.0,112.1 251.2,112.0 252.4,112.0 253.6,112.0 254.7,112.3 255.9,113.4 257.1,115.0 258.3,116.6 259.5,117.9 260.6,118.9 261.8,118.9 263.0,118.9 264.2,118.9 265.4,118.9 266.5,118.9 267.7,118.9 268.9,118.9 270.1,118.9 271.3,118.7 272.4,118.6 273.6,118.6 274.8,118.6 276.0,118.6 277.2,118.6 278.3,118.6 279.5,118.6 280.7,118.6 281.9,118.6 283.1,118.6 284.2,118.6 285.4,118.6 286.6,118.6 287.8,118.6 288.9,118.6 290.1,118.7 291.3,118.9 292.5,119.0 293.7,119.3 294.8,119.7 296.0,119.8 297.2,120.0 298.4,120.0 299.6,120.3 300.7,120.4 301.9,120.4 303.1,120.4 304.3,120.4 305.5,120.4 306.6,120.4 307.8,120.4 309.0,120.4 310.2,120.4 311.4,120.4 312.5,120.4 313.7,120.4 314.9,120.4 316.1,120.5 317.3,120.5 318.4,120.5 319.6,120.5 320.8,120.5 322.0,120.5 323.2,120.5 324.3,120.5 325.5,120.5 326.7,120.5 327.9,120.5 329.1,120.5 330.2,120.5 331.4,120.5 332.6,120.5 333.8,120.4 335.0,120.4 336.1,120.4 337.3,120.4 338.5,120.4 339.7,120.4 340.9,120.4 342.0,120.4 343.2,120.4 344.4,120.4 345.6,120.4 346.8,120.4 347.9,120.4 349.1,120.4 350.3,120.4 351.5,120.4 352.7,120.4 353.8,120.4 355.0,120.4 356.2,120.4 357.4,120.4 358.6,120.4 359.7,120.4 360.9,120.4 362.1,120.5 363.3,121.8 364.5,123.3 365.6,125.3 366.8,127.4 368.0,129.5 369.2,131.3 370.4,133.0 371.5,134.7 372.7,136.0 373.9,137.1 375.1,138.0 376.3,138.7 377.4,139.2 378.6,139.9 379.8,140.4 381.0,140.9 382.2,141.2 383.3,141.2 384.5,141.2 385.7,141.2 386.9,141.2 388.1,141.2 389.2,141.2 390.4,140.9 391.6,140.2 392.8,138.7 394.0,136.7 395.1,134.5 396.3,132.3 397.5,130.6 398.7,128.9 399.9,127.3 401.0,125.6 402.2,123.7 403.4,121.7 404.6,119.6 405.8,117.4 406.9,115.5 408.1,113.5 409.3,112.1 410.5,111.3 411.7,110.9 412.8,110.9 414.0,110.6 415.2,110.3 416.4,109.9 417.6,109.2 418.7,108.9 419.9,108.6 421.1,108.5 422.3,108.0 423.5,107.3 424.6,106.4 425.8,105.2 427.0,103.8 428.2,102.3 429.4,100.4 430.5,98.7 431.7,97.5 432.9,97.2 434.1,97.2 435.3,97.0 436.4,96.2 437.6,95.8 438.8,95.7 440.0,95.8 441.2,97.5 442.3,99.9 443.5,102.9 444.7,105.8 445.9,108.4 447.1,110.8 448.2,112.8 449.4,114.2 450.6,115.1 451.8,115.7 452.9,115.8 454.1,115.8 455.3,115.6 456.5,115.5 457.7,115.3 458.8,115.2 460.0,114.9 461.2,114.5 462.4,114.0 463.6,113.5 464.7,113.4 465.9,113.2 467.1,113.2 468.3,112.8 469.5,112.5 470.6,112.1 471.8,111.8 473.0,111.4 474.2,111.3 475.4,111.0 476.5,110.9 477.7,110.6 478.9,110.4 480.1,110.3 481.3,110.1 482.4,109.8 483.6,109.3 484.8,109.2 486.0,109.2 487.2,109.0 488.3,108.5 489.5,108.0 490.7,107.4 491.9,106.8 493.1,106.2 494.2,105.8 495.4,105.4 496.6,105.3 497.8,105.2 499.0,105.2 500.1,105.2 501.3,105.2 502.5,105.2 503.7,105.2 504.9,105.2 506.0,105.2 507.2,105.2 508.4,105.2 509.6,105.2 510.8,105.2 511.9,105.2 513.1,105.2 514.3,105.4 515.5,106.5 516.7,107.9 517.8,109.8 519.0,111.1 520.2,111.4 521.4,111.6 522.6,111.6 523.7,111.4 524.9,111.3 526.1,110.8 527.3,110.3 528.5,109.5 529.6,108.8 530.8,108.3 532.0,108.0 533.2,108.0 534.4,108.0 535.5,108.0 536.7,108.0 537.9,108.0 539.1,108.0 540.3,108.0 541.4,108.0 542.6,108.0 543.8,108.0 545.0,108.0 546.2,107.5 547.3,107.0 548.5,106.1 549.7,105.2 550.9,104.4 552.1,104.0 553.2,103.3 554.4,102.7 555.6,102.2 556.8,101.9 558.0,101.3 559.1,100.2 560.3,99.5 561.5,98.8 562.7,98.2 563.9,97.9 565.0,97.9 566.2,97.9 567.4,97.9 568.6,97.9 569.8,97.9 570.9,97.9 572.1,97.9 573.3,97.9 574.5,97.9 575.7,97.9 576.8,97.9 578.0,97.9 579.2,98.2 580.4,98.8 581.6,99.1 582.7,99.6 583.9,99.8 585.1,100.1 586.3,100.2 587.5,100.2 588.6,100.2 589.8,100.2 591.0,100.2 592.2,100.2 593.4,100.2 594.5,100.2 595.7,100.2 596.9,100.2 598.1,100.2 599.3,100.2 600.4,100.2 601.6,100.2 602.8,100.2 604.0,100.2 605.2,100.5 606.3,101.5 607.5,102.7 608.7,104.1 609.9,105.4 611.1,106.2 612.2,106.6 613.4,107.2 614.6,107.3 615.8,107.3 616.9,107.5 618.1,107.6 619.3,108.1 620.5,108.2 621.7,108.5 622.8,108.9 624.0,109.4 625.2,109.8 626.4,110.7 627.6,111.9 628.7,113.1 629.9,114.6 631.1,116.3 632.3,117.7 633.5,119.4 634.6,119.9 635.8,120.0 637.0,120.1 638.2,120.0 639.4,120.0 640.5,120.1 641.7,120.1 642.9,120.1 644.1,120.1 645.3,120.1 646.4,120.4 647.6,121.4 648.8,123.2 650.0,125.2 651.2,127.4 652.3,129.1 653.5,130.5 654.7,131.3 655.9,131.5 657.1,131.3 658.2,131.2 659.4,131.2 660.6,131.2 661.8,130.4 663.0,128.2 664.1,124.9 665.3,120.1 666.5,114.4 667.7,108.4 668.9,103.1 670.0,98.1 671.2,93.9 672.4,89.9 673.6,86.9 674.8,83.8 675.9,81.0 677.1,77.8 678.3,74.2 679.5,70.1 680.7,65.9 681.8,61.2 683.0,56.6 684.2,52.1 685.4,48.7 686.6,45.9 687.7,44.3 688.9,43.5 690.1,43.4 691.3,43.4 692.5,43.4 693.6,43.4 694.8,43.5 696.0,44.8 697.2,47.9 698.4,51.3 699.5,54.3 700.7,56.5 701.9,58.2 703.1,59.8 704.3,61.0 705.4,61.6 706.6,61.7 707.8,61.7 709.0,61.6 710.2,61.5 711.3,60.7 712.5,59.1 713.7,56.7 714.9,53.9 716.1,51.6 717.2,49.5 718.4,47.4 719.6,45.6 720.8,43.8 722.0,42.2 723.1,40.8 724.3,40.0 725.5,40.0 726.7,40.0 727.9,40.0 729.0,40.4 730.2,43.3 731.4,48.8 732.6,56.2 733.8,63.9 734.9,71.5 736.1,79.0 737.3,85.5 738.5,90.8 739.7,95.3 740.8,99.0 742.0,102.6 743.2,106.5 744.4,110.7 745.6,115.4 746.7,120.3 747.9,125.2 749.1,129.9 750.3,134.4 751.5,138.3 752.6,141.7 753.8,144.6 755.0,146.5 756.2,147.9 757.4,148.9 758.5,149.4 759.7,149.6 760.9,149.7 762.1,149.6 763.3,149.3 764.4,149.0 765.6,148.8 766.8,148.3 768.0,147.7 769.2,146.7 770.3,145.6 771.5,144.6 772.7,143.5 773.9,142.5 775.1,141.7 776.2,141.0 777.4,140.5 778.6,140.2 779.8,140.2 780.9,140.2 782.1,140.2 783.3,140.2 784.5,140.2 785.7,140.6 786.8,140.9 788.0,141.4 789.2,141.7 790.4,142.1 791.6,142.7 792.7,143.0 793.9,143.5 795.1,144.1 796.3,144.5 797.5,144.8 798.6,145.1 799.8,145.5 801.0,145.8 802.2,145.9 803.4,146.2 804.5,146.6 805.7,146.8 806.9,147.2 808.1,147.8 809.3,148.7 810.4,149.2 811.6,149.6 812.8,149.9 814.0,149.6 815.2,149.2 816.3,148.9 817.5,148.5 818.7,148.3 819.9,148.3 821.1,148.2 822.2,148.2 823.4,148.2 824.6,148.2 825.8,148.2 827.0,148.2 828.1,148.0 829.3,148.0 830.5,147.9 831.7,147.9 832.9,147.9 834.0,147.9 835.2,147.9 836.4,147.9 837.6,147.9 838.8,147.9 839.9,147.9 841.1,147.9 842.3,147.9 843.5,147.9 844.7,147.9 845.8,147.9 847.0,147.9 848.2,147.9 849.4,147.9 850.6,147.9 851.7,147.9 852.9,147.9 854.1,147.9 855.3,147.9 856.5,147.9 857.6,147.9 858.8,147.9 860.0,147.9"/><line x1="69.5" y1="40" x2="69.5" y2="150" stroke="#f0a000" stroke-dasharray="4 3"/><line x1="69.5" y1="40" x2="69.5" y2="150" stroke="#f0a000" stroke-dasharray="4 3"/><line x1="69.5" y1="40" x2="69.5" y2="150" stroke="#f0a000" stroke-dasharray="4 3"/><line x1="69.5" y1="40" x2="69.5" y2="150" stroke="#f0a000" stroke-dasharray="4 3"/><line x1="69.5" y1="40" x2="69.5" y2="150" stroke="#f0a000" stroke-dasharray="4 3"/><line x1="69.5" y1="40" x2="69.5" y2="150" stroke="#f0a000" stroke-dasharray="4 3"/><line x1="69.5" y1="40" x2="69.5" y2="150" stroke="#f0a000" stroke-dasharray="4 3"/><text x="40" y="192" font-size="13" fill="#333">j2 — 입력 L(파랑) vs 출력 P(빨강), [-77°, 15°], 35s</text><rect x="40" y="200" width="820" height="110" fill="none" stroke="#ddd"/><polyline fill="none" stroke="#1f77b4" stroke-width="1.2" points=""/><polyline fill="none" stroke="#d62728" stroke-width="1.2" points="40.0,209.7 41.2,209.7 42.4,209.7 43.5,209.7 44.7,209.7 45.9,209.7 47.1,209.7 48.3,209.7 49.4,209.7 50.6,209.7 51.8,209.7 53.0,209.7 54.2,209.7 55.3,209.7 56.5,209.7 57.7,209.7 58.9,209.7 60.1,209.7 61.2,209.7 62.4,209.7 63.6,209.7 64.8,209.7 66.0,209.7 67.1,209.7 68.3,209.7 69.5,209.7 70.7,209.7 71.9,209.7 73.0,209.7 74.2,209.7 75.4,209.7 76.6,209.7 77.8,209.7 78.9,209.7 80.1,209.7 81.3,209.7 82.5,209.9 83.7,210.1 84.8,210.5 86.0,211.3 87.2,212.2 88.4,213.3 89.6,214.5 90.7,216.1 91.9,218.1 93.1,220.3 94.3,222.6 95.5,224.9 96.6,227.2 97.8,229.4 99.0,231.7 100.2,233.7 101.4,236.1 102.5,238.5 103.7,240.9 104.9,243.3 106.1,245.5 107.3,247.4 108.4,249.4 109.6,251.3 110.8,253.2 112.0,255.0 113.2,256.8 114.3,258.9 115.5,261.0 116.7,263.1 117.9,265.5 119.1,267.9 120.2,270.4 121.4,272.7 122.6,275.0 123.8,277.3 124.9,279.4 126.1,281.5 127.3,283.5 128.5,285.3 129.7,287.3 130.8,289.1 132.0,290.8 133.2,292.8 134.4,294.6 135.6,296.3 136.7,298.2 137.9,300.2 139.1,302.0 140.3,303.9 141.5,305.8 142.6,307.3 143.8,308.3 145.0,309.4 146.2,309.9 147.4,310.0 148.5,310.0 149.7,310.0 150.9,310.0 152.1,310.0 153.3,309.7 154.4,308.7 155.6,307.9 156.8,306.9 158.0,305.7 159.2,304.3 160.3,303.2 161.5,302.3 162.7,301.5 163.9,300.9 165.1,300.3 166.2,300.1 167.4,300.0 168.6,300.0 169.8,300.0 171.0,299.9 172.1,299.9 173.3,299.7 174.5,299.5 175.7,299.3 176.9,299.1 178.0,299.1 179.2,299.0 180.4,298.6 181.6,298.3 182.8,298.1 183.9,298.1 185.1,298.0 186.3,297.7 187.5,297.3 188.7,297.0 189.8,296.9 191.0,297.0 192.2,296.9 193.4,296.9 194.6,296.9 195.7,296.9 196.9,296.9 198.1,296.9 199.3,296.9 200.5,296.9 201.6,296.9 202.8,296.9 204.0,296.6 205.2,296.4 206.4,296.4 207.5,296.4 208.7,296.4 209.9,296.4 211.1,296.4 212.3,296.4 213.4,296.4 214.6,296.4 215.8,296.5 217.0,296.4 218.2,296.4 219.3,296.2 220.5,295.8 221.7,295.6 222.9,295.5 224.1,295.5 225.2,295.5 226.4,295.5 227.6,295.5 228.8,295.4 230.0,295.4 231.1,295.4 232.3,295.4 233.5,295.4 234.7,295.4 235.9,295.4 237.0,295.4 238.2,295.4 239.4,295.4 240.6,295.4 241.8,295.4 242.9,295.4 244.1,295.1 245.3,295.1 246.5,295.0 247.7,294.7 248.8,294.6 250.0,294.3 251.2,293.5 252.4,292.6 253.6,291.5 254.7,290.0 255.9,287.7 257.1,284.9 258.3,281.8 259.5,278.5 260.6,275.3 261.8,272.4 263.0,269.6 264.2,267.1 265.4,264.5 266.5,261.7 267.7,258.9 268.9,255.9 270.1,253.0 271.3,249.9 272.4,246.7 273.6,243.4 274.8,240.5 276.0,237.2 277.2,234.0 278.3,230.9 279.5,228.2 280.7,225.9 281.9,224.4 283.1,223.3 284.2,222.8 285.4,222.6 286.6,222.7 287.8,222.9 288.9,222.9 290.1,222.9 291.3,222.9 292.5,222.8 293.7,222.8 294.8,222.8 296.0,222.8 297.2,222.8 298.4,222.9 299.6,222.9 300.7,222.9 301.9,222.8 303.1,222.6 304.3,222.5 305.5,222.4 306.6,222.2 307.8,222.1 309.0,221.7 310.2,221.6 311.4,221.5 312.5,221.5 313.7,221.1 314.9,221.1 316.1,221.1 317.3,221.1 318.4,221.1 319.6,221.0 320.8,221.1 322.0,221.1 323.2,221.0 324.3,220.8 325.5,220.8 326.7,220.9 327.9,220.9 329.1,220.9 330.2,220.9 331.4,220.8 332.6,220.8 333.8,220.9 335.0,221.0 336.1,220.8 337.3,220.5 338.5,220.4 339.7,220.4 340.9,220.4 342.0,220.4 343.2,220.3 344.4,220.3 345.6,220.3 346.8,220.3 347.9,220.3 349.1,220.1 350.3,220.0 351.5,220.0 352.7,220.0 353.8,220.0 355.0,220.0 356.2,220.0 357.4,220.0 358.6,220.0 359.7,220.1 360.9,220.7 362.1,222.0 363.3,224.1 364.5,226.8 365.6,229.9 366.8,233.0 368.0,236.4 369.2,239.9 370.4,243.4 371.5,246.8 372.7,249.7 373.9,252.5 375.1,255.1 376.3,257.7 377.4,260.2 378.6,262.4 379.8,264.5 381.0,266.5 382.2,268.3 383.3,270.0 384.5,271.8 385.7,273.2 386.9,274.7 388.1,276.3 389.2,277.8 390.4,279.3 391.6,281.0 392.8,282.6 394.0,284.0 395.1,285.0 396.3,285.8 397.5,286.4 398.7,286.9 399.9,286.9 401.0,287.3 402.2,287.4 403.4,287.5 404.6,288.7 405.8,289.8 406.9,291.0 408.1,292.1 409.3,292.7 410.5,292.9 411.7,292.9 412.8,292.9 414.0,292.9 415.2,292.9 416.4,292.9 417.6,292.9 418.7,292.9 419.9,292.9 421.1,292.9 422.3,292.9 423.5,292.9 424.6,293.1 425.8,293.6 427.0,294.2 428.2,294.9 429.4,295.4 430.5,295.5 431.7,295.5 432.9,295.5 434.1,295.7 435.3,295.9 436.4,296.5 437.6,297.2 438.8,297.7 440.0,297.7 441.2,297.7 442.3,297.7 443.5,297.7 444.7,297.7 445.9,297.6 447.1,297.4 448.2,297.1 449.4,296.4 450.6,295.7 451.8,295.0 452.9,294.7 454.1,294.6 455.3,294.6 456.5,294.6 457.7,294.6 458.8,294.6 460.0,294.6 461.2,294.6 462.4,294.6 463.6,294.6 464.7,294.6 465.9,294.4 467.1,294.3 468.3,294.3 469.5,294.2 470.6,294.2 471.8,294.2 473.0,294.2 474.2,294.2 475.4,294.2 476.5,294.0 477.7,293.6 478.9,293.4 480.1,293.4 481.3,293.4 482.4,293.4 483.6,293.4 484.8,293.4 486.0,293.3 487.2,293.3 488.3,293.3 489.5,293.2 490.7,293.1 491.9,293.0 493.1,293.0 494.2,292.8 495.4,292.7 496.6,292.6 497.8,292.6 499.0,292.6 500.1,292.5 501.3,292.4 502.5,292.2 503.7,292.2 504.9,292.2 506.0,292.1 507.2,292.1 508.4,292.1 509.6,292.1 510.8,292.1 511.9,292.1 513.1,291.9 514.3,291.5 515.5,290.8 516.7,289.6 517.8,287.9 519.0,286.2 520.2,284.4 521.4,282.9 522.6,281.6 523.7,280.4 524.9,279.5 526.1,278.8 527.3,278.1 528.5,277.9 529.6,277.9 530.8,277.9 532.0,277.9 533.2,277.9 534.4,277.9 535.5,277.9 536.7,277.9 537.9,277.9 539.1,277.9 540.3,277.9 541.4,277.9 542.6,277.9 543.8,278.0 545.0,278.3 546.2,279.2 547.3,280.4 548.5,281.6 549.7,282.7 550.9,283.5 552.1,284.0 553.2,284.1 554.4,284.1 555.6,284.1 556.8,284.4 558.0,285.4 559.1,286.2 560.3,287.2 561.5,287.6 562.7,287.6 563.9,287.6 565.0,287.6 566.2,287.6 567.4,287.6 568.6,287.6 569.8,287.6 570.9,287.6 572.1,287.6 573.3,287.6 574.5,287.6 575.7,287.6 576.8,287.6 578.0,287.6 579.2,287.6 580.4,287.6 581.6,287.6 582.7,287.6 583.9,287.6 585.1,287.6 586.3,287.6 587.5,287.6 588.6,287.6 589.8,287.6 591.0,287.6 592.2,287.6 593.4,287.6 594.5,287.6 595.7,287.6 596.9,287.6 598.1,287.6 599.3,287.6 600.4,287.6 601.6,287.6 602.8,287.6 604.0,287.6 605.2,287.6 606.3,287.6 607.5,287.6 608.7,287.6 609.9,287.5 611.1,287.4 612.2,286.8 613.4,286.1 614.6,285.4 615.8,284.7 616.9,283.9 618.1,283.2 619.3,282.6 620.5,281.9 621.7,281.2 622.8,280.5 624.0,279.7 625.2,278.7 626.4,277.1 627.6,274.7 628.7,272.1 629.9,269.3 631.1,266.1 632.3,262.6 633.5,258.2 634.6,253.6 635.8,248.4 637.0,243.0 638.2,237.6 639.4,232.3 640.5,227.1 641.7,222.7 642.9,218.9 644.1,215.6 645.3,212.7 646.4,210.5 647.6,208.8 648.8,207.9 650.0,207.4 651.2,206.9 652.3,206.7 653.5,206.7 654.7,206.7 655.9,206.5 657.1,206.2 658.2,205.7 659.4,205.0 660.6,204.6 661.8,204.7 663.0,204.9 664.1,205.0 665.3,204.9 666.5,204.9 667.7,204.8 668.9,204.9 670.0,205.2 671.2,205.5 672.4,205.6 673.6,205.6 674.8,205.6 675.9,205.7 677.1,205.8 678.3,205.9 679.5,206.1 680.7,206.3 681.8,206.7 683.0,207.5 684.2,208.6 685.4,210.2 686.6,212.5 687.7,215.4 688.9,219.0 690.1,223.4 691.3,228.4 692.5,233.4 693.6,238.7 694.8,244.2 696.0,249.5 697.2,254.8 698.4,259.8 699.5,264.2 700.7,267.3 701.9,269.4 703.1,270.9 704.3,271.6 705.4,271.5 706.6,271.2 707.8,270.0 709.0,267.3 710.2,263.2 711.3,257.8 712.5,252.1 713.7,246.0 714.9,239.8 716.1,234.0 717.2,228.4 718.4,223.2 719.6,218.8 720.8,215.2 722.0,211.8 723.1,208.9 724.3,207.1 725.5,205.6 726.7,204.8 727.9,204.6 729.0,204.6 730.2,204.7 731.4,205.3 732.6,205.7 733.8,206.5 734.9,207.7 736.1,208.9 737.3,209.9 738.5,210.4 739.7,210.5 740.8,210.0 742.0,209.6 743.2,209.7 744.4,210.0 745.6,210.6 746.7,211.3 747.9,212.1 749.1,212.9 750.3,213.0 751.5,213.0 752.6,213.0 753.8,212.7 755.0,212.1 756.2,211.4 757.4,210.4 758.5,209.8 759.7,209.0 760.9,208.3 762.1,207.4 763.3,206.2 764.4,205.4 765.6,204.5 766.8,203.5 768.0,202.6 769.2,201.9 770.3,201.4 771.5,201.0 772.7,200.7 773.9,200.5 775.1,200.4 776.2,200.2 777.4,200.2 778.6,200.2 779.8,200.2 780.9,200.2 782.1,200.2 783.3,200.2 784.5,200.2 785.7,200.2 786.8,200.2 788.0,200.2 789.2,200.2 790.4,200.1 791.6,200.1 792.7,200.1 793.9,200.0 795.1,200.0 796.3,200.0 797.5,200.0 798.6,200.0 799.8,200.0 801.0,200.0 802.2,200.0 803.4,200.0 804.5,200.0 805.7,200.3 806.9,200.7 808.1,201.3 809.3,201.6 810.4,202.1 811.6,202.4 812.8,202.7 814.0,202.8 815.2,202.8 816.3,202.8 817.5,202.8 818.7,202.8 819.9,202.9 821.1,203.0 822.2,203.2 823.4,203.4 824.6,203.6 825.8,203.8 827.0,204.1 828.1,204.2 829.3,204.2 830.5,204.1 831.7,204.1 832.9,204.1 834.0,204.1 835.2,204.1 836.4,204.1 837.6,204.1 838.8,204.1 839.9,204.1 841.1,204.1 842.3,204.1 843.5,204.1 844.7,204.1 845.8,204.1 847.0,204.1 848.2,204.1 849.4,204.1 850.6,204.1 851.7,204.1 852.9,204.1 854.1,204.1 855.3,204.1 856.5,204.1 857.6,204.1 858.8,204.1 860.0,204.1"/><line x1="69.5" y1="200" x2="69.5" y2="310" stroke="#f0a000" stroke-dasharray="4 3"/><line x1="69.5" y1="200" x2="69.5" y2="310" stroke="#f0a000" stroke-dasharray="4 3"/><line x1="69.5" y1="200" x2="69.5" y2="310" stroke="#f0a000" stroke-dasharray="4 3"/><line x1="69.5" y1="200" x2="69.5" y2="310" stroke="#f0a000" stroke-dasharray="4 3"/><line x1="69.5" y1="200" x2="69.5" y2="310" stroke="#f0a000" stroke-dasharray="4 3"/><line x1="69.5" y1="200" x2="69.5" y2="310" stroke="#f0a000" stroke-dasharray="4 3"/><line x1="69.5" y1="200" x2="69.5" y2="310" stroke="#f0a000" stroke-dasharray="4 3"/><text x="40" y="352" font-size="13" fill="#333">j3 — 입력 L(파랑) vs 출력 P(빨강), [-23°, 30°], 35s</text><rect x="40" y="360" width="820" height="110" fill="none" stroke="#ddd"/><polyline fill="none" stroke="#1f77b4" stroke-width="1.2" points=""/><polyline fill="none" stroke="#d62728" stroke-width="1.2" points="40.0,428.7 41.2,428.7 42.4,428.7 43.5,428.7 44.7,428.7 45.9,428.7 47.1,428.7 48.3,428.7 49.4,428.7 50.6,428.7 51.8,428.7 53.0,428.7 54.2,428.7 55.3,428.7 56.5,428.7 57.7,428.7 58.9,428.7 60.1,428.7 61.2,428.7 62.4,428.7 63.6,428.7 64.8,428.7 66.0,428.7 67.1,428.7 68.3,428.7 69.5,428.7 70.7,428.7 71.9,428.7 73.0,428.7 74.2,428.7 75.4,428.7 76.6,428.7 77.8,428.7 78.9,428.7 80.1,428.7 81.3,428.7 82.5,428.7 83.7,427.6 84.8,425.8 86.0,423.5 87.2,420.8 88.4,417.9 89.6,415.3 90.7,413.3 91.9,411.4 93.1,410.0 94.3,408.5 95.5,406.9 96.6,405.4 97.8,404.0 99.0,402.4 100.2,400.3 101.4,398.5 102.5,396.9 103.7,395.6 104.9,394.3 106.1,393.3 107.3,392.4 108.4,391.6 109.6,390.9 110.8,390.0 112.0,388.9 113.2,387.2 114.3,386.2 115.5,385.3 116.7,384.9 117.9,384.9 119.1,384.9 120.2,385.1 121.4,385.8 122.6,387.1 123.8,388.9 124.9,390.9 126.1,392.9 127.3,394.7 128.5,396.4 129.7,398.2 130.8,399.8 132.0,401.8 133.2,403.6 134.4,405.8 135.6,408.9 136.7,412.6 137.9,417.4 139.1,422.9 140.3,428.7 141.5,433.8 142.6,438.5 143.8,442.2 145.0,444.4 146.2,444.9 147.4,444.4 148.5,441.1 149.7,435.1 150.9,427.8 152.1,420.4 153.3,412.4 154.4,404.5 155.6,396.9 156.8,389.8 158.0,383.1 159.2,377.1 160.3,372.3 161.5,368.3 162.7,364.9 163.9,362.3 165.1,360.9 166.2,360.2 167.4,360.2 168.6,360.2 169.8,360.2 171.0,360.2 172.1,360.2 173.3,360.2 174.5,360.5 175.7,361.1 176.9,361.6 178.0,361.6 179.2,361.6 180.4,361.6 181.6,361.5 182.8,361.3 183.9,360.9 185.1,360.6 186.3,360.2 187.5,360.0 188.7,360.1 189.8,360.2 191.0,360.3 192.2,360.5 193.4,360.7 194.6,361.3 195.7,361.6 196.9,362.2 198.1,362.5 199.3,362.7 200.5,363.1 201.6,363.1 202.8,363.4 204.0,363.8 205.2,364.5 206.4,365.1 207.5,365.8 208.7,366.3 209.9,366.9 211.1,367.3 212.3,367.4 213.4,367.8 214.6,367.8 215.8,367.8 217.0,368.3 218.2,368.9 219.3,369.4 220.5,370.2 221.7,370.9 222.9,371.6 224.1,372.5 225.2,373.1 226.4,373.4 227.6,373.8 228.8,374.3 230.0,374.7 231.1,375.4 232.3,376.3 233.5,377.3 234.7,378.0 235.9,379.1 237.0,380.0 238.2,380.9 239.4,381.6 240.6,382.4 241.8,383.3 242.9,384.1 244.1,385.2 245.3,386.2 246.5,387.5 247.7,388.9 248.8,390.2 250.0,391.6 251.2,392.9 252.4,394.4 253.6,396.0 254.7,397.6 255.9,399.3 257.1,400.6 258.3,401.6 259.5,402.6 260.6,403.6 261.8,405.1 263.0,406.7 264.2,409.1 265.4,411.4 266.5,413.4 267.7,414.9 268.9,416.5 270.1,418.4 271.3,420.1 272.4,421.8 273.6,423.6 274.8,425.8 276.0,427.7 277.2,429.6 278.3,432.0 279.5,434.7 280.7,437.1 281.9,438.2 283.1,438.5 284.2,438.7 285.4,438.4 286.6,437.8 287.8,437.5 288.9,437.0 290.1,436.4 291.3,435.8 292.5,435.1 293.7,434.4 294.8,433.4 296.0,433.1 297.2,432.7 298.4,432.5 299.6,432.4 300.7,432.0 301.9,431.8 303.1,431.6 304.3,431.6 305.5,431.3 306.6,430.6 307.8,430.0 309.0,429.7 310.2,429.6 311.4,429.3 312.5,429.1 313.7,429.1 314.9,429.1 316.1,429.1 317.3,429.1 318.4,429.1 319.6,429.1 320.8,429.1 322.0,428.9 323.2,428.9 324.3,428.7 325.5,427.9 326.7,426.9 327.9,426.2 329.1,426.2 330.2,426.2 331.4,426.2 332.6,426.2 333.8,426.2 335.0,426.2 336.1,426.2 337.3,426.2 338.5,426.0 339.7,425.6 340.9,425.1 342.0,424.5 343.2,424.2 344.4,423.8 345.6,423.3 346.8,423.1 347.9,422.9 349.1,422.9 350.3,422.9 351.5,422.9 352.7,422.9 353.8,422.7 355.0,422.4 356.2,422.4 357.4,422.4 358.6,422.4 359.7,422.4 360.9,422.2 362.1,421.4 363.3,420.3 364.5,418.2 365.6,414.9 366.8,411.2 368.0,407.1 369.2,402.7 370.4,398.7 371.5,394.8 372.7,391.5 373.9,387.7 375.1,384.4 376.3,381.0 377.4,378.1 378.6,375.9 379.8,374.0 381.0,372.7 382.2,371.8 383.3,371.1 384.5,370.6 385.7,370.0 386.9,369.5 388.1,369.3 389.2,369.3 390.4,369.3 391.6,370.2 392.8,371.7 394.0,374.5 395.1,377.2 396.3,379.8 397.5,382.0 398.7,383.8 399.9,385.6 401.0,387.8 402.2,390.4 403.4,393.2 404.6,396.4 405.8,399.3 406.9,402.0 408.1,404.0 409.3,405.3 410.5,406.4 411.7,406.9 412.8,406.9 414.0,406.9 415.2,406.7 416.4,406.7 417.6,406.7 418.7,406.9 419.9,407.1 421.1,407.6 422.3,408.0 423.5,408.9 424.6,410.2 425.8,412.2 427.0,414.5 428.2,417.1 429.4,419.4 430.5,421.2 431.7,422.5 432.9,423.3 434.1,423.4 435.3,423.4 436.4,423.3 437.6,423.1 438.8,421.8 440.0,419.1 441.2,415.3 442.3,410.9 443.5,405.8 444.7,400.8 445.9,396.0 447.1,391.5 448.2,387.8 449.4,384.9 450.6,383.4 451.8,382.9 452.9,382.9 454.1,382.9 455.3,382.9 456.5,382.9 457.7,383.1 458.8,383.4 460.0,383.8 461.2,384.0 462.4,384.3 463.6,384.5 464.7,384.9 465.9,385.4 467.1,386.0 468.3,386.4 469.5,386.9 470.6,387.4 471.8,387.6 473.0,388.4 474.2,388.7 475.4,389.1 476.5,389.2 477.7,389.3 478.9,389.6 480.1,390.0 481.3,390.4 482.4,390.5 483.6,390.9 484.8,391.3 486.0,391.6 487.2,392.2 488.3,392.7 489.5,393.4 490.7,394.5 491.9,395.5 493.1,396.3 494.2,396.7 495.4,397.1 496.6,397.4 497.8,397.6 499.0,397.6 500.1,398.0 501.3,398.0 502.5,398.0 503.7,398.0 504.9,398.0 506.0,398.0 507.2,398.2 508.4,398.4 509.6,398.5 510.8,398.5 511.9,398.5 513.1,398.4 514.3,397.6 515.5,396.5 516.7,394.3 517.8,391.8 519.0,389.5 520.2,387.4 521.4,386.7 522.6,386.4 523.7,386.4 524.9,386.4 526.1,386.9 527.3,387.6 528.5,388.5 529.6,389.1 530.8,389.6 532.0,390.2 533.2,390.7 534.4,391.4 535.5,391.8 536.7,392.0 537.9,392.3 539.1,392.5 540.3,392.5 541.4,392.9 542.6,393.4 543.8,394.0 545.0,394.9 546.2,395.9 547.3,397.0 548.5,398.4 549.7,400.0 550.9,401.7 552.1,403.4 553.2,405.0 554.4,406.0 555.6,406.9 556.8,408.0 558.0,408.9 559.1,409.8 560.3,410.8 561.5,411.8 562.7,412.7 563.9,413.6 565.0,414.3 566.2,414.4 567.4,414.5 568.6,414.4 569.8,414.4 570.9,414.4 572.1,414.2 573.3,413.8 574.5,413.3 575.7,412.7 576.8,411.8 578.0,411.1 579.2,410.2 580.4,409.4 581.6,408.7 582.7,408.4 583.9,407.8 585.1,407.6 586.3,407.6 587.5,407.6 588.6,407.6 589.8,407.6 591.0,407.6 592.2,407.5 593.4,407.6 594.5,407.6 595.7,407.6 596.9,407.6 598.1,407.6 599.3,407.6 600.4,407.6 601.6,407.6 602.8,407.6 604.0,407.4 605.2,407.3 606.3,406.7 607.5,406.5 608.7,406.3 609.9,405.8 611.1,405.0 612.2,403.9 613.4,402.8 614.6,402.2 615.8,401.6 616.9,401.3 618.1,400.8 619.3,400.5 620.5,400.2 621.7,399.8 622.8,399.1 624.0,398.4 625.2,397.8 626.4,397.3 627.6,397.1 628.7,396.9 629.9,396.7 631.1,396.5 632.3,396.9 633.5,399.4 634.6,403.4 635.8,408.2 637.0,413.7 638.2,419.9 639.4,426.0 640.5,431.9 641.7,437.0 642.9,441.2 644.1,444.2 645.3,446.2 646.4,447.9 647.6,448.9 648.8,449.6 650.0,449.6 651.2,449.6 652.3,448.9 653.5,448.1 654.7,447.3 655.9,446.9 657.1,447.3 658.2,447.8 659.4,448.2 660.6,448.5 661.8,448.5 663.0,448.5 664.1,448.4 665.3,448.2 666.5,447.5 667.7,446.7 668.9,446.2 670.0,445.8 671.2,445.3 672.4,444.9 673.6,444.9 674.8,444.9 675.9,444.9 677.1,444.7 678.3,444.9 679.5,444.9 680.7,444.9 681.8,444.9 683.0,445.3 684.2,446.4 685.4,448.7 686.6,451.5 687.7,454.7 688.9,458.0 690.1,461.3 691.3,464.2 692.5,466.7 693.6,468.9 694.8,469.8 696.0,470.0 697.2,470.0 698.4,469.7 699.5,468.8 700.7,466.8 701.9,464.6 703.1,461.7 704.3,458.7 705.4,456.5 706.6,454.9 707.8,453.6 709.0,452.3 710.2,451.2 711.3,450.4 712.5,449.8 713.7,449.3 714.9,448.4 716.1,447.3 717.2,446.2 718.4,445.1 719.6,444.0 720.8,443.1 722.0,441.9 723.1,440.7 724.3,439.8 725.5,438.9 726.7,438.5 727.9,438.2 729.0,437.3 730.2,437.1 731.4,437.3 732.6,437.3 733.8,437.4 734.9,437.8 736.1,437.8 737.3,437.8 738.5,437.6 739.7,437.8 740.8,437.8 742.0,437.8 743.2,438.0 744.4,438.2 745.6,438.9 746.7,440.6 747.9,443.3 749.1,446.5 750.3,449.6 751.5,452.2 752.6,453.7 753.8,455.0 755.0,456.1 756.2,456.7 757.4,457.1 758.5,456.9 759.7,455.8 760.9,454.2 762.1,451.8 763.3,448.9 764.4,446.2 765.6,443.6 766.8,440.7 768.0,438.4 769.2,436.6 770.3,435.7 771.5,435.5 772.7,434.9 773.9,434.7 775.1,434.7 776.2,434.7 777.4,434.2 778.6,433.4 779.8,432.3 780.9,430.4 782.1,428.6 783.3,426.8 784.5,425.2 785.7,423.6 786.8,422.2 788.0,420.3 789.2,418.4 790.4,416.4 791.6,414.5 792.7,413.0 793.9,411.6 795.1,410.5 796.3,409.8 797.5,408.9 798.6,408.2 799.8,407.3 801.0,406.4 802.2,405.3 803.4,403.8 804.5,402.5 805.7,401.3 806.9,400.0 808.1,399.1 809.3,398.6 810.4,398.4 811.6,398.5 812.8,399.3 814.0,400.1 815.2,400.9 816.3,401.7 817.5,402.5 818.7,403.3 819.9,404.0 821.1,404.3 822.2,404.5 823.4,404.9 824.6,405.1 825.8,405.3 827.0,405.4 828.1,405.6 829.3,405.6 830.5,405.6 831.7,405.6 832.9,405.6 834.0,405.6 835.2,405.6 836.4,405.6 837.6,405.6 838.8,405.6 839.9,405.6 841.1,405.6 842.3,405.6 843.5,405.6 844.7,405.6 845.8,405.6 847.0,405.6 848.2,405.6 849.4,405.6 850.6,405.6 851.7,405.6 852.9,405.6 854.1,405.6 855.3,405.6 856.5,405.6 857.6,405.6 858.8,405.6 860.0,405.6"/><line x1="69.5" y1="360" x2="69.5" y2="470" stroke="#f0a000" stroke-dasharray="4 3"/><line x1="69.5" y1="360" x2="69.5" y2="470" stroke="#f0a000" stroke-dasharray="4 3"/><line x1="69.5" y1="360" x2="69.5" y2="470" stroke="#f0a000" stroke-dasharray="4 3"/><line x1="69.5" y1="360" x2="69.5" y2="470" stroke="#f0a000" stroke-dasharray="4 3"/><line x1="69.5" y1="360" x2="69.5" y2="470" stroke="#f0a000" stroke-dasharray="4 3"/><line x1="69.5" y1="360" x2="69.5" y2="470" stroke="#f0a000" stroke-dasharray="4 3"/><line x1="69.5" y1="360" x2="69.5" y2="470" stroke="#f0a000" stroke-dasharray="4 3"/></svg>