<svg xmlns="http://www.w3.org/2000/svg" width="900" height="520" font-family="sans-serif"><text x="40" y="32" font-size="13" fill="#333">j1 — 입력 L(파랑) vs 출력 P(빨강), [-39°, 42°], 32s</text><rect x="40" y="40" width="820" height="110" fill="none" stroke="#ddd"/><polyline fill="none" stroke="#1f77b4" stroke-width="1.2" points=""/><polyline fill="none" stroke="#d62728" stroke-width="1.2" points="40.0,109.6 41.3,109.6 42.5,109.6 43.8,109.7 45.0,109.8 46.3,109.8 47.6,109.8 48.8,109.8 50.1,109.8 51.4,109.7 52.6,109.7 53.9,109.7 55.1,109.6 56.4,109.7 57.7,109.7 58.9,109.7 60.2,109.8 61.4,109.7 62.7,109.7 64.0,109.8 65.2,109.7 66.5,109.7 67.8,109.8 69.0,109.8 70.3,109.8 71.5,109.8 72.8,109.8 74.1,109.8 75.3,109.7 76.6,109.6 77.8,109.6 79.1,109.7 80.4,109.7 81.6,109.6 82.9,109.7 84.2,109.8 85.4,109.7 86.7,109.7 87.9,109.7 89.2,109.6 90.5,109.6 91.7,109.7 93.0,109.8 94.2,109.7 95.5,109.7 96.8,109.8 98.0,109.8 99.3,109.7 100.6,109.3 101.8,108.8 103.1,107.9 104.3,106.7 105.6,105.2 106.9,103.4 108.1,101.2 109.4,99.1 110.6,97.0 111.9,94.9 113.2,93.0 114.4,91.2 115.7,89.7 117.0,88.4 118.2,87.3 119.5,86.2 120.7,85.2 122.0,84.2 123.3,83.2 124.5,82.0 125.8,80.8 127.0,79.4 128.3,77.8 129.6,76.1 130.8,74.4 132.1,72.5 133.4,70.7 134.6,68.8 135.9,66.6 137.1,64.4 138.4,62.2 139.7,59.8 140.9,57.3 142.2,54.9 143.4,52.6 144.7,50.6 146.0,48.7 147.2,47.0 148.5,45.6 149.8,44.3 151.0,43.1 152.3,41.9 153.5,40.9 154.8,40.2 156.1,40.0 157.3,40.0 158.6,40.0 159.8,40.0 161.1,40.0 162.4,40.0 163.6,40.3 164.9,41.2 166.2,42.5 167.4,44.4 168.7,46.4 169.9,48.4 171.2,50.5 172.5,52.7 173.7,55.1 175.0,57.6 176.2,60.2 177.5,63.1 178.8,65.9 180.0,68.6 181.3,71.6 182.6,74.9 183.8,78.6 185.1,82.4 186.3,85.9 187.6,89.2 188.9,92.4 190.1,95.6 191.4,98.9 192.6,102.1 193.9,105.7 195.2,108.9 196.4,111.5 197.7,113.5 199.0,114.8 200.2,115.3 201.5,115.3 202.7,114.9 204.0,113.9 205.3,111.9 206.5,109.2 207.8,106.3 209.0,103.3 210.3,100.5 211.6,97.6 212.8,94.4 214.1,91.4 215.4,88.4 216.6,85.9 217.9,83.8 219.1,82.4 220.4,81.3 221.7,80.8 222.9,80.5 224.2,80.5 225.4,80.5 226.7,80.5 228.0,80.8 229.2,82.0 230.5,83.9 231.8,86.0 233.0,88.2 234.3,90.6 235.5,92.7 236.8,94.9 238.1,97.2 239.3,99.2 240.6,100.9 241.8,102.4 243.1,103.5 244.4,104.3 245.6,105.0 246.9,105.2 248.2,105.3 249.4,105.3 250.7,105.2 251.9,105.2 253.2,105.2 254.5,105.1 255.7,105.1 257.0,104.9 258.2,104.6 259.5,104.2 260.8,103.7 262.0,103.2 263.3,102.8 264.6,102.4 265.8,102.1 267.1,101.8 268.3,101.5 269.6,101.0 270.9,100.8 272.1,100.4 273.4,100.1 274.6,99.9 275.9,99.8 277.2,99.8 278.4,99.6 279.7,99.4 281.0,99.4 282.2,99.1 283.5,98.7 284.7,98.3 286.0,97.7 287.3,97.3 288.5,97.1 289.8,96.7 291.0,96.6 292.3,96.5 293.6,96.5 294.8,96.5 296.1,96.5 297.4,96.5 298.6,96.5 299.9,96.5 301.1,96.5 302.4,96.5 303.7,96.5 304.9,96.5 306.2,96.5 307.4,96.5 308.7,96.5 310.0,96.5 311.2,96.5 312.5,96.4 313.8,96.0 315.0,95.5 316.3,94.8 317.5,94.0 318.8,93.2 320.1,92.5 321.3,91.9 322.6,91.5 323.8,91.2 325.1,90.9 326.4,90.7 327.6,90.4 328.9,90.1 330.2,90.0 331.4,89.7 332.7,89.6 333.9,89.5 335.2,89.0 336.5,88.5 337.7,88.2 339.0,88.1 340.2,88.0 341.5,87.8 342.8,87.3 344.0,86.7 345.3,86.2 346.6,85.9 347.8,85.5 349.1,85.3 350.3,85.0 351.6,85.0 352.9,85.0 354.1,84.4 355.4,83.8 356.6,83.0 357.9,82.1 359.2,81.1 360.4,80.4 361.7,80.2 363.0,80.2 364.2,80.2 365.5,80.3 366.7,81.5 368.0,84.0 369.3,87.1 370.5,90.7 371.8,94.0 373.0,97.2 374.3,100.0 375.6,102.3 376.8,103.9 378.1,104.9 379.4,105.5 380.6,105.5 381.9,105.5 383.1,105.4 384.4,105.4 385.7,105.2 386.9,104.9 388.2,104.7 389.4,104.4 390.7,104.4 392.0,104.4 393.2,104.4 394.5,104.4 395.8,104.4 397.0,104.4 398.3,104.4 399.5,104.3 400.8,104.4 402.1,104.3 403.3,104.4 404.6,104.6 405.8,105.3 407.1,106.7 408.4,108.5 409.6,110.4 410.9,111.9 412.2,112.8 413.4,113.4 414.7,113.9 415.9,114.1 417.2,114.5 418.5,114.8 419.7,115.0 421.0,115.1 422.2,115.2 423.5,115.3 424.8,115.1 426.0,114.3 427.3,112.9 428.6,110.8 429.8,108.1 431.1,105.0 432.3,101.1 433.6,97.3 434.9,93.9 436.1,91.2 437.4,89.9 438.6,89.6 439.9,89.7 441.2,90.9 442.4,94.0 443.7,99.4 445.0,106.5 446.2,114.6 447.5,123.0 448.7,130.5 450.0,137.1 451.3,141.9 452.5,145.3 453.8,147.5 455.0,148.3 456.3,148.8 457.6,148.9 458.8,148.9 460.1,148.9 461.4,148.9 462.6,148.5 463.9,148.2 465.1,148.1 466.4,148.1 467.7,148.1 468.9,148.2 470.2,148.4 471.4,149.2 472.7,149.8 474.0,150.0 475.2,150.0 476.5,150.0 477.8,150.0 479.0,149.4 480.3,148.1 481.5,146.6 482.8,145.4 484.1,144.4 485.3,143.6 486.6,142.6 487.8,141.6 489.1,140.7 490.4,139.9 491.6,139.1 492.9,138.2 494.2,137.1 495.4,135.8 496.7,134.6 497.9,133.3 499.2,131.9 500.5,130.1 501.7,127.7 503.0,125.1 504.2,122.6 505.5,119.9 506.8,117.5 508.0,114.9 509.3,112.3 510.6,109.7 511.8,107.9 513.1,106.7 514.3,106.0 515.6,105.5 516.9,105.3 518.1,105.1 519.4,105.0 520.6,105.2 521.9,105.5 523.2,106.4 524.4,107.8 525.7,109.7 527.0,111.9 528.2,114.0 529.5,115.8 530.7,117.1 532.0,118.0 533.3,118.1 534.5,118.1 535.8,118.1 537.0,118.0 538.3,118.0 539.6,117.9 540.8,117.4 542.1,116.6 543.4,115.6 544.6,114.7 545.9,113.8 547.1,113.1 548.4,112.6 549.7,112.3 550.9,112.4 552.2,112.5 553.4,113.0 554.7,114.0 556.0,115.2 557.2,116.5 558.5,117.5 559.8,117.7 561.0,117.7 562.3,117.3 563.5,116.4 564.8,115.2 566.1,114.0 567.3,113.1 568.6,112.8 569.8,112.8 571.1,113.7 572.4,115.7 573.6,118.2 574.9,120.7 576.2,123.4 577.4,125.8 578.7,128.0 579.9,129.9 581.2,131.3 582.5,132.5 583.7,133.2 585.0,133.6 586.2,133.8 587.5,133.9 588.8,133.9 590.0,133.9 591.3,133.9 592.6,133.9 593.8,133.9 595.1,133.8 596.3,133.7 597.6,133.6 598.9,133.5 600.1,133.4 601.4,133.2 602.6,133.1 603.9,132.9 605.2,132.8 606.4,132.7 607.7,132.8 609.0,132.9 610.2,132.9 611.5,133.4 612.7,134.7 614.0,136.3 615.3,137.9 616.5,139.7 617.8,141.2 619.0,142.1 620.3,142.8 621.6,143.4 622.8,143.8 624.1,144.0 625.4,144.1 626.6,144.2 627.9,144.2 629.1,144.1 630.4,143.9 631.7,143.1 632.9,141.8 634.2,140.3 635.4,139.1 636.7,138.2 638.0,137.3 639.2,136.2 640.5,135.1 641.8,134.1 643.0,133.3 644.3,132.5 645.5,131.8 646.8,131.2 648.1,130.7 649.3,130.1 650.6,129.5 651.8,128.8 653.1,128.0 654.4,127.3 655.6,126.5 656.9,125.9 658.2,125.1 659.4,124.4 660.7,123.7 661.9,123.2 663.2,122.6 664.5,121.8 665.7,121.0 667.0,120.1 668.2,119.3 669.5,118.3 670.8,117.3 672.0,116.5 673.3,115.8 674.6,115.3 675.8,115.1 677.1,115.1 678.3,115.1 679.6,115.1 680.9,115.1 682.1,115.1 683.4,115.3 684.6,116.4 685.9,117.9 687.2,119.9 688.4,122.1 689.7,124.1 691.0,125.4 692.2,126.3 693.5,126.5 694.7,126.5 696.0,126.4 697.3,126.0 698.5,124.8 699.8,122.8 701.0,120.1 702.3,117.3 703.6,114.5 704.8,111.9 706.1,109.6 707.4,107.5 708.6,105.4 709.9,103.5 711.1,101.7 712.4,100.4 713.7,99.6 714.9,98.9 716.2,98.5 717.4,98.2 718.7,98.0 720.0,98.0 721.2,98.0 722.5,98.2 723.8,98.4 725.0,98.8 726.3,99.2 727.5,99.5 728.8,99.8 730.1,100.1 731.3,100.2 732.6,100.4 733.8,100.5 735.1,100.8 736.4,101.2 737.6,101.7 738.9,102.5 740.2,103.5 741.4,104.6 742.7,105.4 743.9,105.6 745.2,105.5 746.5,105.5 747.7,105.4 749.0,105.1 750.2,104.7 751.5,104.0 752.8,103.3 754.0,102.3 755.3,101.6 756.6,101.0 757.8,100.9 759.1,100.8 760.3,100.8 761.6,100.9 762.9,101.1 764.1,101.2 765.4,101.3 766.6,101.4 767.9,101.4 769.2,101.4 770.4,101.4 771.7,101.4 773.0,101.4 774.2,101.4 775.5,101.4 776.7,101.4 778.0,101.4 779.3,101.4 780.5,101.4 781.8,101.4 783.0,101.4 784.3,101.4 785.6,101.4 786.8,101.4 788.1,101.4 789.4,101.4 790.6,101.4 791.9,101.4 793.1,101.4 794.4,101.4 795.7,101.4 796.9,101.4 798.2,101.4 799.4,101.4 800.7,101.4 802.0,101.4 803.2,101.4 804.5,101.4 805.8,101.4 807.0,101.4 808.3,101.4 809.5,101.4 810.8,101.4 812.1,101.4 813.3,101.4 814.6,101.4 815.8,101.4 817.1,101.4 818.4,101.4 819.6,101.4 820.9,101.4 822.2,101.4 823.4,101.4 824.7,101.4 825.9,101.4 827.2,101.4 828.5,101.4 829.7,101.4 831.0,101.4 832.2,101.4 833.5,101.4 834.8,101.4 836.0,101.4 837.3,101.4 838.6,101.4 839.8,101.4 841.1,101.3 842.3,101.4 843.6,101.4 844.9,101.4 846.1,101.4 847.4,101.4 848.6,101.4 849.9,101.4 851.2,101.4 852.4,101.4 853.7,101.4 855.0,101.4 856.2,101.4 857.5,101.4 858.7,101.4 860.0,101.4"/><line x1="83.1" y1="40" x2="83.1" y2="150" stroke="#f0a000" stroke-dasharray="4 3"/><line x1="83.1" y1="40" x2="83.1" y2="150" stroke="#f0a000" stroke-dasharray="4 3"/><line x1="83.1" y1="40" x2="83.1" y2="150" stroke="#f0a000" stroke-dasharray="4 3"/><line x1="83.1" y1="40" x2="83.1" y2="150" stroke="#f0a000" stroke-dasharray="4 3"/><line x1="83.1" y1="40" x2="83.1" y2="150" stroke="#f0a000" stroke-dasharray="4 3"/><line x1="83.1" y1="40" x2="83.1" y2="150" stroke="#f0a000" stroke-dasharray="4 3"/><line x1="83.1" y1="40" x2="83.1" y2="150" stroke="#f0a000" stroke-dasharray="4 3"/><text x="40" y="192" font-size="13" fill="#333">j2 — 입력 L(파랑) vs 출력 P(빨강), [-81°, 1°], 32s</text><rect x="40" y="200" width="820" height="110" fill="none" stroke="#ddd"/><polyline fill="none" stroke="#1f77b4" stroke-width="1.2" points=""/><polyline fill="none" stroke="#d62728" stroke-width="1.2" points="40.0,210.6 41.3,210.6 42.5,210.6 43.8,210.6 45.0,210.6 46.3,210.6 47.6,210.6 48.8,210.6 50.1,210.6 51.4,210.6 52.6,210.6 53.9,210.6 55.1,210.6 56.4,210.6 57.7,210.6 58.9,210.6 60.2,210.6 61.4,210.6 62.7,210.6 64.0,210.6 65.2,210.6 66.5,210.6 67.8,210.6 69.0,210.6 70.3,210.6 71.5,210.6 72.8,210.6 74.1,210.6 75.3,210.6 76.6,210.6 77.8,210.6 79.1,210.6 80.4,210.6 81.6,210.6 82.9,210.6 84.2,210.6 85.4,210.6 86.7,210.6 87.9,210.6 89.2,210.6 90.5,210.6 91.7,210.6 93.0,210.6 94.2,210.6 95.5,210.6 96.8,210.6 98.0,210.6 99.3,210.6 100.6,210.6 101.8,210.6 103.1,210.6 104.3,210.6 105.6,210.6 106.9,210.6 108.1,210.6 109.4,210.6 110.6,210.6 111.9,210.6 113.2,210.6 114.4,210.6 115.7,210.6 117.0,210.6 118.2,210.6 119.5,210.6 120.7,210.6 122.0,210.6 123.3,210.6 124.5,210.6 125.8,210.6 127.0,210.7 128.3,210.6 129.6,210.5 130.8,210.5 132.1,210.5 133.4,210.6 134.6,210.6 135.9,210.6 137.1,210.6 138.4,210.1 139.7,209.5 140.9,209.0 142.2,209.0 143.4,209.0 144.7,209.1 146.0,209.3 147.2,209.4 148.5,209.5 149.8,209.5 151.0,209.9 152.3,210.3 153.5,210.8 154.8,211.2 156.1,212.0 157.3,213.2 158.6,215.0 159.8,217.6 161.1,220.9 162.4,225.1 163.6,229.7 164.9,234.7 166.2,239.8 167.4,244.7 168.7,249.5 169.9,253.7 171.2,257.9 172.5,261.8 173.7,265.3 175.0,268.4 176.2,271.4 177.5,273.9 178.8,276.2 180.0,278.0 181.3,279.6 182.6,281.4 183.8,283.4 185.1,284.9 186.3,285.6 187.6,286.3 188.9,286.6 190.1,286.7 191.4,286.7 192.6,286.7 193.9,286.7 195.2,286.7 196.4,286.7 197.7,286.7 199.0,286.7 200.2,286.7 201.5,286.7 202.7,286.9 204.0,287.7 205.3,289.4 206.5,291.3 207.8,293.1 209.0,294.9 210.3,296.5 211.6,297.8 212.8,298.9 214.1,300.1 215.4,301.4 216.6,302.7 217.9,303.8 219.1,304.6 220.4,304.7 221.7,304.7 222.9,305.3 224.2,306.0 225.4,306.4 226.7,306.5 228.0,306.5 229.2,306.5 230.5,306.5 231.8,306.5 233.0,306.5 234.3,306.5 235.5,306.5 236.8,306.5 238.1,306.5 239.3,306.5 240.6,306.5 241.8,306.5 243.1,306.5 244.4,306.5 245.6,306.5 246.9,306.5 248.2,306.5 249.4,306.5 250.7,306.5 251.9,306.5 253.2,306.5 254.5,306.5 255.7,306.5 257.0,306.5 258.2,306.5 259.5,306.4 260.8,306.4 262.0,306.4 263.3,306.4 264.6,306.5 265.8,306.4 267.1,306.3 268.3,306.4 269.6,306.4 270.9,306.4 272.1,306.5 273.4,306.4 274.6,306.4 275.9,306.4 277.2,306.4 278.4,306.5 279.7,306.5 281.0,306.4 282.2,306.4 283.5,306.4 284.7,306.3 286.0,306.4 287.3,306.5 288.5,306.5 289.8,306.5 291.0,306.5 292.3,306.5 293.6,306.5 294.8,306.5 296.1,306.5 297.4,306.5 298.6,306.5 299.9,306.5 301.1,306.4 302.4,306.3 303.7,306.4 304.9,306.5 306.2,306.5 307.4,306.5 308.7,306.4 310.0,306.3 311.2,306.3 312.5,306.3 313.8,306.3 315.0,306.3 316.3,306.3 317.5,306.3 318.8,306.3 320.1,306.3 321.3,306.3 322.6,306.3 323.8,306.3 325.1,306.3 326.4,306.3 327.6,306.3 328.9,306.2 330.2,305.9 331.4,305.5 332.7,305.3 333.9,305.3 335.2,305.2 336.5,305.1 337.7,304.8 339.0,304.5 340.2,304.0 341.5,303.6 342.8,303.2 344.0,302.7 345.3,302.2 346.6,301.6 347.8,301.2 349.1,300.8 350.3,300.3 351.6,299.7 352.9,298.8 354.1,297.8 355.4,296.3 356.6,294.4 357.9,292.5 359.2,290.8 360.4,289.3 361.7,287.9 363.0,286.6 364.2,285.4 365.5,284.1 366.7,282.6 368.0,280.5 369.3,278.1 370.5,275.2 371.8,272.2 373.0,269.1 374.3,266.0 375.6,262.6 376.8,259.3 378.1,256.1 379.4,253.6 380.6,251.5 381.9,249.2 383.1,246.2 384.4,243.0 385.7,239.7 386.9,236.4 388.2,232.9 389.4,229.6 390.7,226.8 392.0,224.3 393.2,222.2 394.5,220.5 395.8,218.9 397.0,217.7 398.3,216.5 399.5,215.9 400.8,215.8 402.1,215.9 403.3,216.4 404.6,218.2 405.8,221.7 407.1,227.0 408.4,233.1 409.6,239.6 410.9,245.6 412.2,250.7 413.4,254.8 414.7,258.5 415.9,262.1 417.2,265.4 418.5,268.5 419.7,271.6 421.0,274.7 422.2,277.8 423.5,280.9 424.8,283.9 426.0,286.9 427.3,289.9 428.6,292.8 429.8,295.9 431.1,299.0 432.3,302.0 433.6,304.6 434.9,306.7 436.1,308.4 437.4,309.6 438.6,310.0 439.9,310.0 441.2,310.0 442.4,310.0 443.7,310.0 445.0,310.0 446.2,309.9 447.5,309.4 448.7,308.3 450.0,306.8 451.3,305.0 452.5,303.4 453.8,302.2 455.0,301.2 456.3,300.4 457.6,300.0 458.8,299.8 460.1,299.8 461.4,299.8 462.6,299.9 463.9,299.8 465.1,299.8 466.4,299.8 467.7,299.8 468.9,299.8 470.2,299.5 471.4,299.0 472.7,298.1 474.0,297.4 475.2,297.0 476.5,296.3 477.8,296.0 479.0,295.9 480.3,295.9 481.5,295.9 482.8,295.9 484.1,295.8 485.3,295.8 486.6,295.9 487.8,295.9 489.1,295.8 490.4,295.8 491.6,295.8 492.9,295.7 494.2,294.7 495.4,292.4 496.7,288.9 497.9,285.1 499.2,281.0 500.5,277.0 501.7,273.0 503.0,269.0 504.2,265.0 505.5,260.8 506.8,256.5 508.0,252.1 509.3,247.6 510.6,243.0 511.8,238.1 513.1,233.5 514.3,229.0 515.6,225.1 516.9,221.8 518.1,219.1 519.4,216.8 520.6,215.1 521.9,213.9 523.2,213.3 524.4,213.2 525.7,213.3 527.0,213.6 528.2,214.2 529.5,214.7 530.7,215.1 532.0,215.3 533.3,215.3 534.5,215.3 535.8,215.3 537.0,215.3 538.3,215.1 539.6,214.4 540.8,213.4 542.1,212.3 543.4,211.3 544.6,210.6 545.9,210.5 547.1,210.5 548.4,210.6 549.7,210.6 550.9,210.6 552.2,210.6 553.4,210.6 554.7,210.8 556.0,211.2 557.2,211.6 558.5,211.8 559.8,211.5 561.0,210.8 562.3,210.4 563.5,210.4 564.8,210.5 566.1,210.6 567.3,210.9 568.6,212.1 569.8,214.8 571.1,219.2 572.4,225.1 573.6,231.1 574.9,236.5 576.2,241.4 577.4,245.5 578.7,249.1 579.9,252.6 581.2,256.2 582.5,259.6 583.7,262.9 585.0,266.4 586.2,269.8 587.5,273.3 588.8,276.6 590.0,279.7 591.3,283.0 592.6,285.9 593.8,288.7 595.1,291.2 596.3,293.3 597.6,295.5 598.9,297.3 600.1,298.7 601.4,300.3 602.6,301.5 603.9,302.7 605.2,303.4 606.4,303.8 607.7,303.7 609.0,303.7 610.2,303.7 611.5,303.7 612.7,303.7 614.0,303.7 615.3,303.3 616.5,302.4 617.8,301.1 619.0,299.9 620.3,299.1 621.6,298.4 622.8,297.8 624.1,297.4 625.4,297.2 626.6,297.2 627.9,297.2 629.1,297.2 630.4,297.2 631.7,297.2 632.9,297.2 634.2,297.2 635.4,297.2 636.7,297.2 638.0,297.2 639.2,297.2 640.5,297.2 641.8,297.2 643.0,297.2 644.3,297.2 645.5,297.2 646.8,297.2 648.1,297.2 649.3,297.2 650.6,297.2 651.8,297.1 653.1,297.2 654.4,297.1 655.6,297.2 656.9,297.2 658.2,297.2 659.4,297.2 660.7,297.2 661.9,297.2 663.2,297.1 664.5,297.2 665.7,297.2 667.0,297.2 668.2,297.1 669.5,297.2 670.8,297.2 672.0,297.2 673.3,297.2 674.6,297.2 675.8,297.2 677.1,297.2 678.3,297.2 679.6,297.2 680.9,297.2 682.1,297.2 683.4,297.1 684.6,296.5 685.9,294.6 687.2,291.7 688.4,288.2 689.7,284.6 691.0,280.6 692.2,276.5 693.5,272.1 694.7,268.0 696.0,263.9 697.3,260.0 698.5,255.7 699.8,251.4 701.0,246.9 702.3,242.5 703.6,238.3 704.8,234.4 706.1,231.0 707.4,227.8 708.6,224.6 709.9,221.9 711.1,219.2 712.4,216.4 713.7,213.5 714.9,210.6 716.2,208.4 717.4,206.6 718.7,205.4 720.0,204.6 721.2,204.0 722.5,203.5 723.8,203.2 725.0,203.1 726.3,203.0 727.5,203.0 728.8,202.9 730.1,202.6 731.3,202.2 732.6,201.7 733.8,201.1 735.1,200.6 736.4,200.6 737.6,200.6 738.9,200.7 740.2,200.9 741.4,200.9 742.7,200.9 743.9,200.9 745.2,200.7 746.5,200.5 747.7,200.2 749.0,200.0 750.2,200.2 751.5,200.4 752.8,200.7 754.0,201.2 755.3,201.4 756.6,201.6 757.8,201.7 759.1,201.8 760.3,201.8 761.6,201.7 762.9,201.7 764.1,201.7 765.4,201.7 766.6,201.6 767.9,201.5 769.2,201.4 770.4,201.1 771.7,200.8 773.0,200.7 774.2,200.6 775.5,200.6 776.7,200.5 778.0,200.4 779.3,200.4 780.5,200.4 781.8,200.2 783.0,200.1 784.3,200.1 785.6,200.1 786.8,200.1 788.1,200.1 789.4,200.1 790.6,200.1 791.9,200.1 793.1,200.1 794.4,200.1 795.7,200.1 796.9,200.1 798.2,200.1 799.4,200.1 800.7,200.1 802.0,200.1 803.2,200.1 804.5,200.1 805.8,200.1 807.0,200.1 808.3,200.1 809.5,200.1 810.8,200.1 812.1,200.1 813.3,200.1 814.6,200.1 815.8,200.1 817.1,200.1 818.4,200.1 819.6,200.1 820.9,200.1 822.2,200.1 823.4,200.1 824.7,200.1 825.9,200.1 827.2,200.1 828.5,200.1 829.7,200.1 831.0,200.1 832.2,200.1 833.5,200.1 834.8,200.1 836.0,200.1 837.3,200.1 838.6,200.1 839.8,200.1 841.1,200.1 842.3,200.1 843.6,200.1 844.9,200.1 846.1,200.1 847.4,200.1 848.6,200.1 849.9,200.1 851.2,200.1 852.4,200.1 853.7,200.1 855.0,200.1 856.2,200.1 857.5,200.1 858.7,200.1 860.0,200.1"/><line x1="83.1" y1="200" x2="83.1" y2="310" stroke="#f0a000" stroke-dasharray="4 3"/><line x1="83.1" y1="200" x2="83.1" y2="310" stroke="#f0a000" stroke-dasharray="4 3"/><line x1="83.1" y1="200" x2="83.1" y2="310" stroke="#f0a000" stroke-dasharray="4 3"/><line x1="83.1" y1="200" x2="83.1" y2="310" stroke="#f0a000" stroke-dasharray="4 3"/><line x1="83.1" y1="200" x2="83.1" y2="310" stroke="#f0a000" stroke-dasharray="4 3"/><line x1="83.1" y1="200" x2="83.1" y2="310" stroke="#f0a000" stroke-dasharray="4 3"/><line x1="83.1" y1="200" x2="83.1" y2="310" stroke="#f0a000" stroke-dasharray="4 3"/><text x="40" y="352" font-size="13" fill="#333">j3 — 입력 L(파랑) vs 출력 P(빨강), [-12°, 62°], 32s</text><rect x="40" y="360" width="820" height="110" fill="none" stroke="#ddd"/><polyline fill="none" stroke="#1f77b4" stroke-width="1.2" points=""/><polyline fill="none" stroke="#d62728" stroke-width="1.2" points="40.0,447.8 41.3,447.8 42.5,447.8 43.8,447.8 45.0,447.8 46.3,447.8 47.6,447.8 48.8,447.8 50.1,447.8 51.4,447.8 52.6,447.8 53.9,447.8 55.1,447.8 56.4,447.8 57.7,447.8 58.9,447.8 60.2,447.8 61.4,447.8 62.7,447.8 64.0,447.8 65.2,447.8 66.5,447.8 67.8,447.8 69.0,447.8 70.3,447.8 71.5,447.8 72.8,447.8 74.1,447.8 75.3,447.8 76.6,447.8 77.8,447.8 79.1,447.8 80.4,447.8 81.6,447.8 82.9,447.8 84.2,447.8 85.4,447.8 86.7,447.8 87.9,447.8 89.2,447.8 90.5,447.8 91.7,447.8 93.0,447.8 94.2,447.8 95.5,447.8 96.8,447.8 98.0,447.8 99.3,447.8 100.6,447.8 101.8,447.7 103.1,447.8 104.3,447.8 105.6,447.8 106.9,447.7 108.1,447.8 109.4,447.8 110.6,447.7 111.9,447.8 113.2,447.8 114.4,447.8 115.7,447.8 117.0,447.8 118.2,447.8 119.5,447.8 120.7,447.8 122.0,447.8 123.3,447.8 124.5,448.2 125.8,448.7 127.0,449.4 128.3,450.2 129.6,450.8 130.8,451.4 132.1,451.8 133.4,452.1 134.6,452.3 135.9,452.5 137.1,452.6 138.4,452.7 139.7,452.9 140.9,452.9 142.2,453.1 143.4,453.4 144.7,453.8 146.0,454.4 147.2,454.9 148.5,455.4 149.8,455.8 151.0,456.2 152.3,456.4 153.5,456.4 154.8,456.4 156.1,456.7 157.3,457.0 158.6,457.3 159.8,457.5 161.1,457.9 162.4,458.3 163.6,458.7 164.9,459.1 166.2,459.7 167.4,460.2 168.7,460.4 169.9,460.4 171.2,460.4 172.5,460.4 173.7,460.5 175.0,460.6 176.2,460.2 177.5,459.1 178.8,457.5 180.0,455.4 181.3,452.8 182.6,450.7 183.8,449.1 185.1,447.7 186.3,446.0 187.6,444.0 188.9,441.3 190.1,438.1 191.4,434.9 192.6,431.7 193.9,428.8 195.2,426.0 196.4,423.1 197.7,420.8 199.0,419.1 200.2,418.3 201.5,418.3 202.7,418.4 204.0,418.5 205.3,419.2 206.5,421.2 207.8,424.1 209.0,427.0 210.3,429.7 211.6,432.7 212.8,435.7 214.1,439.3 215.4,442.9 216.6,446.1 217.9,448.3 219.1,449.4 220.4,450.3 221.7,450.8 222.9,451.0 224.2,450.9 225.4,450.3 226.7,449.3 228.0,447.7 229.2,445.4 230.5,442.7 231.8,439.6 233.0,436.2 234.3,432.9 235.5,429.6 236.8,426.1 238.1,422.8 239.3,420.4 240.6,418.3 241.8,416.7 243.1,415.6 244.4,414.7 245.6,414.1 246.9,413.6 248.2,413.4 249.4,413.3 250.7,413.3 251.9,413.3 253.2,413.3 254.5,413.3 255.7,413.3 257.0,413.3 258.2,413.3 259.5,413.8 260.8,414.3 262.0,414.6 263.3,415.2 264.6,415.4 265.8,415.8 267.1,416.1 268.3,416.6 269.6,416.9 270.9,417.3 272.1,417.7 273.4,418.0 274.6,418.3 275.9,418.5 277.2,418.9 278.4,419.1 279.7,419.6 281.0,420.0 282.2,420.7 283.5,421.5 284.7,422.1 286.0,423.0 287.3,423.5 288.5,423.8 289.8,424.0 291.0,424.1 292.3,424.1 293.6,424.1 294.8,424.1 296.1,424.1 297.4,424.1 298.6,424.1 299.9,424.1 301.1,424.1 302.4,424.1 303.7,424.1 304.9,424.1 306.2,424.1 307.4,424.1 308.7,424.1 310.0,424.1 311.2,424.6 312.5,425.8 313.8,427.1 315.0,428.3 316.3,429.4 317.5,430.3 318.8,431.2 320.1,431.8 321.3,432.1 322.6,432.6 323.8,432.9 325.1,433.2 326.4,433.5 327.6,434.0 328.9,434.2 330.2,434.6 331.4,435.1 332.7,435.3 333.9,436.0 335.2,436.3 336.5,436.5 337.7,436.9 339.0,437.0 340.2,437.1 341.5,437.4 342.8,437.5 344.0,437.5 345.3,437.8 346.6,437.8 347.8,438.1 349.1,438.1 350.3,438.1 351.6,438.1 352.9,438.1 354.1,438.0 355.4,437.4 356.6,435.9 357.9,433.7 359.2,431.4 360.4,429.4 361.7,427.9 363.0,426.3 364.2,424.7 365.5,423.2 366.7,421.6 368.0,420.6 369.3,419.9 370.5,419.4 371.8,418.7 373.0,418.2 374.3,418.0 375.6,418.6 376.8,420.8 378.1,424.4 379.4,428.5 380.6,432.8 381.9,437.3 383.1,441.5 384.4,445.4 385.7,448.6 386.9,451.4 388.2,453.8 389.4,456.4 390.7,459.1 392.0,461.9 393.2,464.4 394.5,466.5 395.8,468.0 397.0,469.0 398.3,469.4 399.5,469.7 400.8,469.9 402.1,470.0 403.3,469.5 404.6,467.7 405.8,464.5 407.1,460.3 408.4,455.3 409.6,450.2 410.9,445.3 412.2,440.4 413.4,435.8 414.7,431.6 415.9,428.2 417.2,425.4 418.5,423.5 419.7,422.1 421.0,421.3 422.2,420.8 423.5,420.6 424.8,420.6 426.0,420.6 427.3,420.7 428.6,421.4 429.8,423.3 431.1,426.4 432.3,430.3 433.6,434.8 434.9,438.9 436.1,442.1 437.4,443.2 438.6,443.3 439.9,443.2 441.2,441.9 442.4,438.1 443.7,432.4 445.0,424.8 446.2,415.9 447.5,406.6 448.7,397.8 450.0,390.0 451.3,383.5 452.5,378.4 453.8,374.7 455.0,372.2 456.3,370.6 457.6,369.9 458.8,369.9 460.1,369.9 461.4,370.0 462.6,370.3 463.9,371.1 465.1,371.6 466.4,371.7 467.7,371.6 468.9,371.0 470.2,369.3 471.4,367.3 472.7,364.9 474.0,362.6 475.2,361.0 476.5,360.2 477.8,360.0 479.0,360.0 480.3,360.1 481.5,360.1 482.8,360.8 484.1,361.8 485.3,362.9 486.6,364.0 487.8,365.3 489.1,366.7 490.4,368.4 491.6,370.6 492.9,373.3 494.2,376.5 495.4,380.1 496.7,383.9 497.9,387.5 499.2,390.9 500.5,394.1 501.7,397.5 503.0,401.3 504.2,405.2 505.5,409.3 506.8,413.9 508.0,418.3 509.3,422.0 510.6,425.4 511.8,428.5 513.1,431.5 514.3,434.4 515.6,437.1 516.9,439.4 518.1,441.2 519.4,442.3 520.6,443.2 521.9,443.7 523.2,444.5 524.4,445.2 525.7,446.2 527.0,446.9 528.2,447.6 529.5,447.8 530.7,447.8 532.0,447.6 533.3,447.5 534.5,446.9 535.8,445.6 537.0,444.2 538.3,443.0 539.6,442.0 540.8,441.4 542.1,441.1 543.4,441.0 544.6,441.0 545.9,441.1 547.1,441.6 548.4,442.3 549.7,442.9 550.9,443.8 552.2,444.7 553.4,446.4 554.7,447.8 556.0,448.2 557.2,448.8 558.5,449.4 559.8,450.5 561.0,451.5 562.3,452.4 563.5,452.6 564.8,452.4 566.1,452.0 567.3,451.4 568.6,450.4 569.8,448.3 571.1,445.0 572.4,440.9 573.6,436.3 574.9,431.3 576.2,425.8 577.4,419.7 578.7,414.2 579.9,409.4 581.2,405.3 582.5,402.1 583.7,399.8 585.0,397.9 586.2,396.3 587.5,395.1 588.8,394.3 590.0,393.7 591.3,393.5 592.6,393.5 593.8,393.5 595.1,393.5 596.3,393.5 597.6,393.5 598.9,393.6 600.1,393.5 601.4,393.5 602.6,393.5 603.9,393.5 605.2,393.5 606.4,393.5 607.7,393.3 609.0,392.0 610.2,390.0 611.5,387.3 612.7,383.8 614.0,380.0 615.3,376.3 616.5,373.3 617.8,370.8 619.0,368.8 620.3,367.4 621.6,366.3 622.8,365.3 624.1,364.9 625.4,364.6 626.6,364.5 627.9,364.5 629.1,364.5 630.4,364.5 631.7,364.4 632.9,364.4 634.2,364.9 635.4,365.8 636.7,366.9 638.0,368.2 639.2,369.6 640.5,370.9 641.8,372.1 643.0,373.4 644.3,374.5 645.5,375.5 646.8,376.6 648.1,377.6 649.3,378.5 650.6,379.6 651.8,380.6 653.1,381.6 654.4,382.5 655.6,383.7 656.9,384.6 658.2,385.4 659.4,386.1 660.7,386.7 661.9,387.3 663.2,388.0 664.5,388.8 665.7,389.7 667.0,390.7 668.2,391.6 669.5,392.5 670.8,393.5 672.0,394.2 673.3,395.1 674.6,395.5 675.8,395.8 677.1,395.8 678.3,395.8 679.6,395.8 680.9,395.8 682.1,395.8 683.4,395.5 684.6,394.7 685.9,393.6 687.2,392.7 688.4,392.5 689.7,392.9 691.0,395.0 692.2,398.6 693.5,402.9 694.7,407.8 696.0,413.1 697.3,418.7 698.5,424.5 699.8,430.6 701.0,436.6 702.3,442.4 703.6,447.8 704.8,452.5 706.1,456.7 707.4,460.0 708.6,462.3 709.9,464.0 711.1,465.4 712.4,466.4 713.7,466.8 714.9,466.8 716.2,466.5 717.4,466.0 718.7,465.4 720.0,464.8 721.2,464.1 722.5,462.8 723.8,461.5 725.0,460.2 726.3,459.4 727.5,458.7 728.8,458.3 730.1,457.8 731.3,457.0 732.6,456.0 733.8,455.1 735.1,454.4 736.4,454.0 737.6,453.9 738.9,453.7 740.2,453.8 741.4,453.8 742.7,453.8 743.9,453.4 745.2,453.4 746.5,453.3 747.7,453.3 749.0,453.7 750.2,454.1 751.5,455.0 752.8,456.2 754.0,457.3 755.3,458.0 756.6,458.1 757.8,457.8 759.1,457.2 760.3,456.3 761.6,455.1 762.9,454.0 764.1,453.3 765.4,452.7 766.6,452.2 767.9,451.8 769.2,451.3 770.4,450.9 771.7,450.6 773.0,450.6 774.2,450.7 775.5,450.8 776.7,451.0 778.0,451.2 779.3,451.3 780.5,451.3 781.8,451.3 783.0,451.3 784.3,451.3 785.6,451.3 786.8,451.3 788.1,451.3 789.4,451.3 790.6,451.3 791.9,451.3 793.1,451.3 794.4,451.3 795.7,451.3 796.9,451.3 798.2,451.3 799.4,451.3 800.7,451.3 802.0,451.3 803.2,451.3 804.5,451.3 805.8,451.3 807.0,451.3 808.3,451.3 809.5,451.3 810.8,451.3 812.1,451.3 813.3,451.3 814.6,451.3 815.8,451.3 817.1,451.3 818.4,451.3 819.6,451.3 820.9,451.3 822.2,451.3 823.4,451.3 824.7,451.3 825.9,451.3 827.2,451.3 828.5,451.3 829.7,451.3 831.0,451.3 832.2,451.3 833.5,451.3 834.8,451.3 836.0,451.3 837.3,451.3 838.6,451.3 839.8,451.3 841.1,451.3 842.3,451.3 843.6,451.3 844.9,451.3 846.1,451.3 847.4,451.3 848.6,451.3 849.9,451.3 851.2,451.3 852.4,451.3 853.7,451.3 855.0,451.3 856.2,451.3 857.5,451.3 858.7,451.3 860.0,451.3"/><line x1="83.1" y1="360" x2="83.1" y2="470" stroke="#f0a000" stroke-dasharray="4 3"/><line x1="83.1" y1="360" x2="83.1" y2="470" stroke="#f0a000" stroke-dasharray="4 3"/><line x1="83.1" y1="360" x2="83.1" y2="470" stroke="#f0a000" stroke-dasharray="4 3"/><line x1="83.1" y1="360" x2="83.1" y2="470" stroke="#f0a000" stroke-dasharray="4 3"/><line x1="83.1" y1="360" x2="83.1" y2="470" stroke="#f0a000" stroke-dasharray="4 3"/><line x1="83.1" y1="360" x2="83.1" y2="470" stroke="#f0a000" stroke-dasharray="4 3"/><line x1="83.1" y1="360" x2="83.1" y2="470" stroke="#f0a000" stroke-dasharray="4 3"/></svg>