<svg xmlns="http://www.w3.org/2000/svg" width="900" height="520" font-family="sans-serif"><text x="40" y="32" font-size="13" fill="#333">j1 — 입력 L(파랑) vs 출력 P(빨강), [-9°, 85°], 36s</text><rect x="40" y="40" width="820" height="110" fill="none" stroke="#ddd"/><polyline fill="none" stroke="#1f77b4" stroke-width="1.2" points=""/><polyline fill="none" stroke="#d62728" stroke-width="1.2" points="40.0,139.9 41.1,139.9 42.3,139.9 43.4,139.9 44.5,139.9 45.6,139.9 46.8,139.9 47.9,139.9 49.0,139.9 50.1,139.9 51.3,139.9 52.4,139.9 53.5,139.9 54.6,139.9 55.8,139.9 56.9,139.9 58.0,139.9 59.1,139.9 60.3,140.1 61.4,140.2 62.5,140.5 63.7,140.6 64.8,140.7 65.9,140.8 67.0,140.8 68.2,140.8 69.3,140.8 70.4,140.9 71.5,141.1 72.7,141.1 73.8,141.2 74.9,141.2 76.0,141.2 77.2,141.2 78.3,141.2 79.4,140.9 80.5,140.7 81.7,140.7 82.8,140.6 83.9,140.6 85.1,140.5 86.2,139.9 87.3,139.1 88.4,138.1 89.6,136.8 90.7,135.6 91.8,134.3 92.9,133.0 94.1,131.8 95.2,130.7 96.3,129.6 97.4,128.8 98.6,128.6 99.7,128.5 100.8,128.6 102.0,128.5 103.1,128.6 104.2,128.6 105.3,128.6 106.5,128.8 107.6,128.7 108.7,128.4 109.8,127.4 111.0,125.2 112.1,122.0 113.2,118.4 114.3,114.9 115.5,111.8 116.6,109.2 117.7,107.1 118.8,104.9 120.0,102.5 121.1,100.1 122.2,97.5 123.4,94.6 124.5,91.9 125.6,89.1 126.7,86.6 127.9,84.3 129.0,82.3 130.1,80.4 131.2,78.9 132.4,77.4 133.5,76.1 134.6,74.9 135.7,74.1 136.9,73.7 138.0,73.2 139.1,72.6 140.2,71.9 141.4,71.0 142.5,70.4 143.6,69.8 144.8,69.6 145.9,69.6 147.0,69.6 148.1,69.5 149.3,69.0 150.4,68.2 151.5,67.2 152.6,66.1 153.8,64.9 154.9,63.9 156.0,62.9 157.1,62.1 158.3,61.2 159.4,60.1 160.5,59.1 161.6,58.5 162.8,58.3 163.9,58.3 165.0,58.3 166.2,58.3 167.3,58.3 168.4,58.3 169.5,58.4 170.7,58.7 171.8,59.5 172.9,60.8 174.0,62.2 175.2,63.8 176.3,65.8 177.4,68.2 178.5,70.9 179.7,73.4 180.8,76.2 181.9,78.6 183.0,80.7 184.2,82.2 185.3,83.3 186.4,83.6 187.6,83.7 188.7,83.7 189.8,83.7 190.9,83.7 192.1,83.6 193.2,82.6 194.3,80.8 195.4,78.5 196.6,76.1 197.7,73.9 198.8,72.3 199.9,70.9 201.1,69.9 202.2,69.1 203.3,68.5 204.5,67.9 205.6,67.1 206.7,65.9 207.8,64.7 209.0,63.9 210.1,63.5 211.2,63.5 212.3,63.6 213.5,63.5 214.6,63.5 215.7,63.5 216.8,63.6 218.0,63.7 219.1,64.1 220.2,64.9 221.3,66.0 222.5,67.0 223.6,67.5 224.7,67.7 225.9,67.9 227.0,67.9 228.1,67.9 229.2,67.9 230.4,67.8 231.5,66.9 232.6,65.1 233.7,62.8 234.9,60.9 236.0,59.3 237.1,57.9 238.2,56.7 239.4,55.7 240.5,54.6 241.6,53.8 242.7,53.3 243.9,53.3 245.0,53.1 246.1,53.1 247.3,53.1 248.4,53.1 249.5,53.0 250.6,52.2 251.8,50.4 252.9,48.4 254.0,46.9 255.1,46.3 256.3,46.3 257.4,46.3 258.5,46.3 259.6,46.3 260.8,46.3 261.9,46.3 263.0,46.3 264.1,46.3 265.3,46.3 266.4,46.3 267.5,46.3 268.7,46.3 269.8,46.4 270.9,46.4 272.0,46.4 273.2,46.4 274.3,46.4 275.4,46.4 276.5,46.4 277.7,46.5 278.8,47.1 279.9,47.8 281.0,48.7 282.2,49.2 283.3,49.4 284.4,49.4 285.5,49.6 286.7,50.2 287.8,50.4 288.9,50.4 290.1,50.4 291.2,50.4 292.3,50.4 293.4,50.4 294.6,50.4 295.7,50.4 296.8,50.4 297.9,50.4 299.1,50.4 300.2,50.4 301.3,50.4 302.4,50.4 303.6,50.4 304.7,50.4 305.8,50.4 307.0,50.4 308.1,50.4 309.2,50.4 310.3,50.4 311.5,50.4 312.6,50.4 313.7,50.4 314.8,49.7 316.0,48.5 317.1,47.1 318.2,45.6 319.3,44.0 320.5,42.4 321.6,41.2 322.7,40.3 323.8,40.0 325.0,40.0 326.1,40.0 327.2,40.0 328.4,40.5 329.5,42.5 330.6,46.1 331.7,50.7 332.9,55.4 334.0,59.8 335.1,63.9 336.2,68.0 337.4,72.0 338.5,76.0 339.6,79.9 340.7,84.3 341.9,88.8 343.0,93.0 344.1,97.0 345.2,100.9 346.4,104.7 347.5,108.3 348.6,111.6 349.8,115.0 350.9,118.2 352.0,121.3 353.1,124.2 354.3,127.0 355.4,129.5 356.5,131.4 357.6,132.9 358.8,134.0 359.9,134.4 361.0,134.4 362.1,134.6 363.3,135.0 364.4,135.5 365.5,135.8 366.6,135.8 367.8,135.6 368.9,134.8 370.0,133.4 371.2,131.8 372.3,130.2 373.4,129.1 374.5,128.7 375.7,128.8 376.8,128.8 377.9,128.8 379.0,128.8 380.2,128.8 381.3,128.8 382.4,128.8 383.5,128.8 384.7,128.4 385.8,127.3 386.9,125.2 388.0,122.7 389.2,119.6 390.3,116.2 391.4,112.8 392.6,110.1 393.7,108.4 394.8,107.6 395.9,107.3 397.1,107.3 398.2,107.7 399.3,108.7 400.4,110.8 401.6,113.9 402.7,117.2 403.8,120.6 404.9,123.7 406.1,126.7 407.2,129.1 408.3,131.2 409.5,132.7 410.6,133.9 411.7,134.9 412.8,135.8 414.0,136.9 415.1,138.4 416.2,140.5 417.3,142.4 418.5,143.8 419.6,145.0 420.7,146.0 421.8,146.4 423.0,146.5 424.1,146.5 425.2,146.5 426.3,146.5 427.5,146.5 428.6,146.5 429.7,146.5 430.9,146.6 432.0,146.6 433.1,146.8 434.2,146.9 435.4,147.0 436.5,147.1 437.6,147.3 438.7,147.4 439.9,147.1 441.0,146.6 442.1,145.3 443.2,143.4 444.4,141.5 445.5,139.4 446.6,137.4 447.7,135.3 448.9,133.1 450.0,130.9 451.1,128.5 452.3,126.2 453.4,123.9 454.5,121.6 455.6,119.5 456.8,117.6 457.9,116.0 459.0,114.7 460.1,113.6 461.3,112.6 462.4,111.9 463.5,110.8 464.6,108.9 465.8,106.2 466.9,102.4 468.0,98.1 469.1,93.3 470.3,89.0 471.4,85.2 472.5,81.7 473.7,78.8 474.8,76.6 475.9,74.7 477.0,73.8 478.2,73.6 479.3,73.4 480.4,73.4 481.5,73.4 482.7,73.8 483.8,75.4 484.9,78.6 486.0,82.9 487.2,87.8 488.3,92.6 489.4,97.4 490.5,102.2 491.7,107.4 492.8,112.9 493.9,118.7 495.1,124.2 496.2,129.1 497.3,133.0 498.4,136.0 499.6,137.8 500.7,138.8 501.8,138.9 502.9,138.9 504.1,138.9 505.2,138.7 506.3,138.3 507.4,137.6 508.6,136.5 509.7,135.2 510.8,133.9 512.0,133.2 513.1,133.2 514.2,133.4 515.3,134.2 516.5,135.7 517.6,137.4 518.7,139.2 519.8,141.0 521.0,141.9 522.1,142.4 523.2,142.7 524.3,142.9 525.5,143.3 526.6,143.6 527.7,143.7 528.8,143.6 530.0,143.0 531.1,141.4 532.2,138.8 533.4,135.2 534.5,130.9 535.6,126.5 536.7,122.5 537.9,118.8 539.0,115.4 540.1,112.2 541.2,109.5 542.4,106.8 543.5,104.4 544.6,102.2 545.7,100.5 546.9,99.1 548.0,98.0 549.1,97.1 550.2,96.6 551.4,96.6 552.5,96.6 553.6,96.6 554.8,96.6 555.9,96.8 557.0,97.8 558.1,99.3 559.3,101.4 560.4,103.6 561.5,105.3 562.6,107.2 563.8,109.1 564.9,111.1 566.0,112.8 567.1,114.1 568.3,115.2 569.4,115.7 570.5,115.7 571.6,115.7 572.8,115.6 573.9,115.1 575.0,113.7 576.2,111.2 577.3,108.0 578.4,104.3 579.5,100.7 580.7,97.6 581.8,94.9 582.9,92.7 584.0,90.6 585.2,88.8 586.3,87.1 587.4,85.7 588.5,85.0 589.7,84.8 590.8,84.8 591.9,84.8 593.0,84.8 594.2,84.8 595.3,84.8 596.4,84.8 597.6,84.8 598.7,84.8 599.8,84.8 600.9,84.8 602.1,84.8 603.2,84.8 604.3,84.8 605.4,84.8 606.6,84.8 607.7,84.8 608.8,84.8 609.9,84.8 611.1,85.2 612.2,85.9 613.3,86.5 614.5,86.9 615.6,86.9 616.7,86.9 617.8,87.0 619.0,87.3 620.1,87.8 621.2,88.6 622.3,89.6 623.5,91.0 624.6,92.9 625.7,94.9 626.8,97.4 628.0,99.8 629.1,102.4 630.2,105.1 631.3,108.2 632.5,111.7 633.6,116.1 634.7,120.9 635.9,125.8 637.0,130.7 638.1,134.8 639.2,138.3 640.4,141.1 641.5,143.2 642.6,144.8 643.7,146.0 644.9,146.9 646.0,147.6 647.1,148.0 648.2,148.5 649.4,148.7 650.5,148.8 651.6,148.8 652.7,148.7 653.9,148.6 655.0,148.3 656.1,147.5 657.3,146.6 658.4,145.4 659.5,144.3 660.6,143.3 661.8,142.5 662.9,141.2 664.0,139.6 665.1,137.4 666.3,134.4 667.4,130.7 668.5,126.8 669.6,123.0 670.8,119.3 671.9,115.4 673.0,111.6 674.1,108.0 675.3,104.3 676.4,100.5 677.5,97.0 678.7,93.6 679.8,90.2 680.9,87.1 682.0,84.4 683.2,82.2 684.3,80.4 685.4,79.2 686.5,78.8 687.7,78.8 688.8,78.7 689.9,78.7 691.0,78.7 692.2,79.0 693.3,80.3 694.4,82.3 695.5,84.4 696.7,86.5 697.8,88.1 698.9,89.3 700.1,90.4 701.2,91.4 702.3,92.2 703.4,92.5 704.6,92.5 705.7,92.5 706.8,92.5 707.9,92.5 709.1,92.5 710.2,92.6 711.3,92.6 712.4,92.6 713.6,92.6 714.7,92.6 715.8,92.5 717.0,92.5 718.1,92.5 719.2,92.5 720.3,92.5 721.5,92.7 722.6,93.8 723.7,96.7 724.8,100.9 726.0,105.8 727.1,110.5 728.2,115.1 729.3,118.7 730.5,121.1 731.6,122.9 732.7,124.1 733.8,124.9 735.0,126.2 736.1,128.0 737.2,130.5 738.4,133.5 739.5,136.7 740.6,139.1 741.7,140.7 742.9,141.3 744.0,141.2 745.1,141.2 746.2,141.2 747.4,141.4 748.5,141.6 749.6,142.0 750.7,142.5 751.9,143.0 753.0,143.5 754.1,143.8 755.2,144.0 756.4,144.1 757.5,144.1 758.6,144.1 759.8,144.1 760.9,144.1 762.0,144.1 763.1,144.3 764.3,144.5 765.4,145.0 766.5,145.6 767.6,146.3 768.8,147.1 769.9,147.7 771.0,148.3 772.1,148.7 773.3,149.1 774.4,149.2 775.5,149.3 776.6,149.3 777.8,149.3 778.9,149.3 780.0,149.3 781.2,149.3 782.3,149.3 783.4,149.3 784.5,149.5 785.7,149.6 786.8,149.6 787.9,149.7 789.0,149.8 790.2,149.9 791.3,150.0 792.4,150.0 793.5,150.0 794.7,150.0 795.8,150.0 796.9,150.0 798.0,150.0 799.2,150.0 800.3,150.0 801.4,150.0 802.6,150.0 803.7,150.0 804.8,150.0 805.9,150.0 807.1,150.0 808.2,150.0 809.3,150.0 810.4,150.0 811.6,150.0 812.7,150.0 813.8,150.0 814.9,150.0 816.1,150.0 817.2,150.0 818.3,150.0 819.5,150.0 820.6,150.0 821.7,150.0 822.8,150.0 824.0,150.0 825.1,150.0 826.2,150.0 827.3,150.0 828.5,150.0 829.6,150.0 830.7,150.0 831.8,150.0 833.0,150.0 834.1,150.0 835.2,150.0 836.3,150.0 837.5,150.0 838.6,150.0 839.7,150.0 840.9,150.0 842.0,150.0 843.1,150.0 844.2,150.0 845.4,150.0 846.5,150.0 847.6,150.0 848.7,150.0 849.9,150.0 851.0,150.0 852.1,150.0 853.2,150.0 854.4,150.0 855.5,150.0 856.6,150.0 857.7,150.0 858.9,150.0 860.0,150.0"/><text x="40" y="192" font-size="13" fill="#333">j2 — 입력 L(파랑) vs 출력 P(빨강), [-76°, 24°], 36s</text><rect x="40" y="200" width="820" height="110" fill="none" stroke="#ddd"/><polyline fill="none" stroke="#1f77b4" stroke-width="1.2" points=""/><polyline fill="none" stroke="#d62728" stroke-width="1.2" points="40.0,231.2 41.1,231.2 42.3,231.1 43.4,231.1 44.5,231.2 45.6,231.2 46.8,231.1 47.9,231.1 49.0,231.0 50.1,230.9 51.3,230.9 52.4,230.7 53.5,230.6 54.6,230.6 55.8,230.6 56.9,230.9 58.0,231.7 59.1,233.3 60.3,235.5 61.4,238.2 62.5,241.1 63.7,244.2 64.8,247.0 65.9,249.7 67.0,252.5 68.2,255.4 69.3,258.1 70.4,260.8 71.5,263.3 72.7,265.8 73.8,268.1 74.9,270.5 76.0,273.1 77.2,275.9 78.3,278.7 79.4,281.5 80.5,284.4 81.7,287.2 82.8,289.8 83.9,292.2 85.1,294.4 86.2,296.5 87.3,298.6 88.4,300.5 89.6,302.4 90.7,304.3 91.8,305.8 92.9,307.2 94.1,308.6 95.2,309.5 96.3,309.9 97.4,310.0 98.6,309.9 99.7,309.9 100.8,309.9 102.0,309.9 103.1,309.9 104.2,309.9 105.3,309.9 106.5,309.9 107.6,309.9 108.7,309.9 109.8,309.9 111.0,309.9 112.1,309.7 113.2,309.0 114.3,307.9 115.5,306.3 116.6,304.4 117.7,302.6 118.8,300.9 120.0,299.3 121.1,297.6 122.2,295.8 123.4,293.8 124.5,291.8 125.6,289.9 126.7,288.0 127.9,285.7 129.0,283.4 130.1,280.9 131.2,278.4 132.4,275.7 133.5,273.0 134.6,270.3 135.7,267.7 136.9,265.2 138.0,262.9 139.1,260.7 140.2,258.4 141.4,256.0 142.5,253.8 143.6,251.5 144.8,249.2 145.9,247.2 147.0,245.1 148.1,243.0 149.3,240.7 150.4,238.4 151.5,236.1 152.6,234.1 153.8,232.2 154.9,230.3 156.0,228.3 157.1,226.2 158.3,224.3 159.4,222.1 160.5,219.7 161.6,217.1 162.8,214.8 163.9,212.9 165.0,211.5 166.2,210.8 167.3,210.7 168.4,210.7 169.5,210.7 170.7,210.7 171.8,210.7 172.9,210.7 174.0,210.7 175.2,210.8 176.3,211.1 177.4,211.7 178.5,212.6 179.7,213.5 180.8,214.3 181.9,215.0 183.0,215.3 184.2,215.3 185.3,215.3 186.4,215.1 187.6,214.8 188.7,214.1 189.8,213.3 190.9,212.5 192.1,211.9 193.2,211.3 194.3,210.8 195.4,210.2 196.6,209.5 197.7,208.8 198.8,208.2 199.9,207.8 201.1,207.2 202.2,206.7 203.3,206.1 204.5,205.7 205.6,205.4 206.7,205.2 207.8,205.2 209.0,205.2 210.1,205.2 211.2,205.3 212.3,206.0 213.5,207.5 214.6,209.7 215.7,212.4 216.8,215.3 218.0,218.0 219.1,220.6 220.2,222.9 221.3,225.0 222.5,226.8 223.6,228.4 224.7,229.6 225.9,230.3 227.0,230.6 228.1,230.7 229.2,230.7 230.4,230.5 231.5,230.3 232.6,230.0 233.7,229.4 234.9,228.8 236.0,228.3 237.1,228.0 238.2,227.9 239.4,227.9 240.5,227.9 241.6,227.8 242.7,227.8 243.9,227.8 245.0,227.8 246.1,227.8 247.3,227.8 248.4,227.9 249.5,228.0 250.6,228.0 251.8,228.0 252.9,228.2 254.0,228.5 255.1,228.8 256.3,229.0 257.4,229.4 258.5,229.6 259.6,229.8 260.8,229.8 261.9,229.8 263.0,229.8 264.1,229.8 265.3,229.8 266.4,229.8 267.5,229.8 268.7,229.8 269.8,229.8 270.9,229.8 272.0,229.8 273.2,229.8 274.3,229.9 275.4,230.0 276.5,230.3 277.7,230.7 278.8,231.1 279.9,231.5 281.0,231.7 282.2,231.8 283.3,231.9 284.4,232.0 285.5,232.2 286.7,232.4 287.8,232.6 288.9,232.7 290.1,232.8 291.2,233.0 292.3,233.2 293.4,233.3 294.6,233.7 295.7,234.1 296.8,234.6 297.9,235.0 299.1,235.5 300.2,235.7 301.3,235.8 302.4,235.9 303.6,235.9 304.7,235.8 305.8,235.6 307.0,235.1 308.1,234.3 309.2,232.9 310.3,231.2 311.5,229.1 312.6,226.7 313.7,224.3 314.8,221.3 316.0,218.2 317.1,214.9 318.2,211.7 319.3,208.8 320.5,205.9 321.6,203.6 322.7,202.0 323.8,201.0 325.0,200.3 326.1,200.1 327.2,200.1 328.4,200.0 329.5,200.0 330.6,200.3 331.7,201.1 332.9,202.5 334.0,204.7 335.1,207.4 336.2,210.0 337.4,212.5 338.5,214.8 339.6,216.9 340.7,219.0 341.9,221.1 343.0,223.0 344.1,225.0 345.2,226.4 346.4,227.5 347.5,228.2 348.6,228.6 349.8,228.9 350.9,229.2 352.0,229.7 353.1,230.4 354.3,231.4 355.4,232.6 356.5,233.8 357.6,234.8 358.8,235.5 359.9,236.0 361.0,236.2 362.1,236.2 363.3,236.2 364.4,236.2 365.5,236.2 366.6,236.3 367.8,236.6 368.9,237.2 370.0,237.9 371.2,238.6 372.3,239.4 373.4,240.0 374.5,240.6 375.7,241.0 376.8,241.3 377.9,241.4 379.0,241.6 380.2,241.7 381.3,241.8 382.4,241.8 383.5,241.8 384.7,241.7 385.8,241.1 386.9,240.2 388.0,239.3 389.2,238.3 390.3,236.3 391.4,234.0 392.6,231.8 393.7,230.2 394.8,229.2 395.9,228.9 397.1,229.1 398.2,229.7 399.3,230.6 400.4,232.0 401.6,233.8 402.7,236.3 403.8,238.6 404.9,240.4 406.1,241.2 407.2,242.0 408.3,242.7 409.5,243.0 410.6,243.0 411.7,242.9 412.8,242.7 414.0,242.2 415.1,241.4 416.2,241.0 417.3,241.0 418.5,241.0 419.6,240.9 420.7,241.0 421.8,241.0 423.0,241.4 424.1,242.4 425.2,243.9 426.3,246.0 427.5,248.4 428.6,250.7 429.7,252.7 430.9,254.1 432.0,254.9 433.1,255.3 434.2,255.4 435.4,255.4 436.5,255.4 437.6,255.5 438.7,255.6 439.9,255.8 441.0,256.5 442.1,257.3 443.2,258.0 444.4,258.5 445.5,258.8 446.6,259.0 447.7,259.0 448.9,259.1 450.0,259.4 451.1,259.8 452.3,259.9 453.4,259.9 454.5,259.9 455.6,259.6 456.8,258.5 457.9,257.3 459.0,256.2 460.1,255.1 461.3,254.0 462.4,252.8 463.5,251.2 464.6,249.0 465.8,246.1 466.9,242.0 468.0,237.0 469.1,232.0 470.3,226.8 471.4,221.6 472.5,216.7 473.7,212.2 474.8,208.5 475.9,205.8 477.0,204.3 478.2,203.7 479.3,203.7 480.4,204.0 481.5,205.4 482.7,208.3 483.8,212.4 484.9,218.0 486.0,224.6 487.2,231.2 488.3,237.4 489.4,243.1 490.5,247.9 491.7,252.1 492.8,255.2 493.9,257.0 495.1,257.3 496.2,257.3 497.3,257.3 498.4,257.3 499.6,257.2 500.7,256.9 501.8,256.1 502.9,255.6 504.1,255.3 505.2,255.3 506.3,255.2 507.4,255.2 508.6,254.9 509.7,254.6 510.8,254.3 512.0,253.8 513.1,253.5 514.2,253.2 515.3,252.5 516.5,251.5 517.6,249.8 518.7,247.5 519.8,244.5 521.0,240.9 522.1,237.5 523.2,234.8 524.3,233.1 525.5,232.2 526.6,231.9 527.7,231.5 528.8,231.4 530.0,231.4 531.1,231.4 532.2,231.4 533.4,231.4 534.5,231.1 535.6,230.7 536.7,230.1 537.9,229.4 539.0,228.5 540.1,227.3 541.2,226.3 542.4,225.4 543.5,224.8 544.6,224.5 545.7,223.9 546.9,223.5 548.0,223.0 549.1,222.7 550.2,222.6 551.4,222.7 552.5,223.4 553.6,225.1 554.8,227.9 555.9,231.4 557.0,235.2 558.1,239.1 559.3,242.8 560.4,245.9 561.5,248.5 562.6,250.7 563.8,252.4 564.9,253.8 566.0,254.9 567.1,255.7 568.3,256.2 569.4,256.4 570.5,256.6 571.6,256.7 572.8,256.7 573.9,256.5 575.0,256.0 576.2,254.4 577.3,252.1 578.4,249.4 579.5,246.6 580.7,243.6 581.8,240.5 582.9,237.3 584.0,234.3 585.2,231.3 586.3,228.7 587.4,226.7 588.5,224.9 589.7,223.8 590.8,223.4 591.9,223.4 593.0,223.5 594.2,223.7 595.3,224.2 596.4,224.8 597.6,225.8 598.7,227.0 599.8,228.1 600.9,229.3 602.1,230.9 603.2,232.7 604.3,234.3 605.4,235.8 606.6,237.0 607.7,238.0 608.8,239.1 609.9,240.2 611.1,241.4 612.2,242.3 613.3,242.9 614.5,243.2 615.6,243.2 616.7,243.2 617.8,243.2 619.0,243.2 620.1,243.2 621.2,243.2 622.3,242.8 623.5,241.8 624.6,240.2 625.7,238.6 626.8,237.1 628.0,235.8 629.1,235.0 630.2,234.7 631.3,234.7 632.5,234.9 633.6,235.2 634.7,235.8 635.9,236.4 637.0,237.1 638.1,238.2 639.2,239.3 640.4,240.4 641.5,241.7 642.6,243.0 643.7,244.1 644.9,245.5 646.0,246.7 647.1,248.1 648.2,249.9 649.4,252.2 650.5,255.1 651.6,258.3 652.7,261.8 653.9,264.9 655.0,267.7 656.1,270.3 657.3,272.6 658.4,274.5 659.5,276.0 660.6,277.3 661.8,278.4 662.9,279.3 664.0,280.1 665.1,281.0 666.3,282.1 667.4,283.2 668.5,283.9 669.6,284.3 670.8,284.5 671.9,284.5 673.0,284.6 674.1,284.5 675.3,284.0 676.4,282.9 677.5,281.6 678.7,280.8 679.8,280.7 680.9,280.5 682.0,280.4 683.2,280.0 684.3,279.5 685.4,279.1 686.5,278.7 687.7,278.3 688.8,278.2 689.9,278.2 691.0,278.2 692.2,278.2 693.3,278.2 694.4,278.1 695.5,278.1 696.7,277.9 697.8,277.2 698.9,276.3 700.1,275.5 701.2,274.5 702.3,273.4 703.4,272.8 704.6,272.6 705.7,272.6 706.8,272.6 707.9,272.6 709.1,272.6 710.2,272.6 711.3,272.6 712.4,272.7 713.6,272.7 714.7,272.7 715.8,272.9 717.0,273.0 718.1,273.1 719.2,273.2 720.3,273.3 721.5,273.4 722.6,273.4 723.7,273.4 724.8,273.4 726.0,272.9 727.1,271.2 728.2,268.1 729.3,264.6 730.5,261.0 731.6,257.4 732.7,253.8 733.8,250.2 735.0,246.6 736.1,243.5 737.2,241.3 738.4,239.9 739.5,239.0 740.6,238.2 741.7,237.3 742.9,236.5 744.0,235.6 745.1,235.0 746.2,234.7 747.4,234.7 748.5,234.8 749.6,234.8 750.7,234.8 751.9,234.8 753.0,234.8 754.1,234.5 755.2,234.0 756.4,233.6 757.5,233.3 758.6,233.2 759.8,233.1 760.9,233.0 762.0,233.0 763.1,232.9 764.3,232.9 765.4,233.0 766.5,232.9 767.6,233.0 768.8,233.0 769.9,233.1 771.0,233.1 772.1,233.2 773.3,233.2 774.4,233.3 775.5,233.5 776.6,233.7 777.8,233.9 778.9,234.1 780.0,234.4 781.2,234.6 782.3,234.8 783.4,234.9 784.5,235.0 785.7,235.0 786.8,235.0 787.9,235.0 789.0,235.0 790.2,235.0 791.3,235.0 792.4,235.0 793.5,235.0 794.7,235.0 795.8,235.0 796.9,235.0 798.0,235.0 799.2,235.0 800.3,235.0 801.4,235.0 802.6,235.0 803.7,235.0 804.8,235.0 805.9,235.0 807.1,235.0 808.2,235.0 809.3,235.0 810.4,235.0 811.6,235.0 812.7,235.0 813.8,235.0 814.9,235.0 816.1,235.0 817.2,235.0 818.3,235.0 819.5,235.0 820.6,235.0 821.7,235.0 822.8,235.0 824.0,235.0 825.1,235.0 826.2,235.0 827.3,235.0 828.5,235.0 829.6,235.0 830.7,235.0 831.8,235.0 833.0,235.0 834.1,235.0 835.2,235.0 836.3,235.0 837.5,235.0 838.6,235.0 839.7,235.0 840.9,235.0 842.0,235.0 843.1,235.0 844.2,235.0 845.4,235.0 846.5,235.0 847.6,235.0 848.7,235.0 849.9,235.0 851.0,235.0 852.1,235.0 853.2,235.0 854.4,235.0 855.5,235.0 856.6,235.0 857.7,235.0 858.9,235.0 860.0,235.0"/><text x="40" y="352" font-size="13" fill="#333">j3 — 입력 L(파랑) vs 출력 P(빨강), [-41°, 32°], 36s</text><rect x="40" y="360" width="820" height="110" fill="none" stroke="#ddd"/><polyline fill="none" stroke="#1f77b4" stroke-width="1.2" points=""/><polyline fill="none" stroke="#d62728" stroke-width="1.2" points="40.0,421.0 41.1,421.0 42.3,421.0 43.4,421.0 44.5,421.0 45.6,421.0 46.8,421.0 47.9,421.0 49.0,421.0 50.1,421.0 51.3,421.0 52.4,420.8 53.5,420.6 54.6,420.3 55.8,420.2 56.9,419.9 58.0,419.6 59.1,419.0 60.3,417.9 61.4,416.3 62.5,414.0 63.7,411.2 64.8,408.3 65.9,405.8 67.0,403.7 68.2,401.8 69.3,400.0 70.4,398.0 71.5,396.0 72.7,393.9 73.8,392.0 74.9,390.2 76.0,388.6 77.2,387.4 78.3,386.6 79.4,386.4 80.5,386.4 81.7,386.3 82.8,386.4 83.9,386.4 85.1,386.3 86.2,386.4 87.3,386.5 88.4,386.7 89.6,387.4 90.7,388.1 91.8,389.0 92.9,390.1 94.1,391.4 95.2,392.6 96.3,393.5 97.4,394.1 98.6,394.4 99.7,394.3 100.8,394.1 102.0,393.8 103.1,393.1 104.2,392.3 105.3,391.6 106.5,391.0 107.6,390.6 108.7,390.6 109.8,391.2 111.0,393.1 112.1,396.6 113.2,401.3 114.3,406.0 115.5,410.0 116.6,413.0 117.7,415.5 118.8,417.7 120.0,420.2 121.1,423.1 122.2,426.2 123.4,429.4 124.5,432.4 125.6,435.4 126.7,438.2 127.9,440.4 129.0,442.3 130.1,444.0 131.2,445.2 132.4,446.1 133.5,446.7 134.6,447.1 135.7,447.5 136.9,447.7 138.0,447.8 139.1,447.8 140.2,447.8 141.4,447.8 142.5,447.8 143.6,447.7 144.8,447.6 145.9,447.2 147.0,446.6 148.1,446.1 149.3,445.6 150.4,445.2 151.5,444.8 152.6,444.4 153.8,443.8 154.9,443.2 156.0,442.7 157.1,442.2 158.3,441.5 159.4,440.5 160.5,439.2 161.6,437.4 162.8,435.5 163.9,434.0 165.0,432.7 166.2,431.8 167.3,431.4 168.4,431.3 169.5,431.2 170.7,431.3 171.8,431.4 172.9,431.6 174.0,431.7 175.2,432.1 176.3,432.8 177.4,433.8 178.5,435.2 179.7,436.9 180.8,438.3 181.9,439.4 183.0,439.8 184.2,439.8 185.3,439.4 186.4,438.7 187.6,437.9 188.7,437.1 189.8,436.0 190.9,434.8 192.1,433.7 193.2,432.7 194.3,431.5 195.4,430.3 196.6,429.2 197.7,428.3 198.8,427.2 199.9,426.2 201.1,425.1 202.2,424.4 203.3,424.0 204.5,423.8 205.6,423.4 206.7,422.9 207.8,422.6 209.0,422.5 210.1,422.6 211.2,422.8 212.3,423.3 213.5,424.1 214.6,425.2 215.7,426.1 216.8,426.6 218.0,426.7 219.1,426.7 220.2,426.7 221.3,426.7 222.5,426.7 223.6,426.7 224.7,426.7 225.9,426.7 227.0,426.3 228.1,426.0 229.2,425.4 230.4,424.3 231.5,423.1 232.6,422.3 233.7,422.0 234.9,421.8 236.0,421.8 237.1,421.9 238.2,422.1 239.4,422.4 240.5,422.5 241.6,422.8 242.7,423.4 243.9,423.8 245.0,424.3 246.1,424.5 247.3,424.5 248.4,424.5 249.5,424.6 250.6,424.7 251.8,424.8 252.9,425.1 254.0,425.3 255.1,425.6 256.3,425.8 257.4,426.0 258.5,426.1 259.6,426.2 260.8,426.3 261.9,426.4 263.0,426.5 264.1,426.5 265.3,426.5 266.4,426.5 267.5,426.5 268.7,426.5 269.8,426.5 270.9,426.5 272.0,426.5 273.2,426.5 274.3,426.5 275.4,426.5 276.5,426.5 277.7,426.5 278.8,426.5 279.9,426.5 281.0,426.5 282.2,426.5 283.3,426.5 284.4,426.5 285.5,426.5 286.7,426.5 287.8,426.5 288.9,426.5 290.1,426.5 291.2,426.6 292.3,426.7 293.4,427.0 294.6,427.6 295.7,428.4 296.8,429.1 297.9,429.5 299.1,429.9 300.2,430.1 301.3,430.2 302.4,430.4 303.6,430.4 304.7,430.5 305.8,430.3 307.0,429.9 308.1,429.6 309.2,429.3 310.3,428.8 311.5,428.2 312.6,427.3 313.7,426.3 314.8,424.7 316.0,423.0 317.1,421.3 318.2,419.7 319.3,418.0 320.5,416.5 321.6,415.0 322.7,413.8 323.8,413.0 325.0,412.4 326.1,412.0 327.2,411.8 328.4,412.3 329.5,413.5 330.6,415.3 331.7,417.7 332.9,420.3 334.0,423.2 335.1,426.4 336.2,429.5 337.4,432.1 338.5,434.3 339.6,436.8 340.7,439.1 341.9,440.6 343.0,441.2 344.1,441.5 345.2,441.6 346.4,441.7 347.5,441.6 348.6,441.1 349.8,440.2 350.9,438.5 352.0,436.5 353.1,434.6 354.3,432.9 355.4,431.2 356.5,429.7 357.6,428.6 358.8,427.5 359.9,426.8 361.0,426.0 362.1,425.0 363.3,423.8 364.4,422.3 365.5,420.7 366.6,419.3 367.8,418.1 368.9,417.0 370.0,416.3 371.2,415.5 372.3,414.9 373.4,414.2 374.5,413.5 375.7,412.7 376.8,411.5 377.9,410.2 379.0,409.3 380.2,409.0 381.3,409.0 382.4,409.0 383.5,409.2 384.7,410.7 385.8,414.2 386.9,419.5 388.0,425.5 389.2,432.0 390.3,438.5 391.4,444.4 392.6,448.7 393.7,451.1 394.8,452.2 395.9,452.4 397.1,452.2 398.2,450.9 399.3,448.7 400.4,445.4 401.6,441.4 402.7,437.3 403.8,432.3 404.9,427.5 406.1,423.0 407.2,419.6 408.3,417.4 409.5,416.4 410.6,416.3 411.7,416.3 412.8,416.8 414.0,417.6 415.1,418.6 416.2,419.5 417.3,419.9 418.5,419.3 419.6,417.1 420.7,412.9 421.8,407.4 423.0,401.5 424.1,395.8 425.2,390.7 426.3,386.0 427.5,381.3 428.6,376.3 429.7,371.6 430.9,367.8 432.0,364.9 433.1,363.1 434.2,362.2 435.4,362.1 436.5,362.2 437.6,362.4 438.7,363.1 439.9,364.2 441.0,365.7 442.1,367.5 443.2,370.0 444.4,372.9 445.5,376.0 446.6,379.4 447.7,383.1 448.9,387.3 450.0,392.1 451.1,397.0 452.3,401.9 453.4,406.8 454.5,411.6 455.6,416.1 456.8,420.3 457.9,424.2 459.0,428.0 460.1,430.8 461.3,433.0 462.4,434.2 463.5,434.9 464.6,435.5 465.8,435.7 466.9,435.9 468.0,436.2 469.1,436.2 470.3,436.1 471.4,435.7 472.5,434.8 473.7,433.7 474.8,432.7 475.9,431.9 477.0,431.5 478.2,431.2 479.3,431.0 480.4,430.9 481.5,431.1 482.7,432.0 483.8,433.4 484.9,435.3 486.0,437.2 487.2,438.4 488.3,438.9 489.4,439.0 490.5,438.8 491.7,437.0 492.8,432.9 493.9,426.5 495.1,418.8 496.2,410.7 497.3,403.1 498.4,396.6 499.6,391.6 500.7,388.0 501.8,385.3 502.9,383.5 504.1,382.2 505.2,381.7 506.3,381.6 507.4,381.6 508.6,381.7 509.7,382.5 510.8,384.3 512.0,387.6 513.1,392.6 514.2,398.7 515.3,405.4 516.5,412.2 517.6,418.1 518.7,422.7 519.8,426.1 521.0,428.7 522.1,431.1 523.2,433.4 524.3,435.6 525.5,437.3 526.6,438.1 527.7,438.3 528.8,438.4 530.0,438.5 531.1,438.4 532.2,438.1 533.4,437.6 534.5,436.5 535.6,435.1 536.7,433.8 537.9,432.5 539.0,431.4 540.1,430.5 541.2,429.9 542.4,429.7 543.5,429.5 544.6,429.2 545.7,428.9 546.9,428.6 548.0,428.5 549.1,428.4 550.2,428.4 551.4,428.3 552.5,428.2 553.6,427.8 554.8,426.7 555.9,425.1 557.0,422.9 558.1,420.3 559.3,417.7 560.4,415.0 561.5,412.2 562.6,409.4 563.8,406.9 564.9,404.2 566.0,401.7 567.1,399.1 568.3,397.1 569.4,395.9 570.5,395.6 571.6,395.7 572.8,396.1 573.9,397.3 575.0,399.8 576.2,403.5 577.3,408.0 578.4,413.1 579.5,417.8 580.7,421.9 581.8,425.0 582.9,427.7 584.0,429.8 585.2,431.8 586.3,434.0 587.4,436.5 588.5,438.9 589.7,440.9 590.8,442.8 591.9,444.0 593.0,444.7 594.2,444.7 595.3,444.1 596.4,442.4 597.6,439.5 598.7,435.5 599.8,431.2 600.9,427.3 602.1,423.9 603.2,420.9 604.3,418.4 605.4,415.5 606.6,412.0 607.7,408.6 608.8,405.7 609.9,403.6 611.1,402.0 612.2,401.1 613.3,400.7 614.5,400.6 615.6,400.6 616.7,400.7 617.8,401.4 619.0,403.5 620.1,406.5 621.2,409.3 622.3,411.3 623.5,413.0 624.6,414.4 625.7,415.9 626.8,418.0 628.0,420.1 629.1,422.8 630.2,426.2 631.3,430.2 632.5,433.6 633.6,435.8 634.7,436.3 635.9,436.1 637.0,435.3 638.1,434.0 639.2,432.2 640.4,430.2 641.5,428.0 642.6,425.3 643.7,421.5 644.9,417.3 646.0,411.7 647.1,405.1 648.2,398.0 649.4,390.3 650.5,383.4 651.6,377.4 652.7,372.8 653.9,369.2 655.0,366.5 656.1,364.4 657.3,362.6 658.4,361.3 659.5,360.3 660.6,360.0 661.8,360.0 662.9,360.4 664.0,362.2 665.1,365.3 666.3,369.7 667.4,374.4 668.5,378.8 669.6,383.1 670.8,387.1 671.9,391.2 673.0,395.2 674.1,398.8 675.3,402.9 676.4,408.1 677.5,414.7 678.7,422.2 679.8,431.0 680.9,439.5 682.0,448.1 683.2,455.7 684.3,462.1 685.4,466.5 686.5,469.0 687.7,470.0 688.8,470.0 689.9,470.0 691.0,469.9 692.2,469.1 693.3,466.8 694.4,463.2 695.5,458.7 696.7,453.0 697.8,447.0 698.9,441.4 700.1,436.3 701.2,431.3 702.3,426.9 703.4,423.9 704.6,422.4 705.7,422.2 706.8,422.3 707.9,422.3 709.1,422.4 710.2,422.8 711.3,423.8 712.4,425.5 713.6,427.9 714.7,431.1 715.8,433.9 717.0,435.5 718.1,436.2 719.2,436.3 720.3,436.3 721.5,436.7 722.6,437.0 723.7,437.0 724.8,437.0 726.0,436.8 727.1,435.4 728.2,432.9 729.3,430.0 730.5,427.7 731.6,426.5 732.7,426.2 733.8,426.1 735.0,425.3 736.1,424.1 737.2,422.7 738.4,421.1 739.5,419.5 740.6,417.9 741.7,417.1 742.9,416.9 744.0,416.9 745.1,416.8 746.2,416.2 747.4,415.6 748.5,414.5 749.6,413.0 750.7,410.8 751.9,408.8 753.0,406.9 754.1,405.4 755.2,403.7 756.4,402.1 757.5,400.4 758.6,399.1 759.8,397.8 760.9,396.8 762.0,396.0 763.1,395.6 764.3,395.4 765.4,395.4 766.5,395.5 767.6,395.6 768.8,395.6 769.9,395.6 771.0,395.7 772.1,395.8 773.3,396.2 774.4,396.9 775.5,397.6 776.6,398.2 777.8,399.0 778.9,399.6 780.0,400.3 781.2,401.0 782.3,401.6 783.4,402.3 784.5,402.7 785.7,402.9 786.8,403.0 787.9,403.2 789.0,403.6 790.2,404.0 791.3,404.4 792.4,404.6 793.5,404.9 794.7,405.0 795.8,405.2 796.9,405.4 798.0,405.6 799.2,405.8 800.3,405.8 801.4,405.9 802.6,406.0 803.7,406.5 804.8,407.3 805.9,407.8 807.1,408.1 808.2,408.1 809.3,408.1 810.4,408.1 811.6,408.1 812.7,408.1 813.8,408.1 814.9,408.1 816.1,408.1 817.2,408.1 818.3,408.1 819.5,408.1 820.6,408.1 821.7,408.1 822.8,408.1 824.0,408.1 825.1,408.1 826.2,408.1 827.3,408.1 828.5,408.1 829.6,408.1 830.7,408.1 831.8,408.1 833.0,408.1 834.1,408.2 835.2,408.2 836.3,408.1 837.5,408.2 838.6,408.1 839.7,408.1 840.9,408.1 842.0,408.1 843.1,408.1 844.2,408.1 845.4,408.1 846.5,408.2 847.6,408.1 848.7,408.1 849.9,408.1 851.0,408.1 852.1,408.3 853.2,408.7 854.4,409.5 855.5,409.8 856.6,410.0 857.7,410.1 858.9,410.2 860.0,410.3"/></svg>