<svg xmlns="http://www.w3.org/2000/svg" width="900" height="520" font-family="sans-serif"><text x="40" y="32" font-size="13" fill="#333">j1 — 입력 L(파랑) vs 출력 P(빨강), [-14°, 1°], 12s</text><rect x="40" y="40" width="820" height="110" fill="none" stroke="#ddd"/><polyline fill="none" stroke="#1f77b4" stroke-width="1.2" points=""/><polyline fill="none" stroke="#d62728" stroke-width="1.2" points="40.0,47.1 43.4,47.1 46.8,47.1 50.2,47.1 53.7,47.1 57.1,47.1 60.5,47.1 63.9,47.1 67.3,47.1 70.8,47.1 74.2,47.1 77.6,47.1 81.0,47.1 84.4,47.1 87.8,47.1 91.2,47.1 94.7,47.1 98.1,47.1 101.5,47.1 104.9,47.1 108.3,47.1 111.8,47.1 115.2,47.1 118.6,47.1 122.0,47.1 125.4,47.1 128.8,47.1 132.2,47.1 135.7,47.1 139.1,47.1 142.5,47.1 145.9,47.1 149.3,47.1 152.8,47.1 156.2,47.1 159.6,47.1 163.0,47.1 166.4,47.1 169.8,47.1 173.2,47.1 176.7,47.1 180.1,47.1 183.5,47.1 186.9,47.1 190.3,47.1 193.8,47.1 197.2,47.1 200.6,47.1 204.0,47.1 207.4,47.1 210.8,47.1 214.3,47.1 217.7,47.1 221.1,47.1 224.5,47.1 227.9,47.1 231.3,47.1 234.8,47.1 238.2,47.1 241.6,47.1 245.0,47.1 248.4,47.1 251.8,47.1 255.2,47.1 258.7,47.1 262.1,47.1 265.5,47.1 268.9,47.1 272.3,47.1 275.8,47.1 279.2,47.1 282.6,47.1 286.0,46.9 289.4,46.2 292.8,45.3 296.2,43.8 299.7,42.3 303.1,41.4 306.5,40.6 309.9,40.4 313.3,40.0 316.8,40.0 320.2,40.0 323.6,40.8 327.0,42.7 330.4,44.4 333.8,45.7 337.3,47.0 340.7,48.8 344.1,51.9 347.5,56.0 350.9,60.8 354.3,65.5 357.8,69.6 361.2,73.5 364.6,75.5 368.0,76.3 371.4,76.8 374.8,78.1 378.2,78.9 381.7,78.9 385.1,79.4 388.5,80.7 391.9,82.5 395.3,85.6 398.8,89.5 402.2,93.4 405.6,97.2 409.0,101.1 412.4,104.5 415.8,106.7 419.3,107.7 422.7,108.1 426.1,108.1 429.5,108.1 432.9,108.1 436.3,108.4 439.8,108.7 443.2,108.7 446.6,109.2 450.0,110.0 453.4,110.3 456.8,110.9 460.3,111.6 463.7,112.0 467.1,112.0 470.5,112.0 473.9,112.0 477.3,112.0 480.8,112.0 484.2,112.0 487.6,112.0 491.0,112.0 494.4,112.0 497.8,112.0 501.2,112.2 504.7,112.9 508.1,114.0 511.5,115.7 514.9,117.0 518.3,117.8 521.8,117.8 525.2,117.8 528.6,117.8 532.0,117.8 535.4,117.8 538.8,117.8 542.2,117.8 545.7,117.8 549.1,117.8 552.5,117.8 555.9,117.8 559.3,117.6 562.8,116.9 566.2,116.5 569.6,116.3 573.0,116.1 576.4,116.5 579.8,116.3 583.2,115.4 586.7,113.5 590.1,111.7 593.5,111.3 596.9,111.3 600.3,111.6 603.8,112.0 607.2,111.7 610.6,111.3 614.0,111.3 617.4,111.6 620.8,112.0 624.2,111.7 627.7,111.3 631.1,111.3 634.5,111.6 637.9,112.0 641.3,112.0 644.8,111.7 648.2,111.6 651.6,112.2 655.0,113.4 658.4,115.1 661.8,116.6 665.2,118.3 668.7,120.2 672.1,122.2 675.5,124.0 678.9,126.3 682.3,127.5 685.8,127.5 689.2,127.5 692.6,127.5 696.0,127.5 699.4,127.5 702.8,127.5 706.2,127.5 709.7,127.5 713.1,127.1 716.5,126.0 719.9,125.9 723.3,126.2 726.8,126.2 730.2,126.2 733.6,126.2 737.0,126.2 740.4,126.2 743.8,126.8 747.3,128.6 750.7,132.2 754.1,137.9 757.5,143.8 760.9,148.0 764.3,149.8 767.8,150.0 771.2,148.6 774.6,145.3 778.0,139.9 781.4,133.1 784.8,126.0 788.3,120.2 791.7,117.3 795.1,116.8 798.5,117.2 801.9,117.4 805.3,117.8 808.8,117.6 812.2,117.4 815.6,117.8 819.0,117.8 822.4,117.8 825.8,117.6 829.2,117.2 832.7,117.4 836.1,117.8 839.5,117.6 842.9,117.4 846.3,117.8 849.8,117.6 853.2,117.4 856.6,117.6 860.0,117.2"/><text x="40" y="192" font-size="13" fill="#333">j2 — 입력 L(파랑) vs 출력 P(빨강), [-8°, 12°], 12s</text><rect x="40" y="200" width="820" height="110" fill="none" stroke="#ddd"/><polyline fill="none" stroke="#1f77b4" stroke-width="1.2" points=""/><polyline fill="none" stroke="#d62728" stroke-width="1.2" points="40.0,266.2 43.4,266.2 46.8,266.2 50.2,266.2 53.7,266.2 57.1,266.2 60.5,266.2 63.9,266.2 67.3,266.2 70.8,266.2 74.2,266.2 77.6,266.2 81.0,266.2 84.4,266.2 87.8,266.2 91.2,266.2 94.7,266.2 98.1,266.2 101.5,266.2 104.9,266.2 108.3,266.2 111.8,266.2 115.2,266.2 118.6,266.2 122.0,266.2 125.4,266.2 128.8,266.2 132.2,266.2 135.7,266.2 139.1,266.2 142.5,266.2 145.9,266.2 149.3,266.2 152.8,266.2 156.2,266.2 159.6,266.2 163.0,266.2 166.4,266.2 169.8,266.2 173.2,266.2 176.7,266.2 180.1,266.2 183.5,266.2 186.9,266.2 190.3,266.2 193.8,266.2 197.2,266.2 200.6,266.2 204.0,266.2 207.4,266.2 210.8,266.2 214.3,266.2 217.7,266.2 221.1,266.2 224.5,266.2 227.9,266.2 231.3,266.2 234.8,266.2 238.2,266.2 241.6,266.2 245.0,266.2 248.4,265.8 251.8,264.6 255.2,263.1 258.7,261.4 262.1,259.4 265.5,257.6 268.9,256.0 272.3,253.6 275.8,250.6 279.2,247.6 282.6,244.4 286.0,240.8 289.4,236.7 292.8,231.8 296.2,226.5 299.7,221.3 303.1,216.1 306.5,211.7 309.9,207.8 313.3,205.2 316.8,203.6 320.2,202.5 323.6,201.1 327.0,200.3 330.4,200.0 333.8,200.0 337.3,200.0 340.7,200.0 344.1,200.0 347.5,200.2 350.9,201.4 354.3,204.1 357.8,207.5 361.2,211.7 364.6,216.8 368.0,223.0 371.4,229.4 374.8,235.7 378.2,241.7 381.7,247.8 385.1,254.3 388.5,259.8 391.9,262.6 395.3,263.2 398.8,263.4 402.2,264.7 405.6,267.0 409.0,268.8 412.4,270.1 415.8,270.9 419.3,271.4 422.7,272.1 426.1,272.9 429.5,273.4 432.9,273.9 436.3,274.4 439.8,274.9 443.2,275.3 446.6,275.7 450.0,275.7 453.4,275.7 456.8,275.7 460.3,275.7 463.7,275.7 467.1,275.7 470.5,275.7 473.9,275.7 477.3,275.8 480.8,276.2 484.2,276.2 487.6,276.2 491.0,276.0 494.4,275.7 497.8,275.8 501.2,276.2 504.7,276.2 508.1,276.0 511.5,275.7 514.9,275.7 518.3,275.8 521.8,276.0 525.2,275.5 528.6,274.8 532.0,273.8 535.4,273.0 538.8,272.7 542.2,272.3 545.7,271.5 549.1,271.0 552.5,270.3 555.9,269.1 559.3,267.6 562.8,266.3 566.2,265.7 569.6,265.9 573.0,266.4 576.4,266.5 579.8,266.2 583.2,266.2 586.7,265.8 590.1,264.6 593.5,262.2 596.9,258.0 600.3,253.9 603.8,250.0 607.2,245.5 610.6,241.9 614.0,239.4 617.4,237.3 620.8,235.4 624.2,233.1 627.7,231.5 631.1,230.7 634.5,230.2 637.9,230.3 641.3,231.4 644.8,233.1 648.2,236.6 651.6,242.2 655.0,248.2 658.4,255.9 661.8,263.2 665.2,269.3 668.7,274.5 672.1,278.7 675.5,281.9 678.9,283.5 682.3,284.1 685.8,284.3 689.2,284.6 692.6,284.6 696.0,284.6 699.4,284.6 702.8,284.4 706.2,283.6 709.7,282.1 713.1,280.9 716.5,280.6 719.9,280.8 723.3,281.3 726.8,282.4 730.2,284.6 733.6,287.3 737.0,290.5 740.4,294.1 743.8,298.0 747.3,301.4 750.7,304.5 754.1,307.0 757.5,308.9 760.9,309.7 764.3,310.0 767.8,310.0 771.2,310.0 774.6,310.0 778.0,310.0 781.4,309.2 784.8,306.8 788.3,304.6 791.7,303.8 795.1,303.9 798.5,304.7 801.9,304.8 805.3,304.3 808.8,304.0 812.2,304.0 815.6,304.2 819.0,304.5 822.4,304.3 825.8,304.0 829.2,304.0 832.7,304.0 836.1,304.0 839.5,304.0 842.9,304.0 846.3,304.0 849.8,304.0 853.2,304.0 856.6,304.0 860.0,304.0"/><text x="40" y="352" font-size="13" fill="#333">j3 — 입력 L(파랑) vs 출력 P(빨강), [-0°, 23°], 12s</text><rect x="40" y="360" width="820" height="110" fill="none" stroke="#ddd"/><polyline fill="none" stroke="#1f77b4" stroke-width="1.2" points=""/><polyline fill="none" stroke="#d62728" stroke-width="1.2" points="40.0,468.6 43.4,468.6 46.8,468.6 50.2,468.6 53.7,468.6 57.1,468.6 60.5,468.6 63.9,468.6 67.3,468.6 70.8,468.6 74.2,468.6 77.6,468.6 81.0,468.6 84.4,468.6 87.8,468.6 91.2,468.6 94.7,468.6 98.1,468.6 101.5,468.6 104.9,468.6 108.3,468.6 111.8,468.6 115.2,468.6 118.6,468.6 122.0,468.6 125.4,468.6 128.8,468.6 132.2,468.6 135.7,468.6 139.1,468.6 142.5,468.6 145.9,468.6 149.3,468.6 152.8,468.6 156.2,468.6 159.6,468.6 163.0,468.6 166.4,468.6 169.8,468.6 173.2,468.6 176.7,468.6 180.1,468.6 183.5,468.6 186.9,468.6 190.3,468.6 193.8,468.6 197.2,468.6 200.6,468.6 204.0,468.6 207.4,468.6 210.8,468.6 214.3,468.6 217.7,468.6 221.1,468.6 224.5,468.6 227.9,468.6 231.3,468.6 234.8,468.6 238.2,468.6 241.6,468.6 245.0,468.4 248.4,467.4 251.8,465.1 255.2,463.1 258.7,461.8 262.1,460.4 265.5,458.9 268.9,457.2 272.3,454.3 275.8,451.0 279.2,447.0 282.6,442.1 286.0,437.3 289.4,432.2 292.8,427.2 296.2,421.6 299.7,415.4 303.1,408.8 306.5,402.6 309.9,396.7 313.3,391.3 316.8,386.0 320.2,381.5 323.6,378.0 327.0,374.7 330.4,371.5 333.8,369.1 337.3,367.4 340.7,366.4 344.1,366.4 347.5,366.9 350.9,368.1 354.3,370.2 357.8,373.8 361.2,378.6 364.6,384.0 368.0,389.7 371.4,395.1 374.8,400.6 378.2,406.6 381.7,412.0 385.1,416.9 388.5,421.3 391.9,425.5 395.3,429.3 398.8,432.7 402.2,435.5 405.6,437.6 409.0,439.5 412.4,441.2 415.8,442.7 419.3,443.7 422.7,444.2 426.1,445.2 429.5,446.3 432.9,447.5 436.3,448.9 439.8,449.8 443.2,450.6 446.6,450.8 450.0,450.9 453.4,450.6 456.8,450.6 460.3,450.6 463.7,450.6 467.1,450.9 470.5,451.6 473.9,452.0 477.3,452.3 480.8,452.6 484.2,453.3 487.6,453.9 491.0,454.4 494.4,454.4 497.8,454.5 501.2,455.0 504.7,455.4 508.1,455.6 511.5,455.6 514.9,455.6 518.3,455.6 521.8,455.6 525.2,455.8 528.6,455.9 532.0,455.6 535.4,455.5 538.8,455.0 542.2,454.6 545.7,454.4 549.1,454.4 552.5,454.4 555.9,454.4 559.3,454.4 562.8,454.4 566.2,454.4 569.6,454.4 573.0,454.4 576.4,454.4 579.8,454.4 583.2,453.7 586.7,451.4 590.1,446.9 593.5,439.4 596.9,428.9 600.3,417.0 603.8,405.6 607.2,395.3 610.6,385.5 614.0,376.4 617.4,369.0 620.8,363.9 624.2,361.1 627.7,360.0 631.1,360.0 634.5,361.7 637.9,365.1 641.3,371.2 644.8,379.7 648.2,388.2 651.6,397.8 655.0,407.7 658.4,417.8 661.8,426.9 665.2,434.2 668.7,440.1 672.1,444.4 675.5,447.4 678.9,449.6 682.3,450.8 685.8,450.6 689.2,449.5 692.6,448.6 696.0,447.3 699.4,445.5 702.8,444.1 706.2,442.8 709.7,442.9 713.1,444.8 716.5,447.6 719.9,450.4 723.3,453.2 726.8,457.3 730.2,462.7 733.6,466.7 737.0,468.2 740.4,469.3 743.8,470.0 747.3,469.9 750.7,469.1 754.1,468.6 757.5,468.6 760.9,468.3 764.3,468.2 767.8,469.2 771.2,468.6 774.6,466.5 778.0,464.3 781.4,461.7 784.8,459.4 788.3,458.0 791.7,457.5 795.1,456.7 798.5,455.3 801.9,455.1 805.3,455.8 808.8,455.9 812.2,455.6 815.6,455.6 819.0,455.8 822.4,455.9 825.8,455.6 829.2,455.6 832.7,455.8 836.1,455.9 839.5,455.8 842.9,455.9 846.3,455.6 849.8,455.6 853.2,455.6 856.6,455.6 860.0,455.6"/></svg>